<svg viewBox="0 0 98.842 36.965" height="139.709" width="373.577" xmlns="http://www.w3.org/2000/svg"><path d="M33.434 17.572a3.476 3.476 0 0 0-.573.024c-6.278 0-12.556-.003-18.834.002-.878.011-1.232.984-1.082 1.73.024 3.388-.048 6.784.035 10.166.228.554-.421 1.063-.574 1.602L9.87 36.07c0 .301.293.674 1.055.674 1.483 0 2.905-.051 4.352-.003 7.106-.012 14.213.023 21.318-.018.644.015 1.058-.237 1.058-.653.109-.259-.333-.906-.524-1.254-.821-1.668-1.752-3.34-2.505-5.005.372-.834.075-1.808.17-2.696-.024-2.886.048-5.781-.035-8.662-.138-.646-.734-.854-1.325-.88zm-12.092 10.59h1.243v1.933h3.358v-1.933h.242c-.106.63.27 1.448-.242 1.933-.78.3-1.682.067-2.509.158-.63-.051-1.635.283-1.88-.544-.13-.455.242-1.418-.212-1.547z" style="color:#000;font-style:normal;font-variant:normal;font-weight:400;font-stretch:normal;font-size:medium;line-height:normal;font-family:sans-serif;font-variant-ligatures:normal;font-variant-position:normal;font-variant-caps:normal;font-variant-numeric:normal;font-variant-alternates:normal;font-variant-east-asian:normal;font-feature-settings:normal;font-variation-settings:normal;text-indent:0;text-align:start;text-decoration:none;text-decoration-line:none;text-decoration-style:solid;text-decoration-color:#000;letter-spacing:normal;word-spacing:normal;text-transform:none;writing-mode:lr-tb;direction:ltr;text-orientation:mixed;dominant-baseline:auto;baseline-shift:baseline;text-anchor:start;white-space:normal;shape-padding:0;shape-margin:0;inline-size:0;clip-rule:nonzero;display:inline;overflow:visible;visibility:visible;isolation:auto;mix-blend-mode:normal;color-interpolation:sRGB;color-interpolation-filters:linearRGB;solid-color:#000;solid-opacity:1;vector-effect:none;fill:#fff;fill-opacity:1;fill-rule:nonzero;stroke:none;stroke-width:1;stroke-linecap:round;stroke-linejoin:miter;stroke-miterlimit:4;stroke-dasharray:none;stroke-dashoffset:0;stroke-opacity:1;color-rendering:auto;image-rendering:auto;shape-rendering:auto;text-rendering:auto;enable-background:accumulate;stop-color:#000" transform="translate(-4.87 -9.277)"/><g style="fill:#fff;fill-opacity:1"><path style="font-style:normal;font-variant:normal;font-weight:700;font-stretch:normal;font-size:20.6314px;line-height:1.15;font-family:hack;-inkscape-font-specification:'hack Bold';letter-spacing:-.0132292px;word-spacing:-.0079375px;fill:#fff;fill-opacity:1;stroke:none;stroke-width:.515786" d="M146.314 137.35q-2.68 0-4.17-1.562-1.481-1.562-1.481-4.352 0-2.8 1.47-4.372 1.472-1.582 4.09-1.582 1.794 0 3.436.867v2.7q-1.31-1.149-2.952-1.149-1.48 0-2.266.917-.786.916-.786 2.609 0 1.682.776 2.599.785.907 2.236.907 1.723 0 2.992-1.159v2.71q-1.501.866-3.345.866zM155.285 137.138c-1.397 0-2.405-.366-3.022-1.098-.612-.739-.917-1.941-.917-3.607v-8.784h-.016v-2.267h2.968v11.051c0 .873.137 1.498.413 1.874.282.376.748.564 1.4.564h2.357v2.267z" transform="translate(-106.872 -116.382)"/></g><g style="fill:#288fbe;fill-opacity:1"><path style="font-style:normal;font-variant:normal;font-weight:700;font-stretch:normal;font-size:20.6314px;line-height:1.15;font-family:hack;-inkscape-font-specification:'hack Bold';letter-spacing:-.0132292px;word-spacing:-.0079375px;fill:#288fbe;fill-opacity:1;stroke:none;stroke-width:.515786" d="M164.78 137.35q-2.68 0-4.17-1.562-1.481-1.562-1.481-4.352 0-2.8 1.47-4.372 1.471-1.582 4.09-1.582 1.794 0 3.436.867v2.7q-1.31-1.149-2.952-1.149-1.48 0-2.267.917-.785.916-.785 2.609 0 1.682.775 2.599.786.907 2.237.907 1.722 0 2.992-1.159v2.71q-1.501.866-3.345.866zM174.699 137.35q-2.912 0-4.433-1.502-1.51-1.51-1.51-4.362 0-1.803.624-3.143.624-1.35 1.863-2.095 1.25-.746 3.123-.746 1.542 0 2.67.716 1.128.715 1.743 1.994.624 1.27.624 2.962v1.199h-7.646q0 2.64 3.083 2.64 2.025 0 4.09-1.22v2.71q-2.055.846-4.231.846zm1.732-7.193q0-1.169-.574-1.763-.574-.605-1.642-.605-1.088 0-1.702.615-.615.614-.726 1.753zM181.177 125.774h2.66l.292 1.753q.433-.957 1.32-1.49.896-.535 2.095-.535 1.24 0 2.297.575v2.81q-.977-.886-2.559-.886-1.28 0-2.075.584-.796.584-.987 1.682-.05.262-.07.635-.021.373-.021.957v5.198h-2.952zM197.901 137.097c-1.108 0-1.978-.114-2.61-.342-.63-.228-1.077-.621-1.339-1.179-.255-.557-.383-1.323-.383-2.297v-5.238h-2.88v-2.267h2.88v-4.392l2.952.871v3.521h3.858v2.267h-3.858v5.38c0 .496.124.856.373 1.077.255.222.661.333 1.219.333h2.266v2.266z" transform="translate(-106.872 -116.382)"/></g><g style="fill:#203b59;fill-opacity:1"><path style="color:#000;font-style:normal;font-variant:normal;font-weight:400;font-stretch:normal;font-size:medium;line-height:normal;font-family:sans-serif;font-variant-ligatures:normal;font-variant-position:normal;font-variant-caps:normal;font-variant-numeric:normal;font-variant-alternates:normal;font-variant-east-asian:normal;font-feature-settings:normal;font-variation-settings:normal;text-indent:0;text-align:start;text-decoration:none;text-decoration-line:none;text-decoration-style:solid;text-decoration-color:#000;letter-spacing:normal;word-spacing:normal;text-transform:none;writing-mode:lr-tb;direction:ltr;text-orientation:mixed;dominant-baseline:auto;baseline-shift:baseline;text-anchor:start;white-space:normal;shape-padding:0;shape-margin:0;inline-size:0;clip-rule:nonzero;display:inline;overflow:visible;visibility:visible;opacity:1;isolation:auto;mix-blend-mode:normal;color-interpolation:sRGB;color-interpolation-filters:linearRGB;solid-color:#000;solid-opacity:1;vector-effect:none;fill:#203b59;fill-opacity:1;fill-rule:nonzero;stroke:none;stroke-width:3.77953;stroke-linecap:round;stroke-linejoin:miter;stroke-miterlimit:4;stroke-dasharray:none;stroke-dashoffset:0;stroke-opacity:1;color-rendering:auto;image-rendering:auto;shape-rendering:auto;text-rendering:auto;enable-background:accumulate;stop-color:#000;stop-opacity:1" d="M7.725 73.988c0 .014-.004.026-.004.04a1.89 1.89 0 0 0 1.89 1.888h94.91a1.888 1.888 0 0 0 1.89-1.889c0-.013-.005-.025-.005-.039z" transform="translate(4.45 7.315) scale(.25349)"/><path style="fill:#203b59;fill-opacity:1;stroke:none;stroke-width:.831284;stroke-miterlimit:4;stroke-dasharray:none;stroke-opacity:1" d="M114.468 120.967a.603.603 0 0 0-.605.604v10.486c0 .335.27.604.605.604h6.946l-.009-1.128h-7.166V121.39h20.04v10.141h-7.172l.009 1.129h6.934c.335 0 .605-.27.605-.604V121.57a.603.603 0 0 0-.605-.604z" transform="matrix(.95807 0 0 .95807 -100.098 -106.663)"/><path d="m113.967 132.802-2.844 5.58h26.171l-2.836-5.575-7.227-.002v-.001h-.16c-.172.458-.609.79-1.126.794l-3.305.042a1.191 1.191 0 0 1-.652-.188h-.02v-.012a1.233 1.233 0 0 1-.493-.636h-.059zm7.754 3.299h5.165l.962 1.904h-7.091z" style="fill:#203b59;fill-opacity:1;stroke:none;stroke-width:.757704;stroke-miterlimit:4;stroke-dasharray:none;stroke-opacity:1" transform="matrix(.95807 0 0 .95807 -100.098 -106.663)"/></g><path style="color:#000;font-style:normal;font-variant:normal;font-weight:400;font-stretch:normal;font-size:medium;line-height:normal;font-family:sans-serif;font-variant-ligatures:normal;font-variant-position:normal;font-variant-caps:normal;font-variant-numeric:normal;font-variant-alternates:normal;font-feature-settings:normal;text-indent:0;text-align:start;text-decoration:none;text-decoration-line:none;text-decoration-style:solid;text-decoration-color:#000;letter-spacing:normal;word-spacing:normal;text-transform:none;writing-mode:lr-tb;direction:ltr;text-orientation:mixed;dominant-baseline:auto;baseline-shift:baseline;text-anchor:start;white-space:normal;shape-padding:0;clip-rule:nonzero;display:inline;overflow:visible;visibility:visible;isolation:auto;mix-blend-mode:normal;color-interpolation:sRGB;color-interpolation-filters:linearRGB;solid-color:#000;solid-opacity:1;vector-effect:none;fill:#288fbe;fill-opacity:1;fill-rule:nonzero;stroke:none;stroke-width:.214963;stroke-linecap:round;stroke-linejoin:round;stroke-miterlimit:4;stroke-dasharray:none;stroke-dashoffset:0;stroke-opacity:1;color-rendering:auto;image-rendering:auto;shape-rendering:auto;text-rendering:auto;enable-background:accumulate" d="M124.233 126.644v.001a2.116 2.116 0 0 0-1.876 1.18c.07.012.14.027.21.038.14.021.28.04.42.057.095.011.19.019.286.029.23-.279.575-.461.967-.465.398-.003.749.177.985.458l.215-.022c.14-.018.278-.037.418-.058.095-.014.189-.033.283-.05a2.118 2.118 0 0 0-1.908-1.168zm2.136 2.384c-.108.018-.216.04-.324.057-.15.023-.302.045-.453.064l-.063.006v.435l-2.554.03v-.456l-.141-.015a16.89 16.89 0 0 1-.453-.063c-.082-.013-.163-.03-.245-.043v.694a.965.965 0 0 0-.526.87l.04 1.824a.968.968 0 0 0 .981.957l3.306-.04a.966.966 0 0 0 .957-.98l-.04-1.824a.963.963 0 0 0-.485-.825zm-2.115 1.48a.603.603 0 0 1 .265 1.143l.289.817h-1.124l.299-.819a.603.603 0 0 1 .27-1.14z" transform="matrix(.95807 0 0 .95807 -100.098 -106.663)"/><g style="fill:#203b59;fill-opacity:1"><path style="fill:#203b59;fill-opacity:1;stroke:none;stroke-width:.831284;stroke-miterlimit:4;stroke-dasharray:none;stroke-opacity:1" d="M114.239 123.105v2.687-2.07a.765.765 0 0 1 .319.188 10.808 10.808 0 0 0 .97.87c.237.184.342.49.293.784-.169-.12-.335-.244-.498-.371-.092-.075-.272-.013-.395.141-.121.152-.14.336-.04.412.172.135.346.265.523.391a.813.813 0 0 1-.874-.094c-.102-.08-.199-.167-.298-.251v.702l.205.164c.47.352 1.099.256 1.519-.148a14.365 14.365 0 0 0 1.084.635l.067.034c-.144.572.08 1.162.627 1.391a17.808 17.808 0 0 0 1.981.713c.55.156 1.097-.15 1.35-.672a17.872 17.872 0 0 0 2.514.381c.294.052.387-.707.058-.704a18.499 18.499 0 0 1-2.418-.364c-.002-.587-.316-1.09-.772-1.217a14.377 14.377 0 0 1-1.67-.6c-.416-.175-.973.011-1.345.45-.02-.012-.042-.02-.062-.032a13.756 13.756 0 0 1-1.033-.607c.202-.553.088-1.135-.283-1.412l-.66-.566-.49-.462c-.045-.046-.097-.083-.14-.129a.859.859 0 0 0-.532-.244zm4.274 3.544a.79.79 0 0 1 .3.056 14.303 14.303 0 0 0 1.24.445c.29.087.5.335.558.627-.2-.053-.4-.109-.598-.169-.114-.036-.256.086-.315.274-.056.184-.008.362.112.396.206.063.413.122.621.176a.807.807 0 0 1-.838.227 17.171 17.171 0 0 1-1.374-.494.805.805 0 0 1-.517-.72c.17.079.339.159.511.232.258.138.588-.544.273-.644-.163-.07-.323-.146-.483-.222a.839.839 0 0 1 .51-.184zM134.266 123.105v2.687-2.07a.765.765 0 0 0-.319.188 10.808 10.808 0 0 1-.97.87.823.823 0 0 0-.293.784c.168-.12.335-.244.497-.371.093-.075.272-.013.396.141.12.152.14.336.04.412-.172.135-.346.265-.523.391a.813.813 0 0 0 .874-.094c.101-.08.199-.167.298-.251v.702l-.205.164c-.47.352-1.1.256-1.519-.148a14.365 14.365 0 0 1-1.084.635l-.067.034c.143.572-.08 1.162-.627 1.391a17.808 17.808 0 0 1-1.981.713c-.55.156-1.098-.15-1.35-.672a17.872 17.872 0 0 1-2.514.381c-.295.052-.387-.707-.058-.704a18.499 18.499 0 0 0 2.417-.364c.002-.587.317-1.09.773-1.217a14.377 14.377 0 0 0 1.67-.6c.416-.175.972.011 1.345.45.02-.012.042-.02.062-.032a13.756 13.756 0 0 0 1.033-.607c-.203-.553-.088-1.135.283-1.412l.659-.566.491-.462c.045-.046.097-.083.14-.129a.859.859 0 0 1 .532-.244zm-4.275 3.544a.79.79 0 0 0-.3.056 14.303 14.303 0 0 1-1.239.445.819.819 0 0 0-.559.627c.2-.053.401-.109.6-.169.113-.036.255.086.313.274.057.184.008.362-.111.396-.206.063-.413.122-.621.176.197.22.518.324.838.227a17.171 17.171 0 0 0 1.373-.494.805.805 0 0 0 .518-.72c-.17.079-.34.159-.512.232-.257.138-.587-.544-.272-.644.163-.07.322-.146.483-.222a.839.839 0 0 0-.51-.184z" transform="matrix(.95807 0 0 .95807 -100.098 -106.71)"/></g><g style="fill:#fff;fill-opacity:1;stroke:none"><g style="fill:#fff;fill-opacity:1;stroke:none"><g aria-label="y Ciberseguridad" style="font-style:normal;font-weight:400;font-size:7.31917px;line-height:1.25;font-family:sans-serif;letter-spacing:0;fill:#fff;fill-opacity:1;stroke:none;stroke-width:.182979"><path d="M75.402 142.787q.014 0 .164.375l.972 2.316q.014-.018.418-.954.736-1.733.747-1.737h.54v.004l-1.901 4.432-.218.5h-.54v-.004l.682-1.605-1.425-3.323.003-.004zM82.889 140.95h.043q.907 0 1.64.74.325.386.404.586-.429.222-.443.222-.093-.179-.243-.372-.597-.675-1.37-.675h-.02q-.808 0-1.405.721-.465.626-.465 1.376v.036q0 .872.604 1.537.561.56 1.283.56.79 0 1.39-.696.147-.2.233-.364l.44.228q-.083.215-.433.622-.722.711-1.644.711-.983 0-1.733-.822-.64-.797-.64-1.776v-.036q0-1.075.75-1.89.719-.708 1.609-.708zM85.801 142.787h.494l.003.004v3.388l-.003.004H85.8l-.003-.004v-3.388zm.233-1.837h.028q.133 0 .25.115.093.11.093.232v.018q0 .153-.128.268-.104.082-.218.082h-.022q-.157 0-.271-.14-.075-.1-.075-.203v-.029q0-.135.114-.25.11-.093.229-.093zM87.438 140.95h.48l.01.01v2.392h.003q.047-.104.3-.329.362-.272.83-.272.872 0 1.404.75.29.462.29.944v.079q0 .65-.486 1.19-.258.243-.468.34-.358.16-.69.16l-.004-.004-.018.004q-.772 0-1.158-.593h-.003v.554l-.01.007h-.48l-.01-.007v-5.214zm.518 3.495v.04q0 .622.48 1.022.278.204.682.204.565 0 .943-.54.193-.332.193-.654v-.057q0-.536-.436-.94-.314-.261-.768-.261-.661 0-.99.7-.104.265-.104.486zM92.963 142.755q.737 0 1.262.65.347.511.347.998v.042q0 .165-.022.165h-2.712q0 .171.143.482.214.4.618.558.196.064.354.064.49 0 .847-.425.125-.172.164-.275h.007q.29.114.454.193-.079.225-.35.525-.493.482-1.119.482-.747 0-1.276-.654-.346-.496-.346-1.054v-.032q0-.715.51-1.25.48-.469 1.12-.469zm-1.075 1.362h2.137q-.15-.469-.508-.69-.26-.168-.568-.168-.522 0-.89.486-.114.168-.171.372zM96.834 142.762q.382 0 .664.168l-.11.533h-.004q-.318-.186-.586-.186-.597 0-.836.55-.054.132-.054.272v2.073l-.01.01h-.48l-.01-.01v-3.331l.01-.01h.48l.01.01v.29h.004q.157-.219.46-.308.237-.06.462-.06zM99.243 142.734h.05q.364 0 .693.175.107.053.229.153.11.097.175.179.053.072.053.082-.325.186-.429.254h-.004q-.064-.097-.193-.186-.232-.157-.553-.157-.376 0-.612.186-.16.143-.16.314 0 .129.103.197.04.035.111.068.157.082.536.171l.454.09q.175.042.293.1.107.05.218.132.032.021.132.125.215.254.215.55v.022q0 .318-.233.6-.093.1-.146.14-.115.082-.207.128-.344.161-.704.161h-.047q-.397 0-.761-.193-.35-.2-.543-.547.003-.007.207-.118l.229-.125q.164.286.479.411.196.072.414.072.315 0 .565-.147.05-.025.128-.1.118-.14.118-.293 0-.236-.296-.375-.072-.032-.208-.064-.571-.1-.897-.219-.66-.243-.66-.782v-.01q0-.326.246-.601.118-.118.164-.143.157-.115.372-.179.236-.071.468-.071zM102.72 142.755q.736 0 1.261.65.347.511.347.998v.042q0 .165-.021.165h-2.713q0 .171.143.482.214.4.618.558.197.064.354.064.49 0 .847-.425.125-.172.165-.275h.007q.289.114.453.193-.078.225-.35.525-.493.482-1.118.482-.747 0-1.276-.654-.347-.496-.347-1.054v-.032q0-.715.511-1.25.479-.469 1.119-.469zm-1.076 1.362h2.137q-.15-.469-.507-.69-.261-.168-.568-.168-.522 0-.89.486-.115.168-.172.372zM105.554 144.013v.032q0 .225.164.44.086.096.132.128.24.18.54.18.325 0 .58-.219.25-.236.25-.547 0-.29-.226-.521-.118-.111-.25-.168-.175-.075-.35-.075h-.018q-.236 0-.454.128-.064.036-.164.136-.104.114-.143.214-.061.14-.061.272zm-.093 2.573v.007q0 .229.25.418.315.211.8.211.444 0 .762-.207.057-.036.14-.122.153-.171.153-.34v-.01q0-.164-.14-.3-.107-.097-.282-.15-.221-.057-.425-.057h-.34q-.268 0-.475-.033-.09.054-.229.18-.214.22-.214.403zm.922-3.824q.432 0 .797.247.079-.086.121-.115.13-.085.24-.107.093-.025.179-.025h.11l.004.004v.493l-.004.004h-.089q-.11 0-.172.065-.028.035-.028.064.06.093.114.243.065.197.065.393 0 .483-.35.858-.147.14-.219.178-.103.072-.24.13-.253.1-.514.1h-.021q-.304 0-.597-.137-.068.083-.068.176 0 .085.054.107.143.1.657.1l.25-.004q.697 0 1.08.325.1.097.139.15.175.254.175.54 0 .286-.186.56-.043.069-.164.187-.129.114-.207.16-.1.065-.218.115-.15.06-.286.096-.247.054-.433.054h-.121q-.315 0-.654-.11-.168-.065-.3-.144-.093-.057-.2-.15-.097-.096-.14-.154-.197-.275-.197-.557v-.04q0-.289.233-.603.09-.108.175-.168l.021-.018q-.178-.172-.178-.443v-.011q0-.247.157-.458.007-.007.007-.014-.079-.086-.14-.182-.182-.304-.182-.643 0-.465.329-.833.122-.125.16-.15.112-.082.233-.143.297-.14.608-.14zM109.02 142.787h.48l.01.01v2.138q0 .558.6.715.118.032.404.032.365 0 .547-.097.275-.132.368-.368.047-.164.047-.321v-2.098l.007-.01h.482l.01.01v3.324l-.01.01h-.482l-.007-.01v-.333q-.393.393-.99.393-.64 0-.994-.271-.482-.368-.482-.962v-2.151zM114.492 142.762q.382 0 .665.168l-.111.533h-.004q-.318-.186-.586-.186-.597 0-.836.55-.054.132-.054.272v2.073l-.01.01h-.48l-.01-.01v-3.331l.01-.01h.48l.01.01v.29h.004q.157-.219.46-.308.237-.06.462-.06zM115.868 142.787h.493l.004.004v3.388l-.004.004h-.493l-.004-.004v-3.388zm.232-1.837h.029q.132 0 .25.115.093.11.093.232v.018q0 .153-.129.268-.103.082-.218.082h-.021q-.158 0-.272-.14-.075-.1-.075-.203v-.029q0-.135.114-.25.111-.093.23-.093zM120.124 140.95h.483l.01.01v5.215l-.01.007h-.483l-.007-.007v-.554h-.004q-.386.593-1.165.593v-.004l-.007.004q-.693 0-1.215-.557-.436-.522-.436-1.15v-.044q0-.672.483-1.2.507-.512 1.208-.512.704 0 1.122.58l.01.02h.004v-2.39zm-2.333 3.52v.018q0 .597.478.99.3.233.669.233.775 0 1.072-.762.079-.221.079-.443v-.078q0-.311-.197-.65-.336-.519-.897-.519-.758 0-1.1.715-.104.253-.104.497zM123.18 142.751q.704 0 1.122.58l.01.02h.005v-.557l.007-.01h.482l.01.01v3.378l-.01.01h-.482l-.007-.01v-.55h-.004q-.386.593-1.165.593v-.004l-.007.004q-.694 0-1.215-.558-.436-.522-.436-1.15v-.044q0-.672.482-1.2.508-.512 1.208-.512zm-1.19 1.72v.017q0 .597.479.99.3.233.668.233.776 0 1.072-.762.079-.221.079-.443v-.078q0-.311-.197-.65-.336-.519-.897-.519-.757 0-1.1.715-.104.253-.104.497zM128.53 140.95h.482l.011.01v5.215l-.01.007h-.483l-.007-.007v-.554h-.004q-.386.593-1.165.593v-.004l-.007.004q-.693 0-1.215-.557-.436-.522-.436-1.15v-.044q0-.672.482-1.2.508-.512 1.208-.512.704 0 1.122.58l.011.02h.004v-2.39zm-2.334 3.52v.018q0 .597.48.99.3.233.667.233.776 0 1.073-.762.078-.221.078-.443v-.078q0-.311-.196-.65-.336-.519-.897-.519-.758 0-1.101.715-.104.253-.104.497z" style="font-style:normal;font-variant:normal;font-weight:400;font-stretch:normal;font-family:'Louis George Café';-inkscape-font-specification:'Louis George Café';fill:#fff;fill-opacity:1;stroke:none;stroke-width:.182979" transform="matrix(.63781 0 0 .63781 -2.332 -62.255)"/></g></g><g style="fill:#fff;fill-opacity:1;stroke:none"><g aria-label="Lab. de Criptografía Aplicada" style="font-style:normal;font-weight:400;font-size:7.31917px;line-height:1.25;font-family:sans-serif;fill:#fff;fill-opacity:1;stroke:none;stroke-width:.182979"><path d="M36.854 135.422h.494l.003.004v4.728h2.241v.5h-2.738l-.003-.004v-5.225zM41.675 137.223q.704 0 1.123.579l.01.021h.004v-.557l.007-.011h.483l.01.01v3.378l-.01.01h-.483l-.007-.01v-.55h-.004q-.386.593-1.165.593v-.004l-.007.004q-.693 0-1.215-.558-.436-.522-.436-1.15v-.043q0-.672.483-1.201.507-.511 1.208-.511zm-1.19 1.719v.018q0 .596.48.99.3.232.668.232.775 0 1.072-.761.078-.222.078-.443v-.08q0-.31-.196-.65-.336-.518-.897-.518-.758 0-1.101.715-.104.254-.104.497zM44.406 135.422h.479l.01.01v2.391h.004q.047-.104.3-.329.361-.271.83-.271.871 0 1.404.75.29.461.29.944v.078q0 .65-.487 1.19-.257.243-.468.34-.357.16-.69.16l-.003-.003-.018.004q-.772 0-1.158-.594h-.004v.554l-.01.007h-.48l-.01-.007v-5.214zm.518 3.495v.039q0 .622.479 1.022.279.204.683.204.564 0 .943-.54.193-.332.193-.654v-.057q0-.536-.436-.94-.314-.26-.768-.26-.662 0-.99.7-.104.264-.104.486zM48.955 139.939h.007q.154 0 .268.125.086.107.086.218v.021q0 .154-.132.268-.1.083-.229.083-.136 0-.246-.1-.108-.115-.108-.244v-.028q0-.136.118-.25.104-.093.236-.093zM54.849 135.422h.482l.01.01v5.214l-.01.007h-.482l-.008-.007v-.554h-.003q-.386.594-1.165.594v-.004l-.007.004q-.694 0-1.215-.558-.436-.522-.436-1.15v-.043q0-.672.482-1.201.508-.511 1.208-.511.704 0 1.122.579l.01.021h.004v-2.39zm-2.334 3.52v.018q0 .596.479.99.3.232.668.232.776 0 1.072-.761.079-.222.079-.443v-.08q0-.31-.197-.65-.336-.518-.897-.518-.757 0-1.1.715-.104.254-.104.497zM57.754 137.226q.736 0 1.262.65.346.512.346.998v.043q0 .164-.021.164h-2.713q0 .172.143.483.215.4.619.557.196.064.353.064.49 0 .847-.425.125-.171.165-.275h.007q.29.114.454.193-.079.225-.35.525-.494.483-1.12.483-.746 0-1.275-.654-.347-.497-.347-1.055v-.032q0-.714.511-1.25.48-.469 1.119-.469zm-1.076 1.362h2.137q-.15-.468-.507-.69-.26-.168-.568-.168-.522 0-.89.486-.114.168-.172.372zM64.173 135.422h.043q.907 0 1.64.74.325.385.404.585-.43.222-.443.222-.093-.179-.243-.372-.597-.675-1.37-.675h-.02q-.808 0-1.405.722-.465.625-.465 1.376v.035q0 .872.604 1.537.561.561 1.283.561.79 0 1.39-.697.147-.2.233-.364l.44.229q-.083.214-.433.621-.722.712-1.644.712-.983 0-1.733-.822-.64-.797-.64-1.777v-.035q0-1.076.75-1.89.719-.708 1.609-.708zM68.472 137.233q.382 0 .665.168l-.111.533h-.004q-.318-.186-.586-.186-.597 0-.836.55-.054.133-.054.272v2.073l-.01.01h-.48l-.01-.01v-3.33l.01-.012h.48l.01.011v.29h.004q.157-.218.46-.308.237-.06.462-.06zM69.848 137.258h.493l.004.004v3.388l-.004.004h-.493l-.004-.004v-3.388zm.232-1.836h.029q.132 0 .25.114.093.11.093.232v.018q0 .154-.129.268-.103.082-.218.082h-.021q-.158 0-.272-.139-.075-.1-.075-.204v-.028q0-.136.114-.25.111-.093.23-.093zM73.14 137.223l.003.007h.007l.004-.007q.618 0 1.118.46.261.272.365.508.164.375.164.722v.079q0 .657-.497 1.204-.507.49-1.193.49-.704 0-1.122-.58l-.011-.017h-.004v2.094l-.01.01h-.48l-.01-.01v-4.871l.01-.007h.48l.01.007v.508q.397-.597 1.165-.597zm-1.137 1.733v.036q0 .436.314.829.318.36.787.36.714 0 1.065-.653.132-.275.132-.55v-.054q0-.49-.379-.88-.336-.314-.765-.314-.775 0-1.068.747-.086.229-.086.479zM75.823 135.422h.497l.004.004v1.833h.922l.003.004v.497l-.003.004h-.922v1.962q0 .146.075.271.075.1.203.14.058.018.1.018h.022q.132 0 .372-.093l.042-.022q.183.4.204.458-.05.028-.204.082-.25.075-.393.075h-.06q-.19 0-.4-.11-.283-.154-.394-.448-.068-.185-.068-.403v-1.93h-.56l-.004-.004v-.497l.003-.004h.561zM79.497 137.233h.093q.55 0 1.044.426.56.547.56 1.3 0 .765-.589 1.323-.486.404-1.061.404-.619 0-1.119-.458-.529-.546-.529-1.25v-.043q0-.7.525-1.244.504-.458 1.076-.458zm-1.1 1.723v.018q0 .504.378.893.347.318.769.318.54 0 .922-.493.228-.35.228-.736 0-.54-.407-.933-.332-.29-.722-.29h-.054q-.425 0-.793.369-.322.375-.322.854zM82.453 138.484v.032q0 .226.164.44.086.097.132.129.24.178.54.178.325 0 .579-.218.25-.235.25-.546 0-.29-.225-.522-.118-.11-.25-.168-.175-.075-.35-.075h-.018q-.236 0-.454.128-.065.036-.165.136-.103.115-.143.215-.06.139-.06.271zm-.093 2.573v.007q0 .23.25.419.314.21.8.21.444 0 .762-.207.057-.036.14-.121.153-.172.153-.34v-.01q0-.165-.14-.3-.107-.097-.282-.15-.222-.058-.425-.058h-.34q-.268 0-.475-.032-.09.053-.229.178-.214.222-.214.404zm.922-3.824q.432 0 .797.247.078-.086.121-.114.129-.086.24-.108.093-.025.178-.025h.111l.004.004v.494l-.004.004h-.09q-.11 0-.17.064-.03.036-.03.064.061.093.115.243.064.197.064.393 0 .483-.35.858-.146.14-.218.179-.103.071-.24.128-.253.1-.514.1h-.021q-.304 0-.597-.135-.068.082-.068.175 0 .086.054.107.142.1.657.1l.25-.004q.697 0 1.08.325.1.097.139.15.175.254.175.54 0 .286-.186.561-.043.068-.164.186-.129.114-.207.16-.1.065-.218.115-.15.06-.286.097-.247.053-.433.053h-.121q-.315 0-.654-.11-.168-.065-.3-.143-.093-.058-.2-.15-.097-.097-.14-.154-.197-.275-.197-.558v-.039q0-.29.233-.604.09-.107.175-.168l.021-.018q-.178-.171-.178-.443v-.01q0-.247.157-.458.007-.007.007-.014-.079-.086-.14-.183-.182-.304-.182-.643 0-.465.33-.833.12-.125.16-.15.11-.082.232-.143.297-.14.608-.14zM87.352 137.233q.383 0 .665.168l-.11.533h-.004q-.318-.186-.586-.186-.597 0-.837.55-.053.133-.053.272v2.073l-.011.01h-.479l-.01-.01v-3.33l.01-.012h.479l.01.011v.29h.004q.158-.218.461-.308.236-.06.461-.06zM90.161 137.223q.704 0 1.123.579l.01.021h.004v-.557l.007-.011h.482l.011.01v3.378l-.01.01h-.483l-.007-.01v-.55h-.004q-.386.593-1.165.593v-.004l-.007.004q-.693 0-1.215-.558-.436-.522-.436-1.15v-.043q0-.672.482-1.201.508-.511 1.208-.511zm-1.19 1.719v.018q0 .596.48.99.3.232.668.232.775 0 1.072-.761.078-.222.078-.443v-.08q0-.31-.196-.65-.336-.518-.897-.518-.758 0-1.101.715-.104.254-.104.497zM94.346 135.422h.104l.004.004v.493l-.004.004h-.079q-.446 0-.675.46-.154.326-.154.851v.025h.908l.004.004v.493l-.004.004h-.908v2.892l-.003.004h-.494l-.003-.004v-2.892h-.608l-.003-.004v-.493l.003-.004h.608v-.068q0-.793.357-1.283.04-.057.14-.153.121-.115.21-.165.097-.057.2-.093.204-.075.397-.075zM94.936 137.258h.493l.004.004v3.388l-.004.004h-.493l-.004-.004v-3.388zm.965-1.222-1.176.73-.264-.426 1.179-.725zM98.034 137.223q.705 0 1.123.579l.01.021h.004v-.557l.007-.011h.483l.01.01v3.378l-.01.01h-.483l-.007-.01v-.55h-.004q-.386.593-1.165.593v-.004l-.007.004q-.693 0-1.215-.558-.436-.522-.436-1.15v-.043q0-.672.483-1.201.507-.511 1.208-.511zm-1.19 1.719v.018q0 .596.48.99.3.232.668.232.775 0 1.072-.761.078-.222.078-.443v-.08q0-.31-.196-.65-.336-.518-.897-.518-.758 0-1.1.715-.105.254-.105.497zM104.707 135.422q.014 0 .114.271l1.884 4.84.05.117-.007.004h-.537q-.02-.025-.318-.811-.157-.4-.175-.418h-2.551q-.018.025-.38.961-.092.247-.11.268h-.518l-.007-.004h-.004l2.04-5.228zm-.265.714-1.083 2.784h2.173l-1.086-2.784zM109.063 137.223l.004.007h.007l.004-.007q.619 0 1.119.46.26.272.364.508.165.375.165.722v.079q0 .657-.497 1.204-.507.49-1.194.49-.704 0-1.122-.58l-.01-.017h-.004v2.094l-.011.01h-.48l-.01-.01v-4.871l.01-.007h.48l.01.007v.508q.397-.597 1.166-.597zm-1.136 1.733v.036q0 .436.314.829.318.36.787.36.714 0 1.065-.653.132-.275.132-.55v-.054q0-.49-.379-.88-.336-.314-.765-.314-.775 0-1.068.747-.086.229-.086.479zM111.615 135.422h.493l.004.004v5.224l-.004.004h-.493l-.004-.004v-5.224zM113.241 137.258h.493l.004.004v3.388l-.004.004h-.493l-.004-.004v-3.388zm.232-1.836h.029q.132 0 .25.114.093.11.093.232v.018q0 .154-.129.268-.103.082-.218.082h-.021q-.157 0-.272-.139-.075-.1-.075-.204v-.028q0-.136.115-.25.11-.093.228-.093zM116.243 137.233h.093q.525 0 1.008.394.232.225.307.353l-.414.28q-.222-.344-.63-.48-.146-.046-.292-.046h-.058q-.429 0-.79.368-.325.375-.325.854v.018q0 .511.386.9.343.311.762.311.521 0 .897-.46l.053-.076.422.272q-.311.486-.88.686-.257.079-.493.079-.621 0-1.118-.458-.529-.543-.529-1.25v-.04q0-.704.525-1.247.504-.458 1.076-.458zM119.917 137.223q.704 0 1.122.579l.01.021h.005v-.557l.007-.011h.482l.011.01v3.378l-.01.01h-.483l-.007-.01v-.55h-.004q-.386.593-1.165.593v-.004l-.007.004q-.694 0-1.215-.558-.436-.522-.436-1.15v-.043q0-.672.482-1.201.508-.511 1.208-.511zm-1.19 1.719v.018q0 .596.479.99.3.232.668.232.776 0 1.072-.761.079-.222.079-.443v-.08q0-.31-.197-.65-.336-.518-.897-.518-.757 0-1.1.715-.104.254-.104.497zM125.267 135.422h.482l.011.01v5.214l-.01.007h-.483l-.007-.007v-.554h-.004q-.386.594-1.165.594v-.004l-.007.004q-.693 0-1.215-.558-.436-.522-.436-1.15v-.043q0-.672.482-1.201.508-.511 1.208-.511.704 0 1.122.579l.011.021h.004v-2.39zm-2.334 3.52v.018q0 .596.48.99.3.232.667.232.776 0 1.073-.761.078-.222.078-.443v-.08q0-.31-.196-.65-.336-.518-.897-.518-.758 0-1.101.715-.104.254-.104.497zM128.323 137.223q.704 0 1.122.579l.01.021h.004v-.557l.007-.011h.483l.01.01v3.378l-.01.01h-.483l-.007-.01v-.55h-.004q-.386.593-1.165.593v-.004l-.007.004q-.693 0-1.215-.558-.436-.522-.436-1.15v-.043q0-.672.483-1.201.507-.511 1.208-.511zm-1.19 1.719v.018q0 .596.478.99.3.232.669.232.775 0 1.072-.761.078-.222.078-.443v-.08q0-.31-.196-.65-.336-.518-.897-.518-.758 0-1.1.715-.105.254-.105.497z" style="font-style:normal;font-variant:normal;font-weight:400;font-stretch:normal;font-family:'Louis George Café';-inkscape-font-specification:'Louis George Café';fill:#fff;fill-opacity:1;stroke:none;stroke-width:.182979" transform="matrix(.63781 0 0 .63781 10.897 -63.283)"/></g></g></g><path style="fill:#288fbe;stroke-width:.06381;stroke-linecap:round;stroke-linejoin:round" d="M9.87 39.058h38.47v.338H9.87z" transform="translate(-4.87 -9.277)"/><path style="fill:#288fbe;stroke-width:.0360226;stroke-linecap:round;stroke-linejoin:round" d="M86.452 39.058h12.26v.338h-12.26z" transform="translate(-4.87 -9.277)"/></svg>