<svg xmlns="http://www.w3.org/2000/svg" width="373.576" height="139.709" viewBox="0 0 98.842 36.965"><path d="M28.563 8.296a3.476 3.476 0 00-.572.023c-6.278.001-12.557-.003-18.835.002-.877.012-1.232.984-1.082 1.731.024 3.387-.048 6.783.035 10.165.229.555-.42 1.064-.573 1.602L5 26.794c0 .3.292.673 1.055.673 1.483 0 2.904-.05 4.351-.003 7.106-.012 14.214.024 21.318-.018.645.015 1.058-.236 1.058-.652.11-.26-.332-.906-.524-1.255-.82-1.668-1.751-3.339-2.504-5.005.372-.834.075-1.807.17-2.695-.025-2.886.048-5.782-.036-8.662-.137-.646-.733-.854-1.325-.881zm-12.091 10.59h1.243v1.933h3.357v-1.933h.242c-.105.63.27 1.447-.242 1.933-.78.299-1.682.067-2.508.157-.63-.05-1.635.284-1.88-.544-.131-.455.242-1.417-.212-1.546z" style="line-height:normal;font-variant-ligatures:normal;font-variant-position:normal;font-variant-caps:normal;font-variant-numeric:normal;font-variant-alternates:normal;font-variant-east-asian:normal;font-feature-settings:normal;font-variation-settings:normal;text-indent:0;text-align:start;text-decoration-line:none;text-decoration-style:solid;text-decoration-color:#000;text-transform:none;text-orientation:mixed;white-space:normal;shape-padding:0;shape-margin:0;inline-size:0;isolation:auto;mix-blend-mode:normal;solid-color:#000;solid-opacity:1" color="#000" font-weight="400" font-family="sans-serif" overflow="visible" fill="#fff"/><g font-weight="700" font-size="20.631" font-family="hack" letter-spacing="-.013" word-spacing="-.008"><g fill="#203b59"><path style="line-height:1.15;-inkscape-font-specification:'hack Bold'" d="M39.442 20.967q-2.68 0-4.17-1.561-1.481-1.562-1.481-4.352 0-2.8 1.47-4.372Q36.732 9.1 39.351 9.1q1.794 0 3.436.866v2.7q-1.31-1.148-2.952-1.148-1.48 0-2.267.917-.785.916-.785 2.609 0 1.682.775 2.599.786.906 2.237.906 1.722 0 2.992-1.158v2.71q-1.501.866-3.345.866zM48.412 20.756c-1.396 0-2.404-.366-3.022-1.098-.61-.74-.916-1.941-.916-3.607V7.267h-.016V5h2.967v11.051c0 .873.138 1.498.413 1.874.282.376.75.564 1.4.564h2.358v2.267z"/></g><g fill="#288fbe"><path style="line-height:1.15;-inkscape-font-specification:'hack Bold'" d="M57.908 20.967q-2.68 0-4.17-1.561-1.482-1.562-1.482-4.352 0-2.8 1.471-4.372Q55.198 9.1 57.817 9.1q1.793 0 3.435.866v2.7q-1.31-1.148-2.951-1.148-1.481 0-2.267.917-.786.916-.786 2.609 0 1.682.776 2.599.786.906 2.236.906 1.723 0 2.992-1.158v2.71q-1.5.866-3.344.866zM67.826 20.967q-2.911 0-4.432-1.5-1.511-1.512-1.511-4.363 0-1.803.624-3.143.625-1.35 1.864-2.095 1.25-.746 3.123-.746 1.541 0 2.67.715 1.128.716 1.742 1.995.625 1.27.625 2.962v1.199h-7.646q0 2.639 3.082 2.639 2.025 0 4.09-1.219v2.71q-2.055.846-4.23.846zm1.733-7.193q0-1.168-.574-1.763-.574-.604-1.642-.604-1.088 0-1.703.615-.614.614-.725 1.752zM74.305 9.392h2.66l.292 1.753q.433-.957 1.32-1.49.896-.535 2.095-.535 1.239 0 2.297.574v2.811q-.978-.886-2.56-.886-1.279 0-2.074.584-.796.584-.988 1.682-.05.262-.07.635-.02.373-.02.957v5.198h-2.952zM91.029 20.715c-1.108 0-1.978-.114-2.61-.342-.63-.229-1.077-.621-1.34-1.179-.255-.557-.382-1.323-.382-2.297V11.66h-2.881V9.392h2.88V5l2.953.871v3.521h3.858v2.267h-3.858v5.38c0 .496.124.856.372 1.077.255.222.662.333 1.22.333h2.266v2.266z"/></g></g><g fill="#203b59"><path style="line-height:normal;font-variant-ligatures:normal;font-variant-position:normal;font-variant-caps:normal;font-variant-numeric:normal;font-variant-alternates:normal;font-variant-east-asian:normal;font-feature-settings:normal;font-variation-settings:normal;text-indent:0;text-align:start;text-decoration-line:none;text-decoration-style:solid;text-decoration-color:#000;text-transform:none;text-orientation:mixed;white-space:normal;shape-padding:0;shape-margin:0;inline-size:0;isolation:auto;mix-blend-mode:normal;solid-color:#000;solid-opacity:1" d="M6.408 26.07v.01c0 .265.214.48.479.48h24.058a.479.479 0 00.48-.48l-.002-.01z" color="#000" font-weight="400" font-family="sans-serif" overflow="visible"/><path d="M9.57 9.231c-.32 0-.579.258-.579.58v10.046c0 .32.259.579.58.579h6.655l-.008-1.081H9.352V9.637h19.2V19.354H21.68l.009 1.082h6.643c.32 0 .58-.258.58-.58V9.81a.578.578 0 00-.58-.579zM9.091 20.57l-2.725 5.347H31.44l-2.717-5.342-6.924-.002h-.154a1.166 1.166 0 01-1.078.76l-3.166.04a1.141 1.141 0 01-.625-.18h-.019v-.011a1.181 1.181 0 01-.473-.61h-.056zm7.429 3.16h4.948l.922 1.826h-6.794z"/></g><path style="line-height:normal;font-variant-ligatures:normal;font-variant-position:normal;font-variant-caps:normal;font-variant-numeric:normal;font-variant-alternates:normal;font-feature-settings:normal;text-indent:0;text-align:start;text-decoration-line:none;text-decoration-style:solid;text-decoration-color:#000;text-transform:none;text-orientation:mixed;white-space:normal;shape-padding:0;isolation:auto;mix-blend-mode:normal;solid-color:#000;solid-opacity:1" d="M18.927 14.67v.002a2.027 2.027 0 00-1.798 1.13c.067.012.135.027.202.037.134.02.268.037.402.054.091.011.183.018.273.028a1.214 1.214 0 011.871-.006l.206-.022c.134-.017.267-.035.4-.055.091-.014.181-.032.272-.047a2.03 2.03 0 00-1.828-1.12zm2.046 2.285c-.104.018-.207.039-.31.054-.145.022-.29.044-.434.062l-.06.005v.417l-2.448.03v-.438l-.135-.014c-.144-.018-.29-.039-.434-.061-.078-.012-.156-.028-.234-.041v.665a.924.924 0 00-.504.833l.037 1.748a.928.928 0 00.941.917l3.167-.038a.926.926 0 00.917-.94l-.038-1.747a.922.922 0 00-.465-.79zm-2.026 1.418a.578.578 0 01.253 1.095l.277.783h-1.076l.286-.785a.578.578 0 01.26-1.093z" color="#000" font-weight="400" font-family="sans-serif" overflow="visible" fill="#288fbe"/><g fill="#203b59"><path d="M9.351 11.234v2.574-1.983a.733.733 0 01.306.18 10.355 10.355 0 00.93.833c.226.177.327.47.28.752a12.43 12.43 0 01-.476-.356c-.09-.072-.261-.013-.38.136-.115.145-.133.32-.037.394.164.13.33.254.5.375a.778.778 0 01-.837-.09c-.097-.078-.19-.16-.286-.241v.673c.066.052.13.106.197.157.45.337 1.053.245 1.455-.142a13.763 13.763 0 001.039.608c.02.012.043.022.064.033-.138.548.076 1.113.6 1.333a17.061 17.061 0 001.898.683c.528.15 1.052-.144 1.295-.644a17.123 17.123 0 002.407.365c.283.05.371-.678.056-.674a17.723 17.723 0 01-2.316-.349c-.002-.563-.303-1.045-.74-1.166a13.774 13.774 0 01-1.6-.575c-.399-.168-.932.01-1.289.43l-.06-.03a13.18 13.18 0 01-.988-.58c.193-.531.084-1.089-.272-1.354l-.631-.542-.47-.443c-.044-.044-.094-.08-.135-.123a.823.823 0 00-.51-.234zm4.096 3.395c.097 0 .196.017.288.054a13.703 13.703 0 001.186.426c.28.083.48.322.536.601-.192-.05-.384-.104-.574-.162-.11-.035-.245.083-.3.263-.055.176-.009.346.106.38.198.06.395.115.595.168a.773.773 0 01-.803.217 16.452 16.452 0 01-1.316-.473.77.77 0 01-.496-.69c.163.075.325.152.49.222.247.132.563-.521.262-.617-.157-.067-.31-.14-.463-.212a.803.803 0 01.489-.177zM28.539 11.234v2.574-1.983a.733.733 0 00-.306.18 10.355 10.355 0 01-.93.833.789.789 0 00-.28.752c.162-.115.32-.234.477-.356.088-.072.26-.013.379.136.115.145.133.32.038.394-.164.13-.331.254-.501.375.253.13.58.111.837-.09.098-.078.19-.16.286-.241v.673c-.066.052-.13.106-.197.157-.45.337-1.052.245-1.455-.142a13.763 13.763 0 01-1.038.608l-.064.033c.137.548-.077 1.113-.601 1.333a17.061 17.061 0 01-1.898.683c-.528.15-1.052-.144-1.294-.644a17.123 17.123 0 01-2.408.365c-.282.05-.37-.678-.056-.674a17.723 17.723 0 002.316-.349c.002-.563.303-1.045.74-1.166a13.774 13.774 0 001.6-.575c.399-.168.932.01 1.29.43.019-.01.04-.019.059-.03a13.18 13.18 0 00.989-.58c-.194-.531-.084-1.089.271-1.354l.632-.542.47-.443c.043-.044.093-.08.134-.123a.823.823 0 01.51-.234zm-4.096 3.395a.757.757 0 00-.287.054 13.703 13.703 0 01-1.187.426.785.785 0 00-.536.601c.193-.05.384-.104.574-.162.11-.035.245.083.301.263.054.176.008.346-.107.38-.197.06-.395.115-.595.168.189.21.496.31.803.217a16.452 16.452 0 001.316-.473.77.77 0 00.496-.69c-.162.075-.325.152-.49.222-.247.132-.563-.521-.261-.617.156-.067.309-.14.463-.212a.803.803 0 00-.49-.177z"/></g><g fill="#203b59"><g aria-label="y Ciberseguridad" style="line-height:1.25" font-weight="400" font-size="7.319" font-family="Louis George Café" letter-spacing="0" stroke-width=".183"><path d="M45.76 28.817q.01 0 .105.24l.62 1.476q.01-.011.267-.608.47-1.106.476-1.108h.345v.002l-1.213 2.827-.14.319h-.343v-.003l.435-1.023-.91-2.12.003-.003zM50.536 27.645h.027q.58 0 1.046.472.208.246.258.374-.274.141-.283.141-.059-.114-.155-.237-.38-.43-.873-.43h-.013q-.515 0-.896.46-.296.399-.296.877v.023q0 .556.385.98.358.358.818.358.504 0 .887-.444.093-.128.148-.233l.28.146q-.052.137-.276.397-.46.453-1.048.453-.627 0-1.106-.524-.408-.508-.408-1.133v-.023q0-.686.48-1.206.457-.45 1.025-.45zM52.394 28.817h.314l.002.002v2.161l-.002.003h-.314l-.003-.003v-2.16zm.148-1.172h.018q.084 0 .16.073.059.07.059.148v.012q0 .098-.082.17-.066.053-.14.053h-.013q-.1 0-.173-.089-.048-.064-.048-.13v-.018q0-.087.073-.16.07-.059.146-.059zM53.438 27.645h.305l.007.007v1.525h.002q.03-.066.192-.21.23-.173.528-.173.557 0 .896.479.185.294.185.601v.05q0 .415-.31.76-.164.155-.299.216-.228.103-.44.103L54.502 31l-.011.003q-.493 0-.739-.379h-.002v.354l-.007.004h-.305l-.007-.004v-3.326zm.33 2.23v.024q0 .397.305.652.178.13.436.13.36 0 .602-.344.123-.212.123-.417v-.037q0-.341-.278-.599-.201-.166-.49-.166-.422 0-.632.446-.066.169-.066.31zM56.962 28.796q.47 0 .804.415.221.326.221.636v.027q0 .105-.013.105h-1.73q0 .11.09.308.137.255.395.356.125.04.226.04.312 0 .54-.27.08-.11.105-.176h.004q.185.073.29.123-.05.143-.224.335-.314.308-.713.308-.476 0-.814-.417-.22-.317-.22-.673v-.02q0-.456.325-.798.305-.299.713-.299zm-.687.869h1.364q-.096-.299-.324-.44-.167-.107-.363-.107-.332 0-.567.31-.073.107-.11.237zM59.43 28.8q.244 0 .424.108l-.07.34h-.003q-.203-.119-.374-.119-.38 0-.533.351-.034.084-.034.173v1.322l-.007.007h-.306l-.006-.007v-2.124l.006-.007h.306l.007.007v.185h.002q.1-.14.294-.196.15-.04.294-.04zM60.966 28.783h.032q.233 0 .443.111.068.034.145.098.071.062.112.114.034.046.034.053-.207.118-.273.161h-.003q-.04-.061-.123-.118-.148-.1-.353-.1-.24 0-.39.118-.102.091-.102.2 0 .083.066.126.025.023.07.043.1.053.342.11l.29.057q.111.027.187.064.068.032.139.084.02.014.084.08.137.162.137.35v.014q0 .203-.148.383-.06.064-.094.09-.073.052-.132.081-.219.103-.45.103h-.029q-.253 0-.485-.123-.224-.128-.347-.349.003-.004.132-.075l.146-.08q.105.182.306.262.125.046.264.046.2 0 .36-.094.032-.016.082-.063.076-.09.076-.187 0-.15-.19-.24-.045-.02-.132-.04-.364-.065-.572-.14-.422-.155-.422-.499v-.007q0-.207.158-.383.075-.075.105-.09.1-.074.237-.115.15-.045.298-.045zM63.184 28.796q.47 0 .805.415.221.326.221.636v.027q0 .105-.014.105h-1.73q0 .11.092.308.136.255.394.356.125.04.226.04.312 0 .54-.27.08-.11.105-.176h.004q.185.073.29.123-.05.143-.224.335-.314.308-.713.308-.477 0-.814-.417-.221-.317-.221-.673v-.02q0-.456.326-.798.305-.299.713-.299zm-.686.869h1.363q-.095-.299-.323-.44-.167-.107-.363-.107-.333 0-.567.31-.073.107-.11.237zM64.992 29.599v.02q0 .144.105.28.055.062.084.083.153.113.344.113.208 0 .37-.139.16-.15.16-.348 0-.185-.144-.333-.076-.07-.16-.107-.112-.048-.223-.048h-.012q-.15 0-.29.082-.04.023-.104.087-.066.073-.091.136-.04.09-.04.174zm-.06 1.64v.005q0 .146.16.267.2.134.51.134.283 0 .486-.132.037-.023.09-.077.097-.11.097-.217v-.007q0-.105-.089-.191-.068-.062-.18-.096-.141-.036-.271-.036h-.217q-.17 0-.303-.02-.057.033-.146.113-.136.141-.136.258zm.589-2.438q.276 0 .508.157.05-.055.078-.073.082-.055.152-.068.06-.016.114-.016h.07l.003.002v.315l-.002.002h-.057q-.07 0-.11.041-.018.023-.018.041.039.06.073.155.041.126.041.251 0 .308-.223.547-.094.09-.14.114-.065.046-.152.082-.162.064-.328.064h-.014q-.194 0-.38-.087-.044.053-.044.112 0 .055.034.069.092.063.42.063l.16-.002q.444 0 .688.207.064.062.089.096.111.162.111.344 0 .183-.118.358-.028.043-.105.119-.082.073-.132.102-.064.041-.14.073-.095.039-.182.062-.157.034-.276.034h-.077q-.2 0-.417-.07-.107-.042-.192-.092-.059-.036-.127-.096-.062-.061-.09-.098-.125-.175-.125-.355v-.025q0-.185.149-.386.057-.068.111-.107l.014-.011q-.114-.11-.114-.283v-.007q0-.157.1-.291.005-.005.005-.01-.05-.054-.09-.116-.115-.194-.115-.41 0-.296.21-.531.077-.08.102-.096.07-.052.148-.091.19-.089.388-.089zM67.203 28.817h.305l.007.007v1.363q0 .355.383.456.075.02.258.02.232 0 .349-.061.175-.085.234-.235.03-.105.03-.205v-1.338l.004-.007h.308l.007.007v2.12l-.007.006h-.308l-.004-.007v-.212q-.25.251-.631.251-.408 0-.634-.173-.308-.235-.308-.613v-1.372zM70.693 28.8q.244 0 .424.108l-.07.34h-.003q-.203-.119-.374-.119-.381 0-.534.351-.034.084-.034.173v1.322l-.007.007h-.305l-.007-.007v-2.124l.007-.007h.305l.007.007v.185h.003q.1-.14.294-.196.15-.04.294-.04zM71.57 28.817h.315l.002.002v2.161l-.002.003h-.315l-.002-.003v-2.16zm.149-1.172h.018q.084 0 .16.073.059.07.059.148v.012q0 .098-.082.17-.067.053-.14.053h-.013q-.1 0-.173-.089-.048-.064-.048-.13v-.018q0-.087.073-.16.07-.059.146-.059zM74.285 27.645h.308l.007.007v3.326l-.007.004h-.308l-.004-.004v-.354h-.003q-.246.379-.743.379V31l-.004.003q-.443 0-.775-.356-.279-.333-.279-.734v-.027q0-.429.308-.766.324-.326.77-.326.45 0 .716.37l.007.013h.003v-1.525zm-1.488 2.245v.012q0 .38.305.631.192.148.426.148.495 0 .684-.485.05-.142.05-.283v-.05q0-.198-.125-.415-.214-.33-.572-.33-.483 0-.702.456-.066.161-.066.316zM76.234 28.794q.45 0 .716.37l.007.013h.002v-.356l.005-.007h.307l.007.007v2.154l-.007.007h-.307l-.005-.007v-.35h-.002q-.247.378-.743.378V31l-.005.003q-.442 0-.775-.356-.278-.333-.278-.734v-.027q0-.429.308-.766.323-.326.77-.326zm-.759 1.096v.012q0 .38.305.631.192.148.427.148.494 0 .684-.485.05-.142.05-.283v-.05q0-.198-.126-.415-.214-.33-.572-.33-.483 0-.702.456-.066.161-.066.316zM79.646 27.645h.308l.007.007v3.326l-.007.004h-.308l-.004-.004v-.354h-.003q-.246.379-.743.379V31l-.004.003q-.442 0-.775-.356-.278-.333-.278-.734v-.027q0-.429.307-.766.324-.326.77-.326.45 0 .717.37l.006.013h.003v-1.525zm-1.488 2.245v.012q0 .38.305.631.192.148.427.148.494 0 .683-.485.05-.142.05-.283v-.05q0-.198-.125-.415-.214-.33-.572-.33-.483 0-.702.456-.066.161-.066.316z" style="-inkscape-font-specification:'Louis George Café'"/></g><g aria-label="Lab. de Criptografía Aplicada" style="line-height:1.25" font-weight="400" font-size="7.319" font-family="Louis George Café" stroke-width=".183"><path d="M34.404 23.09h.314l.002.003v3.016h1.43v.32h-1.746l-.003-.003v-3.333zM37.478 24.24q.45 0 .716.369l.007.014h.002v-.356l.005-.007h.308l.006.007v2.154l-.006.007h-.308l-.005-.007v-.35h-.002q-.246.377-.743.377v-.002l-.005.002q-.442 0-.775-.355-.278-.333-.278-.734v-.027q0-.429.308-.766.324-.326.77-.326zm-.759 1.096v.012q0 .38.306.631.191.148.426.148.495 0 .684-.485.05-.142.05-.283v-.05q0-.198-.125-.415-.215-.33-.572-.33-.484 0-.702.455-.067.162-.067.317zM39.22 23.09h.305l.007.008v1.525h.003q.03-.066.191-.21.23-.173.529-.173.556 0 .896.478.184.294.184.602v.05q0 .415-.31.76-.164.154-.298.216-.228.102-.44.102l-.003-.002-.011.002q-.492 0-.739-.378h-.002v.353l-.007.005h-.305l-.007-.005v-3.325zm.33 2.23v.025q0 .397.306.652.178.13.435.13.36 0 .602-.344.123-.212.123-.417v-.037q0-.342-.278-.6-.2-.166-.49-.166-.422 0-.631.447-.067.169-.067.31zM42.122 25.972h.004q.098 0 .171.08.055.068.055.139v.014q0 .098-.085.17-.063.053-.145.053-.087 0-.158-.064-.068-.073-.068-.155v-.018q0-.087.075-.16.066-.059.15-.059zM45.88 23.09h.308l.007.008v3.325l-.007.005h-.308l-.004-.005v-.353h-.002q-.247.378-.744.378v-.002l-.004.002q-.442 0-.775-.355-.278-.333-.278-.734v-.027q0-.429.308-.766.323-.326.77-.326.45 0 .716.369l.007.014h.002v-1.525zm-1.488 2.246v.012q0 .38.305.631.192.148.427.148.494 0 .683-.485.05-.142.05-.283v-.05q0-.198-.125-.415-.214-.33-.572-.33-.483 0-.702.455-.066.162-.066.317zM47.734 24.242q.47 0 .804.415.221.326.221.636v.027q0 .105-.013.105h-1.73q0 .11.09.308.138.255.395.355.125.041.226.041.312 0 .54-.27.08-.11.105-.176h.004q.185.073.29.123-.05.143-.224.335-.314.307-.713.307-.476 0-.814-.417-.22-.316-.22-.672v-.02q0-.456.325-.798.306-.299.714-.299zm-.687.868h1.364q-.096-.298-.324-.44-.167-.107-.363-.107-.332 0-.567.31-.073.108-.11.237zM51.827 23.09h.028q.579 0 1.046.473.207.246.258.374-.274.14-.283.14-.06-.113-.155-.236-.38-.431-.873-.431h-.014q-.515 0-.896.46-.296.4-.296.878v.023q0 .556.385.98.358.358.819.358.503 0 .886-.445.094-.127.149-.232l.28.146q-.053.137-.276.396-.46.454-1.048.454-.627 0-1.106-.524-.408-.509-.408-1.133v-.023q0-.686.479-1.206.458-.451 1.025-.451zM54.57 24.247q.243 0 .424.107l-.071.34h-.002q-.203-.12-.374-.12-.38 0-.534.352-.034.084-.034.173v1.322l-.007.007h-.305l-.007-.007v-2.124l.007-.007h.305l.007.007v.184h.002q.1-.139.295-.196.15-.038.294-.038zM55.447 24.263h.315l.002.002v2.161l-.002.003h-.315l-.002-.003v-2.16zm.148-1.172h.019q.084 0 .16.073.058.07.058.148v.011q0 .098-.082.171-.066.053-.139.053h-.013q-.1 0-.174-.09-.048-.063-.048-.129v-.018q0-.087.073-.16.071-.06.146-.06zM57.547 24.24l.002.004h.004l.003-.004q.394 0 .713.294.166.173.233.323.104.24.104.46v.051q0 .42-.316.768-.324.312-.762.312-.449 0-.715-.369l-.007-.011h-.003v1.336l-.006.006h-.306l-.007-.006v-3.107l.007-.005h.306l.006.005v.323q.253-.38.743-.38zm-.725 1.105v.023q0 .278.2.529.203.23.502.23.456 0 .679-.417.084-.176.084-.351v-.034q0-.313-.241-.561-.215-.2-.488-.2-.495 0-.682.476-.054.146-.054.305zM59.258 23.09h.317l.002.003v1.17h.589l.002.002v.317l-.002.003h-.589v1.251q0 .094.048.173.048.064.13.09.037.01.064.01h.014q.084 0 .237-.059l.027-.013q.116.255.13.292-.032.018-.13.052-.16.048-.25.048h-.04q-.12 0-.255-.07-.18-.099-.25-.286-.044-.118-.044-.257v-1.231H58.9l-.002-.003v-.317l.002-.002h.358zM61.602 24.247h.059q.35 0 .665.27.358.35.358.83 0 .488-.376.844-.31.258-.677.258-.394 0-.713-.292-.338-.349-.338-.798v-.027q0-.447.335-.794.322-.291.687-.291zm-.702 1.098v.012q0 .321.241.57.221.202.49.202.344 0 .588-.314.146-.224.146-.47 0-.344-.26-.595-.212-.184-.46-.184h-.034q-.272 0-.506.234-.205.24-.205.545zM63.487 25.044v.02q0 .145.105.281.054.062.084.082.153.114.344.114.207 0 .37-.139.159-.15.159-.348 0-.185-.144-.333-.075-.07-.16-.107-.111-.048-.223-.048h-.011q-.15 0-.29.082-.04.023-.104.086-.066.073-.092.137-.038.089-.038.173zm-.06 1.642v.004q0 .146.16.267.2.134.51.134.283 0 .486-.132.037-.023.089-.077.098-.11.098-.217v-.007q0-.105-.089-.191-.068-.062-.18-.096-.141-.037-.271-.037h-.217q-.17 0-.303-.02-.057.034-.146.114-.137.141-.137.257zm.589-2.44q.275 0 .508.158.05-.055.077-.073.082-.055.153-.068.06-.016.114-.016h.07l.003.002v.315l-.002.002h-.057q-.071 0-.11.041-.018.023-.018.041.039.06.073.155.041.126.041.251 0 .308-.223.547-.094.089-.14.114-.066.046-.152.082-.162.064-.328.064h-.014q-.194 0-.38-.087-.044.053-.044.112 0 .055.034.068.091.064.42.064l.16-.002q.444 0 .688.207.063.062.088.096.112.162.112.344 0 .182-.118.358-.028.043-.105.118-.082.073-.132.103-.064.041-.14.073-.095.039-.182.061-.157.035-.276.035h-.077q-.2 0-.417-.071-.107-.041-.192-.091-.06-.037-.127-.096-.062-.061-.09-.098-.125-.175-.125-.356v-.025q0-.184.148-.385.057-.068.112-.107l.014-.011q-.114-.11-.114-.283v-.007q0-.157.1-.292.005-.004.005-.009-.05-.054-.09-.116-.115-.194-.115-.41 0-.297.21-.531.077-.08.102-.096.07-.053.148-.091.19-.09.387-.09zM66.612 24.247q.244 0 .424.107l-.07.34h-.003q-.203-.12-.374-.12-.38 0-.533.352-.035.084-.035.173v1.322l-.006.007h-.306l-.007-.007v-2.124l.007-.007h.306l.006.007v.184h.003q.1-.139.294-.196.15-.038.294-.038zM68.403 24.24q.45 0 .716.369l.007.014h.002v-.356l.005-.007h.308l.006.007v2.154l-.006.007h-.308l-.005-.007v-.35h-.002q-.246.377-.743.377v-.002l-.005.002q-.442 0-.775-.355-.278-.333-.278-.734v-.027q0-.429.308-.766.324-.326.77-.326zm-.759 1.096v.012q0 .38.306.631.191.148.426.148.495 0 .684-.485.05-.142.05-.283v-.05q0-.198-.125-.415-.215-.33-.572-.33-.484 0-.703.455-.066.162-.066.317zM71.073 23.09h.066l.002.003v.315l-.002.003h-.05q-.285 0-.431.294-.098.207-.098.542v.016h.579l.002.003v.314l-.002.003h-.58v1.844l-.002.002h-.314l-.002-.002v-1.844h-.388l-.002-.003v-.314l.002-.003h.388v-.043q0-.506.228-.819.025-.036.088-.098.078-.073.135-.104.061-.037.128-.06.13-.048.253-.048zM71.449 24.263h.314l.003.002v2.161l-.003.003h-.314l-.003-.003v-2.16zm.615-.78l-.75.465-.168-.271.752-.463zM73.425 24.24q.449 0 .716.369l.007.014h.002v-.356l.004-.007h.308l.007.007v2.154l-.007.007h-.308l-.004-.007v-.35h-.002q-.247.377-.744.377v-.002l-.004.002q-.442 0-.775-.355-.278-.333-.278-.734v-.027q0-.429.308-.766.323-.326.77-.326zm-.76 1.096v.012q0 .38.306.631.192.148.427.148.494 0 .683-.485.05-.142.05-.283v-.05q0-.198-.125-.415-.214-.33-.572-.33-.483 0-.702.455-.066.162-.066.317zM77.68 23.09q.01 0 .074.174l1.2 3.086.033.076-.005.002h-.342q-.013-.016-.203-.517-.1-.255-.111-.267h-1.628q-.011.016-.241.613-.06.158-.071.171h-.33l-.005-.002h-.003l1.302-3.335zm-.168.457l-.69 1.775h1.385l-.693-1.775zM80.46 24.24l.002.004h.004l.003-.004q.394 0 .713.294.167.173.233.323.105.24.105.46v.051q0 .42-.317.768-.324.312-.762.312-.449 0-.715-.369l-.007-.011h-.003v1.336l-.006.006h-.306l-.007-.006v-3.107l.007-.005h.306l.006.005v.323q.253-.38.743-.38zm-.726 1.105v.023q0 .278.201.529.203.23.501.23.456 0 .68-.417.084-.176.084-.351v-.034q0-.313-.242-.561-.214-.2-.487-.2-.495 0-.682.476-.055.146-.055.305zM82.087 23.09h.314l.003.003v3.333l-.003.003h-.314l-.003-.003v-3.333zM83.124 24.263h.314l.003.002v2.161l-.003.003h-.314l-.003-.003v-2.16zm.148-1.172h.018q.085 0 .16.073.06.07.06.148v.011q0 .098-.083.171-.066.053-.139.053h-.014q-.1 0-.173-.09-.048-.063-.048-.129v-.018q0-.087.073-.16.07-.06.146-.06zM85.039 24.247h.059q.335 0 .643.25.148.144.196.226l-.265.178q-.141-.22-.4-.306-.094-.03-.188-.03h-.036q-.274 0-.504.235-.207.24-.207.545v.012q0 .326.246.574.219.198.485.198.333 0 .572-.294l.035-.048.269.174q-.199.31-.561.437-.164.05-.315.05-.396 0-.713-.291-.338-.347-.338-.798v-.025q0-.45.335-.796.322-.291.687-.291zM87.382 24.24q.449 0 .716.369l.006.014h.003v-.356l.004-.007h.308l.007.007v2.154l-.007.007h-.308l-.004-.007v-.35h-.003q-.246.377-.743.377v-.002l-.004.002q-.442 0-.775-.355-.278-.333-.278-.734v-.027q0-.429.308-.766.323-.326.77-.326zm-.76 1.096v.012q0 .38.306.631.192.148.427.148.494 0 .683-.485.05-.142.05-.283v-.05q0-.198-.125-.415-.214-.33-.572-.33-.483 0-.702.455-.066.162-.066.317zM90.794 23.09h.308l.007.008v3.325l-.007.005h-.308l-.004-.005v-.353h-.003q-.246.378-.743.378v-.002l-.004.002q-.443 0-.775-.355-.278-.333-.278-.734v-.027q0-.429.307-.766.324-.326.77-.326.45 0 .716.369l.007.014h.003v-1.525zm-1.488 2.246v.012q0 .38.305.631.192.148.426.148.495 0 .684-.485.05-.142.05-.283v-.05q0-.198-.125-.415-.214-.33-.572-.33-.483 0-.702.455-.066.162-.066.317zM92.743 24.24q.45 0 .716.369l.007.014h.002v-.356l.005-.007h.307l.007.007v2.154l-.007.007h-.307l-.005-.007v-.35h-.002q-.247.377-.743.377v-.002l-.005.002q-.442 0-.775-.355-.278-.333-.278-.734v-.027q0-.429.308-.766.323-.326.77-.326zm-.759 1.096v.012q0 .38.305.631.192.148.427.148.494 0 .684-.485.05-.142.05-.283v-.05q0-.198-.126-.415-.214-.33-.572-.33-.483 0-.702.455-.066.162-.066.317z" style="-inkscape-font-specification:'Louis George Café'"/></g></g><path fill="#288fbe" d="M5 29.781h38.47v.338H5zM81.582 29.781h12.26v.338h-12.26z"/></svg>