<svg xmlns="http://www.w3.org/2000/svg" viewBox="0 0 33.46 71.42"><defs><style>.cls-1{fill:#969696;}</style></defs><title>logo-uchile</title><g id="Capa_2" data-name="Capa 2"><g id="Esquema"><path class="cls-1" d="M17,27.29v-10l.68.44,2,6.18a.2.2,0,0,0,.09.09.08.08,0,0,0,.07,0h0l.22-.07a.16.16,0,0,0,.1-.2l-1.79-5.53,2.06,1.33,4.08,5.61a.17.17,0,0,0,.14.07l.09,0,.19-.14a.13.13,0,0,0,.06-.1.15.15,0,0,0,0-.13l-4.14-5.7-.61-2.33L25,20.26a.17.17,0,0,0,.1,0h0a.14.14,0,0,0,.11-.07l.14-.18a.17.17,0,0,0,0-.23L20,16l-.2-.75,9.86,3.2h.05l.07,0a.16.16,0,0,0,.08-.1l.08-.21a.17.17,0,0,0-.11-.21l-9.81-3.19.62-.51h6.5a.17.17,0,0,0,.17-.16v-.23a.17.17,0,0,0-.05-.12.18.18,0,0,0-.12-.05H21.36l1.9-1.55,6.61-2.14A.18.18,0,0,0,30,9.71l-.08-.22a.12.12,0,0,0-.08-.09.13.13,0,0,0-.12,0l-6.78,2.2-2.36-.14L25.35,8a.17.17,0,0,0,0-.23l-.14-.18a.16.16,0,0,0-.11-.07l-.12,0L19.68,11.4l-.77,0L25,3a.14.14,0,0,0,0-.12A.15.15,0,0,0,25,2.72l-.19-.13a.16.16,0,0,0-.23,0L18.48,11l-.28-.73,2-6.24a.15.15,0,0,0,0-.13.14.14,0,0,0-.09-.08l-.22-.07a.17.17,0,0,0-.21.1l-1.81,5.6L17,7.23V.16A.17.17,0,0,0,16.84,0h-.23a.16.16,0,0,0-.16.16V7.23l-.87,2.23-1.82-5.6a.14.14,0,0,0-.08-.09.17.17,0,0,0-.12,0l-.22.07a.17.17,0,0,0-.11.21l2,6.24L15,11,8.89,2.62a.16.16,0,0,0-.23,0l-.19.13a.15.15,0,0,0-.06.11.14.14,0,0,0,0,.12l6.11,8.41-.77,0L8.44,7.52a.28.28,0,0,0-.13,0,.14.14,0,0,0-.1.07l-.14.18a.17.17,0,0,0,0,.23l4.79,3.48-2.36.14L3.76,9.39a.15.15,0,0,0-.13,0,.18.18,0,0,0-.08.09l-.07.22a.17.17,0,0,0,.11.21l6.61,2.14,1.89,1.55H6.28a.18.18,0,0,0-.17.17V14a.17.17,0,0,0,.17.16h6.49l.63.51L3.59,17.87a.16.16,0,0,0-.11.21l.07.21a.27.27,0,0,0,.08.1l.08,0h0l9.86-3.2-.2.75L8.11,19.81a.17.17,0,0,0,0,.23l.14.18a.14.14,0,0,0,.1.07h0a.19.19,0,0,0,.1,0l4.75-3.45-.61,2.32-4.14,5.7a.15.15,0,0,0,0,.13.13.13,0,0,0,.06.1l.19.14a.16.16,0,0,0,.09,0,.21.21,0,0,0,.14-.07L13,19.55,15,18.22l-1.8,5.53a.17.17,0,0,0,0,.12.16.16,0,0,0,.1.08l.22.07h0a.15.15,0,0,0,.15-.11l2-6.18.68-.44v10H0V67.74a2.23,2.23,0,0,0,2.45,2.45H14.3c.52,0,2,.14,2,.79v.44h.88V71c0-.65,1.47-.79,2-.79H31a2.23,2.23,0,0,0,2.45-2.45V27.29Zm15.58,20.5H21.48a5,5,0,0,0-2.38-2.93s0,0,0,0a1.22,1.22,0,0,1-.29-.35c-.23-.34-.54-.81-1.14-.7A1.38,1.38,0,0,0,17,44V28.17H32.59Zm-15.86,6a4.63,4.63,0,0,1,0-9.26h.17l.15.16a.48.48,0,0,0-.24.17.2.2,0,0,0,0,.07h-.07a4.23,4.23,0,1,0,1.87.44h0l0,0a7.6,7.6,0,0,0-1.15-.28.69.69,0,0,1-.23-.08l.22,0a.16.16,0,0,0,.13-.11.15.15,0,0,0,0-.17l-.35-.35a.08.08,0,0,1,0,0s.12-.14.54-.22.57.18.82.56a1.39,1.39,0,0,0,.38.44h0a4.63,4.63,0,0,1-2.16,8.72M15.55,17.5h0l-.3.19h0L13.18,19l3.43-4.72v2.51l-.08.06h0Zm-1.91-1.1.08-.31h0l.3-1.16,2.4-.78L13,18.88Zm-.7-2.52-.28-.23h0L10.8,12.13l5.53,1.8L14,14.7l-.1-.08h0l-.9-.74h0m2-2.21,1.48,2-5.56-1.8Zm.75-1.58,0-.08h0l.89-2.28v5.83l-1.48-2,0-.12h0Zm2.64,1.43-1.48,2V7.73Zm4.25.38-5.53,1.8,1.47-2Zm-1.92,1.87-.14.11h0l-1,.83-2.4-.78,5.56-1.81Zm-.84,2.62.65,2.49-3.42-4.72,2.39.78h0v0h0l.29,1.1h0Zm-1.6,1.3-.31-.19h0l-1-.63h0l-.08-.06V14.3L20.28,19,18.22,17.7h0m.66,31.53a2.54,2.54,0,0,1-1.15.9,1.35,1.35,0,0,0,0-1.81,2.63,2.63,0,0,1,1.13.91m-2.35-1.1.2,0,.2,0a1.1,1.1,0,0,1,.91,1.09,1.11,1.11,0,1,1-2.22,0,1.1,1.1,0,0,1,.91-1.09m-1.16,1.09a1.3,1.3,0,0,0,.36.91,2.54,2.54,0,0,1-1.15-.9,2.63,2.63,0,0,1,1.13-.91,1.35,1.35,0,0,0-.34.9m-1,.3a3,3,0,0,0,4.68,0L20,51H13.51Zm2.34-1.73a3,3,0,0,0-1.62.48l1.62-2.8,1.61,2.8a2.93,2.93,0,0,0-1.61-.48m-2.53,1.4,0,0h0l-.95,1.65a3.81,3.81,0,0,1-.39-1.68,3.88,3.88,0,0,1,3.59-3.87ZM20,51.36a3.87,3.87,0,0,1-6.44,0Zm.28-.49-.95-1.65h0l0,0L17,45.32h0a1.21,1.21,0,0,0,.32.11c.19,0,.76.15,1,.22a3.91,3.91,0,0,1,2.28,3.54,3.81,3.81,0,0,1-.39,1.68m-3.77-22.7V44.25A5,5,0,0,0,12,47.79H.87V28.17ZM14.3,69.31H2.45A1.38,1.38,0,0,1,.87,67.74V48.33h11a6.11,6.11,0,0,0-.08.86,5,5,0,0,0,4.69,4.94V69.81a4.34,4.34,0,0,0-2.16-.5m16.71,0H19.16a4.34,4.34,0,0,0-2.16.5V54.13a4.92,4.92,0,0,0,4.6-5.8h11V67.74A1.38,1.38,0,0,1,31,69.31"/><path class="cls-1" d="M19.47,32.12a1.61,1.61,0,0,0,.37,0l1.24,1.74a7,7,0,0,0,.05,1.62,2.26,2.26,0,0,0,2.55,2l.37.53c-.4.5-.88,1.49-.2,2.21a1.44,1.44,0,0,0,1.07.36,5.38,5.38,0,0,0,.9-.09h0a1.42,1.42,0,0,0-.38,1.63,1.48,1.48,0,0,0,1,.71,1.2,1.2,0,0,1,.47.22,1,1,0,0,1,.35.9v.14a1,1,0,0,0,.41.72l.17.16a1.12,1.12,0,0,1,.15.35c.06.19.12.41.34.44h0a.25.25,0,0,0,.17-.07,2.37,2.37,0,0,0,.27-1.08l1.34,1.88,0,0,.58.39.09,0a.12.12,0,0,0,.09,0,.15.15,0,0,0,.07-.17L30.84,46l0-.06L28.3,42.12a.86.86,0,0,0-.36-.55l-.73-1.12c.45-.47.54-.91.27-1.31a1.33,1.33,0,0,0-1.39-.4l-.33-.51a1.53,1.53,0,0,0,.12-1.94,1.42,1.42,0,0,0-1.17-.44h-.49L23,34s.07-.11.1-.15a1.2,1.2,0,0,0,.73.46.32.32,0,0,0,.14,0,2.13,2.13,0,0,0,.46-1.77A1.48,1.48,0,0,0,23,31.45a1.51,1.51,0,0,0-1.06.44,1.16,1.16,0,0,0-.2.18l-.58-.89A1.08,1.08,0,0,0,21.31,30a1,1,0,0,0-.81-.36,2,2,0,0,0-1.12.38c-.74.5-1.05,1.29-.71,1.79a.94.94,0,0,0,.8.36m5,5.27.12,0h.09l.14,0h0l.95,1.47-.29.06H25.4l-.28,0-1.05-1.47.23,0,.12,0m3.9,7.93a.42.42,0,0,0,0-.12,1.16,1.16,0,0,0-.22-.48l-.19-.18a.75.75,0,0,1-.31-.5v-.13a1.35,1.35,0,0,0-.46-1.13,1.41,1.41,0,0,0-.59-.29,1.17,1.17,0,0,1-.78-.56c-.26-.46.09-1,.29-1.2l.1.12.09.13,0,0,.13.18c.07.12.13.22.15.27a.24.24,0,0,0,0,.2.27.27,0,0,0,.22.09H27a3.31,3.31,0,0,1,.34,0,.78.78,0,0,1,.34.07.53.53,0,0,1,.33.49.13.13,0,0,1,0,.06,1.05,1.05,0,0,1,0,.24v0a1.07,1.07,0,0,0,.34,1.12.79.79,0,0,1,.13.14.21.21,0,0,1,.05.13,4.85,4.85,0,0,1-.16,1.34m2.26,1.06-.21-.14-1.56-2.19V44l0-.13a.81.81,0,0,0-.25-.37l-.06-.06-.06-.06,0-.05a.3.3,0,0,1-.07-.11s0,0,0-.08l0-.13s0-.1,0-.14a.66.66,0,0,1,0-.14l2.24,3.44Zm-3.27-5h-.13l-.25,0h0L26.65,41c-.06-.1-.15-.22-.26-.37l-.05-.07-.16-.21.09,0,.16,0h.31l.69,1.06h-.12M26.48,39a.82.82,0,0,1,.73.31c.1.15.19.38-.12.77a.44.44,0,0,0-.22-.08h-.19l-.29,0h-.11l-.33.05h-.06a5.36,5.36,0,0,1-1,.12,1.09,1.09,0,0,1-.83-.27c-.54-.56-.09-1.34.15-1.68l.32.47a.34.34,0,0,0,0,.29c.07.12.22.17.43.19h.07a2,2,0,0,0,.34,0,2.81,2.81,0,0,0,.47-.09h0a2.59,2.59,0,0,1,.58-.08m-2.76-3.15h-.16l-.13,0-.1,0-.13-.07,0,0a.53.53,0,0,1-.12-.14,1.54,1.54,0,0,1-.15-.32,1.43,1.43,0,0,1-.05-.57h0a1.06,1.06,0,0,1,0-.19.07.07,0,0,1,0,0l.95,1.46h-.12m-1.58-3.72,0,0a1.24,1.24,0,0,1,.85-.35,1.15,1.15,0,0,1,1.13.84,2.07,2.07,0,0,1-.29,1.4,1.24,1.24,0,0,1-.58-.46.18.18,0,0,0-.18-.05.9.9,0,0,0-.39.47h0l-.06.15,0,0a2.24,2.24,0,0,0-.1.71v0a1.49,1.49,0,0,0,0,.21s0,0,0,.07a1.33,1.33,0,0,0,.05.19l0,.08a1.26,1.26,0,0,0,.13.26h0a1.19,1.19,0,0,0,1.1.48h.85a1,1,0,0,1,.91.32,1.12,1.12,0,0,1,0,1.33c-.16-.35-.43-.84-.78-.84h0l-.12,0-.14,0-.17,0h-.08l-.15,0h-.48c-1.32,0-2.07-.58-2.23-1.73a6,6,0,0,1,0-1.61,3.65,3.65,0,0,1,.07-.4s0-.06,0-.09a2.58,2.58,0,0,1,.1-.33v0a2,2,0,0,1,.09-.2l.09-.18a.22.22,0,0,0,.05-.08,1.58,1.58,0,0,1,.29-.33m-2.57-1.91a1.7,1.7,0,0,1,.93-.33.62.62,0,0,1,.54.23.84.84,0,0,1-.2.93.18.18,0,0,0,0,.2l.71,1.08a3.17,3.17,0,0,0-.3.68v0l-.06.25s0,0,0,0L20,31.8a.15.15,0,0,0-.13-.07h-.05a1.31,1.31,0,0,1-.39.05.6.6,0,0,1-.53-.22c-.23-.33.06-.95.63-1.33"/><path class="cls-1" d="M23.71,33.16a.32.32,0,0,0,.33-.32.33.33,0,1,0-.66,0,.32.32,0,0,0,.33.32"/><path class="cls-1" d="M17.67,44.18a.2.2,0,0,0-.21.2.21.21,0,0,0,.21.21.21.21,0,1,0,0-.41"/><path class="cls-1" d="M14.06,60.32a3.47,3.47,0,1,0-4.61,3.26H6.79L5.83,61a.73.73,0,0,0,.11-.38.79.79,0,0,0-1.58,0,.8.8,0,0,0,.11.37l-1,2.6H3.29a.18.18,0,0,0-.17.17v1.41a.17.17,0,0,0,.17.16h8.79v2.73a.16.16,0,0,0,.16.16h1.3a.16.16,0,0,0,.16-.16v-4.3a.17.17,0,0,0-.16-.17h-1.8a3.45,3.45,0,0,0,2.32-3.26m-8.43.9.44,1.19-.65-1.07a1.13,1.13,0,0,0,.21-.12m-.48-1.07a.45.45,0,0,1,.46.46.46.46,0,0,1-.46.46.47.47,0,0,1-.46-.46.46.46,0,0,1,.46-.46m-.48,1.07a.88.88,0,0,0,.21.12l-.65,1.07Zm.48.21,1.31,2.15H3.84Zm8.22,3.71v2.74h-1V65.16a.17.17,0,0,0-.17-.16H3.45V63.91h9.92Zm0-3.43a.76.76,0,0,0,0-.16.51.51,0,0,0-.09-.24.55.55,0,0,1-.05-.13.61.61,0,0,0-.17-.35.75.75,0,0,1-.09-.2.55.55,0,0,0-.1-.22.59.59,0,0,1-.07-.16s0-.09,0-.13a.59.59,0,0,1,.07-.2,1.17,1.17,0,0,1,.2-.1l.26-.07c.1,0,.24-.17.24-.17a.14.14,0,0,0,0-.14,1.3,1.3,0,0,0-.06-.19.5.5,0,0,1,0-.15h0a3,3,0,0,1-.14,2.7v-.09m-1.49-2.78v0l0,0H12a.35.35,0,0,0,.2,0l.05,0a.48.48,0,0,1,.11-.15.42.42,0,0,0,.13-.27.6.6,0,0,0,0-.2.11.11,0,0,0,0,0,.28.28,0,0,0-.09-.17.05.05,0,0,1,0,0c-.06-.07-.06-.09-.06-.09v0l.11-.07a3.15,3.15,0,0,1,1,1.23h0l-.16,0a.19.19,0,0,0-.12,0h0a.45.45,0,0,1-.21,0l-.12,0a.83.83,0,0,0-.2-.11.5.5,0,0,0-.21,0h0c-.1,0-.16.15-.18.22v0s0,.14,0,.21a.43.43,0,0,1-.18.06l-.14,0a.52.52,0,0,1,.06-.15.28.28,0,0,0,0-.22M11,57.22a3.12,3.12,0,0,1,.53.11.51.51,0,0,0-.06.15.35.35,0,0,0,0,.12c0,.06,0,.22,0,.3h0a.43.43,0,0,0-.21-.29c-.08,0-.12-.07-.14-.12a.57.57,0,0,1,0-.24Zm-1.65.47a.31.31,0,0,0,.39.31.69.69,0,0,0,.25-.19.79.79,0,0,1,.18-.16.36.36,0,0,0,.21,0h0a.92.92,0,0,1,0,.19,1.63,1.63,0,0,0,0,.3.15.15,0,0,1,0,.12.16.16,0,0,1-.1.06l0,0a.41.41,0,0,0-.25-.11l-.12,0a.86.86,0,0,0-.41.39.39.39,0,0,1-.06.11v-.06a.31.31,0,0,0-.24-.27l-.06,0-.15,0a.16.16,0,0,0-.13.06.69.69,0,0,0-.2.5,1.39,1.39,0,0,0,.51.72c.11.05.71.54.77.59a2.26,2.26,0,0,0,.58.25c.31.09.47.21.48.28a.87.87,0,0,1-.21.55,3.76,3.76,0,0,0-.4.4l-.06.07c-.09.1-.12.15-.18.45a5.51,5.51,0,0,1-.24.83l-.06,0c0-.11,0-.34,0-.48s0-.24,0-.28V62a1.81,1.81,0,0,0,0-.45.35.35,0,0,1,0-.06c0-.13-.1-.35-.27-.41s-.33-.16-.35-.2,0-.12,0-.21a1.76,1.76,0,0,1,0-.39l.12-.06c.14-.07.26-.12.28-.22s-.09-.17-.16-.21l-.09-.05c0-.08-.13-.16-.34-.3l-.16-.11,0-.05c-.1-.21-.22-.42-.39-.43a1,1,0,0,1-.35-.11,3,3,0,0,1,1.38-1.25c0,.08,0,.16,0,.22M9.72,63v0Zm.87.47a3.15,3.15,0,0,1-3.14-3.15,3.11,3.11,0,0,1,.36-1.42,1,1,0,0,0,.44.14s.08.06.21.32a.36.36,0,0,0,.06.1l.2.15a1.73,1.73,0,0,1,.25.17c0,.09.11.14.18.18l-.1,0-.14.07c-.12.08-.12.29-.09.59a1.36,1.36,0,0,1,0,.18s0,.22.49.41c.07,0,.12.2.13.27a.24.24,0,0,0,0,.07s0,.25,0,.38a1.88,1.88,0,0,0,0,.29s0,.15,0,.26a4.64,4.64,0,0,0,.06.59.15.15,0,0,0,.15.1.56.56,0,0,0,.25-.08.13.13,0,0,0,0-.06,6.3,6.3,0,0,0,.27-.9c0-.26.06-.28.12-.34l.07-.08a2.05,2.05,0,0,1,.37-.36,1.06,1.06,0,0,0,.28-.76c0-.24-.36-.38-.63-.46A3.91,3.91,0,0,1,10,60a7.57,7.57,0,0,0-.84-.64,1.31,1.31,0,0,1-.37-.56.45.45,0,0,1,.12-.3l.07,0,.09,0a.08.08,0,0,1,.06.05c0,.15,0,.29.12.33h0c.12,0,.27-.14.33-.3a.59.59,0,0,1,.29-.27h0a.24.24,0,0,1,.11.06l.06,0a.3.3,0,0,0,.37-.1.38.38,0,0,0,.1-.3,1.14,1.14,0,0,1,0-.25c0-.06,0-.12,0-.22s-.13-.22-.18-.22a.42.42,0,0,0-.15,0,.19.19,0,0,1-.1,0h0c-.12,0-.22.11-.33.22a.66.66,0,0,1-.17.14c-.06,0-.1,0-.1-.12s0-.19,0-.28a3.11,3.11,0,0,1,1.09-.21h.15s0,0,0,0a1.08,1.08,0,0,0,.07.33.43.43,0,0,0,.24.22.25.25,0,0,1,.1.14c0,.11.12.19.28.19h0c.15,0,.16-.19.19-.51v-.09a1,1,0,0,1,.07-.12,2.82,2.82,0,0,1,.46.23.23.23,0,0,0-.12.21.43.43,0,0,0,.09.21l0,.06,0,.06a.13.13,0,0,0,0,.06.74.74,0,0,1,0,.15.16.16,0,0,1-.06.12h0a.88.88,0,0,0-.12.15l0,0h-.19l-.07,0a.54.54,0,0,0-.11.13.21.21,0,0,0,0,.19s0,0,0,0a.66.66,0,0,0-.08.34c0,.07.07.1.31.16h0c.09,0,.39-.09.39-.24s0-.12,0-.21l0-.07h.11l.16.09a.13.13,0,0,0,.1,0h.06a.61.61,0,0,0,.31.05.19.19,0,0,0,.11,0h0a.32.32,0,0,0,0,.17.56.56,0,0,1,0,.12.31.31,0,0,1-.09.07l-.3.08h0a1.23,1.23,0,0,0-.29.17s-.21.34-.08.47l0,.07a.68.68,0,0,0,.11.23.42.42,0,0,1,.06.15.75.75,0,0,0,.13.27.45.45,0,0,1,.12.24.75.75,0,0,0,.08.2,1,1,0,0,1,.07.16v.14a.53.53,0,0,0,0,.21,1.75,1.75,0,0,1,0,.25,3.14,3.14,0,0,1-2.53,1.3"/><path class="cls-1" d="M4,53,4.1,53h0l2.47,7.18.16-.06L4.87,54.81l1.82,4.45.15-.06L5,54.62l2,4.05.15-.07-2-4.18,2.15,3.8.14-.08L5.16,54.28l2.33,3.55.14-.09L5.27,54.15,7.81,57.5l.13-.1L5.36,54l2.8,3.18.13-.11L5.5,53.91l3.07,3,.11-.11-3.07-3L9,56.72l.1-.13-3.4-2.92,3.86,2.87.1-.13L5.88,53.58l4.45,2.85.08-.14L4.67,52.61l0-.09.83-.68L4.4,51.77l-.39-1-.39,1-1.07.07.83.68-.27,1Zm-.16-.89L4,51.68l.16.41.45,0-.35.28.11.43L4,52.59l-.37.24.11-.43-.34-.28Z"/><path class="cls-1" d="M31.12,63.69a1.58,1.58,0,0,1,0-.55v-.25h0A.16.16,0,0,0,31,62.7l-.49-.05.16-.19a.15.15,0,0,0,0-.14.2.2,0,0,0-.1-.12.21.21,0,0,1-.11-.14,1.14,1.14,0,0,1,0-.47v-.2h0s0,0,0,0a.17.17,0,0,0-.15-.18l-.75-.06c0-1.49,0-4.47,0-5.13a.16.16,0,0,0-.06-.13.16.16,0,0,0-.15,0,6,6,0,0,1-.64.16v-.59a.16.16,0,0,0-.08-.14.18.18,0,0,0-.16,0,2.34,2.34,0,0,1-1,.24,1.19,1.19,0,0,1-.51-.1,2.76,2.76,0,0,0-1.06-.26h-.07a1.51,1.51,0,0,0,.41-.66.13.13,0,0,0,0-.12.1.1,0,0,0-.12,0,1.77,1.77,0,0,1-.26.11,1.89,1.89,0,0,0,.28-.62.09.09,0,0,0,0-.11.11.11,0,0,0-.12,0,2.3,2.3,0,0,1-.27.11,1.81,1.81,0,0,0,.2-.48.11.11,0,0,0,0-.11.16.16,0,0,0-.12,0,2.21,2.21,0,0,1-.45.13,1.38,1.38,0,0,1-.26-.71c0-.19-.06-.35-.22-.35s-.19.19-.22.38a1.39,1.39,0,0,1-.25.72,2.21,2.21,0,0,1-.43-.16.09.09,0,0,0-.11,0,.1.1,0,0,0,0,.11,1.81,1.81,0,0,0,.2.48,1.65,1.65,0,0,1-.27-.11.1.1,0,0,0-.12,0,.12.12,0,0,0,0,.11,2.28,2.28,0,0,0,.28.62,1.38,1.38,0,0,1-.25-.11.1.1,0,0,0-.12,0,.11.11,0,0,0,0,.12,1.41,1.41,0,0,0,.65.84,2.43,2.43,0,0,0-1,.35,3,3,0,0,1-1.55.41A2.52,2.52,0,0,1,21,56a.15.15,0,0,0-.14,0,.14.14,0,0,0-.06.12v.43l-.56-.1a.17.17,0,0,0-.13,0,.16.16,0,0,0-.06.13s.07,2.76.1,4.52l-.93.84v0h0a.73.73,0,0,0-.18.55.8.8,0,0,0,.08.36l-.8.7v0a.78.78,0,0,0-.24.62.89.89,0,0,0,.62.92l9.53,2.67s0,0,0,0h.06a.17.17,0,0,0,.13-.07l2.91-3.75a.2.2,0,0,0,0-.15.16.16,0,0,0-.09-.11.25.25,0,0,1-.14-.18M19.35,62.62a.44.44,0,0,1,.08-.31.18.18,0,0,1,.14-.05l1.38.28v.88l-1.29-.31s-.3-.08-.31-.49m5.31-.8h0m.08.36a.17.17,0,0,0,.14,0,4,4,0,0,1,1.81-.31,15.92,15.92,0,0,1,2.65.27h0l-1.43,1.53-7.1-1.49a6.47,6.47,0,0,1,2-.32,5.48,5.48,0,0,1,1.93.32m-3.47.43.47.1v.9l-.47-.11Zm.8.17,3.22.67v1l-3.22-.79Zm3.54.74,2.16.45v1.11l-2.17-.52Zm2.5.43,2-2.14a1.17,1.17,0,0,0,0,.32.46.46,0,0,0,.13.25l-2.14,2.47,0-.61ZM30,61.49l-.42.44v-.48Zm-1.45.12a.21.21,0,0,0,.15,0,.16.16,0,0,0,.06-.13c0-1.1,0-3.71,0-5.11l.53-.13c0,1,0,3.74,0,5h0c0,.22,0,.4,0,.52a16.11,16.11,0,0,0-2.52-.24,5,5,0,0,0-1.67.23,2,2,0,0,1,1.54-.46,7.54,7.54,0,0,1,2,.3m-1.66-5.9a1.66,1.66,0,0,0,.64.12,2.88,2.88,0,0,0,.9-.17c0,.91,0,4.13,0,5.58A7.8,7.8,0,0,0,26.56,61a2.78,2.78,0,0,0-1.56.38l.1-5.64a1.52,1.52,0,0,1,.82-.26,2.27,2.27,0,0,1,.93.25m-3.14-1.06a1.72,1.72,0,0,0,.42.1.11.11,0,0,0,.08-.19,1.26,1.26,0,0,1-.38-.55,1.72,1.72,0,0,0,.42.11.11.11,0,0,0,.11-.07.11.11,0,0,0,0-.13,1,1,0,0,1-.26-.39,1.67,1.67,0,0,0,.32.08.16.16,0,0,0,.09,0,1.55,1.55,0,0,0,.35-.88v0h0a1.46,1.46,0,0,0,.37.86.08.08,0,0,0,.09,0,1.86,1.86,0,0,0,.34-.07.91.91,0,0,1-.28.42.11.11,0,0,0,0,.13.1.1,0,0,0,.11.07,1.62,1.62,0,0,0,.42-.1,1.29,1.29,0,0,1-.37.54.11.11,0,0,0,0,.13.11.11,0,0,0,.11.07,1.51,1.51,0,0,0,.42-.11,1.23,1.23,0,0,1-1.12.67,1.25,1.25,0,0,1-1.12-.67m-2.17,1.76A3.33,3.33,0,0,0,23.25,56a2,2,0,0,1,1-.31,1.24,1.24,0,0,1,.49.09c0,.57-.08,3.37-.13,5.63a2.69,2.69,0,0,0-1.39-.29,10.59,10.59,0,0,0-2.05.25l-.06-4.94a2.17,2.17,0,0,0,.4,0m-.72.54.06,4.58a.16.16,0,0,0,.06.13.17.17,0,0,0,.14,0,9.68,9.68,0,0,1,2.17-.3c.71,0,1.19.14,1.39.41a6.17,6.17,0,0,0-1.83-.27,6.92,6.92,0,0,0-2.32.41c0-1.37-.08-4.27-.1-5.06l.43.07m-.65,5.1L19.81,62l.35-.32c0,.14,0,.28,0,.4m-1.79,2.28c0-.38.18-.44.29-.44l.91.22v1l-.83-.23s-.37-.1-.37-.6m6.74,1.12v1.27L19.8,65.23V64.16Zm3,2.1-2.74-.77V65.5l2.74.66Zm.12-1.69-9.31-2.25.4-.35a.66.66,0,0,0,.3.17l8.31,2h0a.17.17,0,0,0,.1,0v0l.05,0L30.2,63l.44,0Zm.25,1.44V66.06l2.31-2.69a1.26,1.26,0,0,0,0,.39.54.54,0,0,0,.16.3Z"/><path class="cls-1" d="M4.24,38.64a2.37,2.37,0,0,0,2.38-2.31.14.14,0,0,0,0-.07l-1.85-4.2H8.23L7.79,41H6.35a.17.17,0,0,0-.16.17v.73a.16.16,0,0,0,.16.16H7.74l-.1,2H7.08A.18.18,0,0,0,7,44a.16.16,0,0,0,0,.12,1.63,1.63,0,0,0,3.26,0,.17.17,0,0,0,0-.12A.16.16,0,0,0,10,44H9.37l-.1-2h1.47a.17.17,0,0,0,.17-.16v-.73a.18.18,0,0,0-.17-.17H9.22l-.45-8.9h3.54l-1.85,4.2a.14.14,0,0,0,0,.07,2.39,2.39,0,0,0,4.77,0,.14.14,0,0,0,0-.07l-2.21-5a.16.16,0,0,0-.15-.09H8.72L8.66,30a.16.16,0,1,0-.32,0l-.06,1.15h-4a.16.16,0,0,0-.15.09l-2.21,5a.15.15,0,0,0,0,.07,2.36,2.36,0,0,0,2.38,2.31M9,44H8l1-.85ZM9,42.72l-1,.83L8,43,9,42.23ZM8.7,42,8,42.57l0-.55Zm-.15,3.39a1.29,1.29,0,0,1-1.29-1.1H9.84a1.3,1.3,0,0,1-1.29,1.1m2-3.72H6.52v-.4h4.06ZM8.89,41H8.12l.38-7.7ZM4.34,31.45h8.38l2.16,4.9a2.06,2.06,0,0,1-4.11,0L12.71,32a.16.16,0,0,0,0-.15.17.17,0,0,0-.14-.08h-4a.29.29,0,0,0-.1,0,.32.32,0,0,0-.09,0H4.5a.16.16,0,0,0-.13.08.16.16,0,0,0,0,.15l1.94,4.39a2.06,2.06,0,0,1-4.11,0Z"/><path class="cls-1" d="M5.87,36.43A.16.16,0,0,0,6,36.27a.29.29,0,0,0,0-.09L4.39,32.45a.18.18,0,0,0-.15-.1.15.15,0,0,0-.15.1L2.46,36.2a.16.16,0,0,0,.15.23Zm-3-.32,1.38-3.19,1.38,3.19Z"/><path class="cls-1" d="M11,36.2a.18.18,0,0,0,0,.16.15.15,0,0,0,.13.07h3.27a.16.16,0,0,0,.16-.16.29.29,0,0,0,0-.09L13,32.45a.15.15,0,0,0-.15-.1.18.18,0,0,0-.15.1Zm1.78-3.28,1.39,3.19H11.44Z"/><path class="cls-1" d="M16.73,49.78a.58.58,0,1,0-.58-.58.58.58,0,0,0,.58.58"/></g></g></svg>