<svg xmlns="http://www.w3.org/2000/svg" id="Layer_1" data-name="Layer 1" version="1.1" width="373.781" height="103.461"><defs id="defs4"><style id="style2">.cls-1{fill:#ed342f}.cls-2{fill:#d51c19}.cls-3{fill:#f2e7ce}.cls-4{fill:#fffcf5}.cls-5,.cls-6,.cls-7,.cls-8,.cls-9{fill:none}.cls-5{stroke:#e43c27}.cls-5,.cls-6,.cls-7,.cls-8{stroke-miterlimit:10;stroke-width:1.51px}.cls-6{stroke:#1b66a4}.cls-7{stroke:#fdcb44}.cls-8{stroke:#19ae5b}.cls-10{isolation:isolate;font-size:56.24px;fill:#20304f;font-family:Avenir}</style></defs><path style="color:#000;font-style:normal;font-variant:normal;font-weight:400;font-stretch:normal;font-size:medium;line-height:normal;font-family:sans-serif;font-variant-ligatures:normal;font-variant-position:normal;font-variant-caps:normal;font-variant-numeric:normal;font-variant-alternates:normal;font-feature-settings:normal;text-indent:0;text-align:start;text-decoration:none;text-decoration-line:none;text-decoration-style:solid;text-decoration-color:#000;letter-spacing:normal;word-spacing:normal;text-transform:none;writing-mode:lr-tb;direction:ltr;text-orientation:mixed;dominant-baseline:auto;baseline-shift:baseline;text-anchor:start;white-space:normal;shape-padding:0;clip-rule:nonzero;display:inline;overflow:visible;visibility:visible;opacity:1;isolation:auto;mix-blend-mode:normal;color-interpolation:sRGB;color-interpolation-filters:linearRGB;solid-color:#000;solid-opacity:1;vector-effect:none;fill:#fff;fill-opacity:1;fill-rule:nonzero;stroke:#fff;stroke-width:.5;stroke-linecap:butt;stroke-linejoin:miter;stroke-miterlimit:10;stroke-dasharray:none;stroke-dashoffset:0;stroke-opacity:1;color-rendering:auto;image-rendering:auto;shape-rendering:auto;text-rendering:auto;enable-background:accumulate" d="M125.631 49.373v1.512h61.9v-1.512z" id="line40"/><path style="color:#000;font-style:normal;font-variant:normal;font-weight:400;font-stretch:normal;font-size:medium;line-height:normal;font-family:sans-serif;font-variant-ligatures:normal;font-variant-position:normal;font-variant-caps:normal;font-variant-numeric:normal;font-variant-alternates:normal;font-feature-settings:normal;text-indent:0;text-align:start;text-decoration:none;text-decoration-line:none;text-decoration-style:solid;text-decoration-color:#000;letter-spacing:normal;word-spacing:normal;text-transform:none;writing-mode:lr-tb;direction:ltr;text-orientation:mixed;dominant-baseline:auto;baseline-shift:baseline;text-anchor:start;white-space:normal;shape-padding:0;clip-rule:nonzero;display:inline;overflow:visible;visibility:visible;opacity:1;isolation:auto;mix-blend-mode:normal;color-interpolation:sRGB;color-interpolation-filters:linearRGB;solid-color:#000;solid-opacity:1;vector-effect:none;fill:none;fill-opacity:1;fill-rule:nonzero;stroke:#fff;stroke-width:.5;stroke-linecap:butt;stroke-linejoin:miter;stroke-miterlimit:10;stroke-dasharray:none;stroke-dashoffset:0;stroke-opacity:1;color-rendering:auto;image-rendering:auto;shape-rendering:auto;text-rendering:auto;enable-background:accumulate" d="M186.631 49.373v1.512h61.799v-1.512z" id="line42"/><path style="color:#000;font-style:normal;font-variant:normal;font-weight:400;font-stretch:normal;font-size:medium;line-height:normal;font-family:sans-serif;font-variant-ligatures:normal;font-variant-position:normal;font-variant-caps:normal;font-variant-numeric:normal;font-variant-alternates:normal;font-feature-settings:normal;text-indent:0;text-align:start;text-decoration:none;text-decoration-line:none;text-decoration-style:solid;text-decoration-color:#000;letter-spacing:normal;word-spacing:normal;text-transform:none;writing-mode:lr-tb;direction:ltr;text-orientation:mixed;dominant-baseline:auto;baseline-shift:baseline;text-anchor:start;white-space:normal;shape-padding:0;clip-rule:nonzero;display:inline;overflow:visible;visibility:visible;opacity:1;isolation:auto;mix-blend-mode:normal;color-interpolation:sRGB;color-interpolation-filters:linearRGB;solid-color:#000;solid-opacity:1;vector-effect:none;fill:#fff;fill-opacity:1;fill-rule:nonzero;stroke:#fff;stroke-width:.5;stroke-linecap:butt;stroke-linejoin:miter;stroke-miterlimit:10;stroke-dasharray:none;stroke-dashoffset:0;stroke-opacity:1;color-rendering:auto;image-rendering:auto;shape-rendering:auto;text-rendering:auto;enable-background:accumulate" d="M248.131 49.373v1.512h61.9v-1.512z" id="line44"/><path style="color:#000;font-style:normal;font-variant:normal;font-weight:400;font-stretch:normal;font-size:medium;line-height:normal;font-family:sans-serif;font-variant-ligatures:normal;font-variant-position:normal;font-variant-caps:normal;font-variant-numeric:normal;font-variant-alternates:normal;font-feature-settings:normal;text-indent:0;text-align:start;text-decoration:none;text-decoration-line:none;text-decoration-style:solid;text-decoration-color:#000;letter-spacing:normal;word-spacing:normal;text-transform:none;writing-mode:lr-tb;direction:ltr;text-orientation:mixed;dominant-baseline:auto;baseline-shift:baseline;text-anchor:start;white-space:normal;shape-padding:0;clip-rule:nonzero;display:inline;overflow:visible;visibility:visible;opacity:1;isolation:auto;mix-blend-mode:normal;color-interpolation:sRGB;color-interpolation-filters:linearRGB;solid-color:#000;solid-opacity:1;vector-effect:none;fill:none;fill-opacity:1;fill-rule:nonzero;stroke:#fff;stroke-width:.5;stroke-linecap:butt;stroke-linejoin:miter;stroke-miterlimit:10;stroke-dasharray:none;stroke-dashoffset:0;stroke-opacity:1;color-rendering:auto;image-rendering:auto;shape-rendering:auto;text-rendering:auto;enable-background:accumulate" d="M309.631 49.373v1.512h61.9v-1.512z" id="line46"/><path id="path883" style="font-style:normal;font-variant:normal;font-weight:400;font-stretch:normal;font-size:medium;font-family:Avenir;-inkscape-font-specification:Avenir;isolation:isolate;fill:#fff;fill-opacity:1;stroke:none" d="M124.424 43.019V3.2h10.188q1.84 0 3.322.082 1.483.082 3.186.384 1.703.275 2.993.77 1.29.466 2.527 1.29 1.235.824 2.032 1.95.796 1.126 1.29 2.773.495 1.648.495 3.707 0 4.312-2.637 7.058-2.636 2.719-7.304 3.46l11.314 18.344h-5.795l-10.82-17.877h-6.068v17.877zm4.723-22.27h4.229q1.785 0 2.746-.028.961-.055 2.636-.22 1.675-.165 2.637-.577.96-.44 2.004-1.126 1.044-.686 1.51-1.867.495-1.18.495-2.774 0-1.647-.577-2.855-.577-1.236-1.455-1.923-.879-.714-2.225-1.126-1.318-.412-2.553-.521-1.236-.138-2.801-.138h-6.646z"/><path id="path885" style="font-style:normal;font-variant:normal;font-weight:400;font-stretch:normal;font-size:medium;font-family:Avenir;-inkscape-font-specification:Avenir;isolation:isolate;fill:#fff;fill-opacity:1;stroke:none" d="M154.191 43.019 171.74 3.2h4.449l16.943 39.818h-5.52l-4.064-9.776h-19.91l-4.09 9.776zm11.314-14.17h16.257l-7.881-19.58h-.11Z"/><path id="path887" style="font-style:normal;font-variant:normal;font-weight:400;font-stretch:normal;font-size:medium;font-family:Avenir;-inkscape-font-specification:Avenir;isolation:isolate;fill:#fff;fill-opacity:1;stroke:none" d="M198.349 43.019V3.2h5.959l23.067 33.063h.11V3.2h4.723v39.818h-5.96L203.183 9.956h-.11v33.063Z"/><path id="path889" style="font-style:normal;font-variant:normal;font-weight:400;font-stretch:normal;font-size:medium;font-family:Avenir;-inkscape-font-specification:Avenir;isolation:isolate;fill:#fff;fill-opacity:1;stroke:none" d="M241.352 43.019V3.2h15.296q2.472 0 5.025.659 2.582.631 5.19 2.142 2.637 1.51 4.669 3.734 2.032 2.225 3.323 5.685 1.29 3.46 1.29 7.689t-1.29 7.689q-1.291 3.46-3.323 5.684-2.032 2.225-4.668 3.735-2.61 1.51-5.19 2.17-2.554.63-5.026.63zm4.724-4.394h8.98q3.487 0 6.343-.906 2.883-.906 5.08-2.746 2.197-1.84 3.405-4.86 1.209-3.021 1.209-7.003t-1.209-7.003q-1.208-3.02-3.405-4.86-2.197-1.84-5.08-2.746-2.856-.907-6.344-.907h-8.98z"/><path id="path891" style="font-style:normal;font-variant:normal;font-weight:400;font-stretch:normal;font-size:medium;font-family:Avenir;-inkscape-font-specification:Avenir;isolation:isolate;fill:#fff;fill-opacity:1;stroke:none" d="M282.956 31.458q-1.566-3.9-1.566-8.348 0-4.449 1.566-8.32 1.565-3.9 4.284-6.646 2.746-2.774 6.618-4.367 3.9-1.593 8.348-1.593t8.32 1.593q3.9 1.593 6.619 4.367 2.746 2.746 4.31 6.645 1.566 3.872 1.566 8.32 0 4.45-1.565 8.349-1.565 3.872-4.311 6.645-2.72 2.746-6.619 4.34-3.872 1.592-8.32 1.592-4.449 0-8.348-1.593-3.872-1.593-6.618-4.339-2.72-2.773-4.284-6.645zm5.464-16.669q-1.95 3.762-1.95 8.32 0 4.56 1.95 8.349 1.978 3.762 5.602 5.986 3.625 2.197 8.184 2.197 4.558 0 8.183-2.197 3.625-2.224 5.575-5.986 1.977-3.79 1.977-8.348 0-4.559-1.977-8.32-1.95-3.79-5.575-5.987-3.625-2.225-8.183-2.225-4.559 0-8.184 2.225-3.624 2.196-5.602 5.986z"/><path id="path893" style="font-style:normal;font-variant:normal;font-weight:400;font-stretch:normal;font-size:medium;font-family:Avenir;-inkscape-font-specification:Avenir;isolation:isolate;fill:#fff;fill-opacity:1;stroke:none" d="M330.6 43.019V3.2h7.03l13.511 31.223h.11L364.844 3.2h6.865v39.818h-4.723V9.599h-.11l-14.28 33.42h-2.855l-14.307-33.42h-.11v33.42Z"/><path id="path870" style="font-style:normal;font-variant:normal;font-weight:500;font-stretch:normal;font-size:medium;font-family:Avenir;-inkscape-font-specification:'Avenir Medium';isolation:isolate;fill:#fff;fill-opacity:1;stroke:none" d="M185.443 60.631h-4.724v23.958c0 6.412-2.362 12.486-10.292 12.486S160.135 91 160.135 84.589V60.631h-4.724v24.633c0 8.661 4.05 16.197 15.016 16.197 10.967 0 15.016-7.536 15.016-16.197z"/><path id="path872" style="font-style:normal;font-variant:normal;font-weight:500;font-stretch:normal;font-size:medium;font-family:Avenir;-inkscape-font-specification:'Avenir Medium';isolation:isolate;fill:#fff;fill-opacity:1;stroke:none" d="M227.124 65.861c-3.374-4.386-8.66-6.242-14.06-6.242-11.81 0-20.246 9.223-20.246 20.92 0 12.093 8.83 20.922 20.246 20.922 6.355 0 11.53-2.193 15.072-6.974l-3.543-2.98c-2.812 3.6-6.692 5.568-11.529 5.568-8.942 0-15.185-7.312-15.185-16.535 0-8.717 6.3-16.535 15.185-16.535 3.824 0 7.593 1.631 9.955 4.837z"/><path id="path874" style="font-style:normal;font-variant:normal;font-weight:500;font-stretch:normal;font-size:medium;font-family:Avenir;-inkscape-font-specification:'Avenir Medium';isolation:isolate;fill:#fff;fill-opacity:1;stroke:none" d="M234.667 100.449h4.724v-18.56h21.26v18.56h4.723V60.63h-4.724v16.872h-21.258V60.631h-4.725z"/><path id="path876" style="font-style:normal;font-variant:normal;font-weight:500;font-stretch:normal;font-size:medium;font-family:Avenir;-inkscape-font-specification:'Avenir Medium';isolation:isolate;fill:#fff;fill-opacity:1;stroke:none" d="M275.31 100.449h4.724V60.63h-4.724z"/><path id="path878" style="font-style:normal;font-variant:normal;font-weight:500;font-stretch:normal;font-size:medium;font-family:Avenir;-inkscape-font-specification:'Avenir Medium';isolation:isolate;fill:#fff;fill-opacity:1;stroke:none" d="M289.919 100.449h22.946v-4.387h-18.222V60.631h-4.724z"/><path id="path880" style="font-style:normal;font-variant:normal;font-weight:500;font-stretch:normal;font-size:medium;font-family:Avenir;-inkscape-font-specification:'Avenir Medium';isolation:isolate;fill:#fff;fill-opacity:1;stroke:none" d="M318.039 100.449h26.039v-4.387h-21.315V81.89h18.953v-4.387h-18.953V65.018h20.303V60.63h-25.027z"/><path id="path1095" style="fill:#fff;fill-opacity:1;stroke:none;stroke-width:1;stroke-linecap:round;stroke-linejoin:round;stroke-miterlimit:4;stroke-dasharray:none;stroke-opacity:1" d="M68.938 26.574a6.9 6.9 0 0 1 6.9 6.9 6.9 6.9 0 0 1-6.9 6.901 6.9 6.9 0 0 1-6.899-6.9 6.9 6.9 0 0 1 6.899-6.9zm17.066-17.43a6.9 6.9 0 0 1 6.9 6.9 6.9 6.9 0 0 1-6.9 6.901 6.9 6.9 0 0 1-6.9-6.9 6.9 6.9 0 0 1 6.9-6.9zM48.826 2a11.338 11.338 0 0 0-11.363 11.363v23.594h17.39A11.338 11.338 0 0 1 66.218 48.32v16.63h22.834a11.338 11.338 0 0 0 11.363-11.364V13.363A11.338 11.338 0 0 0 89.051 2Z"/><path style="fill:#fff;fill-opacity:1;stroke:none;stroke-width:1;stroke-linecap:round;stroke-linejoin:round;stroke-miterlimit:4;stroke-dasharray:none;stroke-opacity:1" d="M13.365 38.447A11.34 11.34 0 0 0 2 49.81v40.223a11.34 11.34 0 0 0 11.365 11.363h40.223A11.338 11.338 0 0 0 64.95 90.033V49.81a11.338 11.338 0 0 0-11.363-11.363zm3.121 7.145a6.9 6.9 0 0 1 6.9 6.9 6.9 6.9 0 0 1-6.9 6.9 6.9 6.9 0 0 1-6.9-6.9 6.9 6.9 0 0 1 6.9-6.9zm33.98 0a6.9 6.9 0 0 1 6.901 6.9 6.9 6.9 0 0 1-6.9 6.9 6.9 6.9 0 0 1-6.9-6.9 6.9 6.9 0 0 1 6.9-6.9zm-16.99 17.43a6.9 6.9 0 0 1 6.899 6.9 6.9 6.9 0 0 1-6.898 6.9 6.9 6.9 0 0 1-6.9-6.9 6.9 6.9 0 0 1 6.9-6.9zm-16.99 17.43a6.9 6.9 0 0 1 6.9 6.901 6.9 6.9 0 0 1-6.9 6.899 6.9 6.9 0 0 1-6.9-6.899 6.9 6.9 0 0 1 6.9-6.9zm33.98 0a6.9 6.9 0 0 1 6.901 6.901 6.9 6.9 0 0 1-6.9 6.899 6.9 6.9 0 0 1-6.9-6.899 6.9 6.9 0 0 1 6.9-6.9z" id="rect856-6"/></svg>