<!-- https://jakearchibald.github.io/svgomg/ -->
<svg xmlns="http://www.w3.org/2000/svg" id="Layer_1" data-name="Layer 1" version="1.1" width="103.8" height="103.5"><defs id="defs4"><style id="style2">.cls-1{fill:#ed342f}.cls-2{fill:#d51c19}.cls-3{fill:#f2e7ce}.cls-4{fill:#fffcf5}.cls-5,.cls-6,.cls-7,.cls-8,.cls-9{fill:none}.cls-5{stroke:#e43c27}.cls-5,.cls-6,.cls-7,.cls-8{stroke-miterlimit:10;stroke-width:1.51px}.cls-6{stroke:#1b66a4}.cls-7{stroke:#fdcb44}.cls-8{stroke:#19ae5b}.cls-10{isolation:isolate;font-size:56.24px;fill:#20304f;font-family:Avenir}</style></defs><path id="path1095" style="fill:#ed342f;fill-opacity:1;stroke:none;stroke-width:1;stroke-linecap:round;stroke-linejoin:round;stroke-miterlimit:4;stroke-dasharray:none;stroke-opacity:1" d="M69 27a7 7 0 0 1 7 6 7 7 0 0 1-7 7 7 7 0 0 1-7-7 7 7 0 0 1 7-6zM86 9a7 7 0 0 1 7 7 7 7 0 0 1-7 7 7 7 0 0 1-7-7 7 7 0 0 1 7-7zM49 2a11 11 0 0 0-12 11v24h18a11 11 0 0 1 11 11v17h23a11 11 0 0 0 11-11V13A11 11 0 0 0 89 2Z"/><path style="fill:#ed342f;fill-opacity:1;stroke:none;stroke-width:1;stroke-linecap:round;stroke-linejoin:round;stroke-miterlimit:4;stroke-dasharray:none;stroke-opacity:1" d="M13 38A11 11 0 0 0 2 50v40a11 11 0 0 0 11 11h41a11 11 0 0 0 11-11V50a11 11 0 0 0-11-12zm3 8a7 7 0 0 1 7 6 7 7 0 0 1-7 7 7 7 0 0 1-6-7 7 7 0 0 1 6-6zm34 0a7 7 0 0 1 7 6 7 7 0 0 1-7 7 7 7 0 0 1-6-7 7 7 0 0 1 6-6zM33 63a7 7 0 0 1 7 7 7 7 0 0 1-7 7 7 7 0 0 1-6-7 7 7 0 0 1 6-7zM16 80a7 7 0 0 1 7 7 7 7 0 0 1-7 7 7 7 0 0 1-6-7 7 7 0 0 1 6-7zm34 0a7 7 0 0 1 7 7 7 7 0 0 1-7 7 7 7 0 0 1-6-7 7 7 0 0 1 6-7z" id="rect856-6"/></svg>