<svg width="512" height="512" viewBox="0 0 8 8" xmlns="http://www.w3.org/2000/svg"><path class="prefix__cls-1" fill="#93d5f6" d="M.47 5.963V1.886L2.235.868 3.739 0v1.4l-.897.518-1.16.67v4.075z"/><path class="prefix__cls-2" fill="#004a91" d="M2.896 7.363v-1.4L4 6.6l1.159-.668.897-.518 1.212.7-1.503.867L4 8z"/><path class="prefix__cls-3" fill="#0095d4" d="M4.262 1.4V0l1.503.868L7.53 1.886V5.66l-1.213-.7V2.587L5.16 1.918z"/><path class="prefix__cls-1" fill="#93d5f6" d="M3.45 4.88l-.552-.32V3.289l.551-.318L4 2.65l.552.319.55.318V4.561l-.55.318L4 5.198z"/></svg>