<svg xmlns="http://www.w3.org/2000/svg" id="Layer_1" data-name="Layer 1" version="1.1" width="371.479" height="103.332"><defs id="defs4"><style id="style2">.cls-1{fill:#ed342f}.cls-2{fill:#d51c19}.cls-3{fill:#f2e7ce}.cls-4{fill:#fffcf5}</style></defs><path class="cls-1" d="M46.4 2h41.9a9.82 9.82 0 0 1 9.8 9.8v41.9a9.82 9.82 0 0 1-9.8 9.8H46.4a9.82 9.82 0 0 1-9.8-9.8V11.8A9.88 9.88 0 0 1 46.4 2Z" id="path8" style="fill:#ed342f"/><path class="cls-2" d="M67.4 2h21a9.82 9.82 0 0 1 9.8 9.8v41.9a9.82 9.82 0 0 1-9.8 9.8h-21z" id="path10" style="fill:#d51c19"/><circle class="cls-3" cx="84" cy="15.5" r="6.9" id="circle12" style="fill:#f2e7ce"/><circle class="cls-3" cx="67.4" cy="32.8" r="6.9" id="circle16" style="fill:#f2e7ce"/><path class="cls-4" d="M67.4 25.9v13.9a6.91 6.91 0 0 1-6.9-6.9 6.81 6.81 0 0 1 6.9-7z" id="path18" style="fill:#fffcf5"/><path class="cls-1" d="M11.8 36.9h41.9a9.82 9.82 0 0 1 9.8 9.8v41.9a9.82 9.82 0 0 1-9.8 9.8H11.8A9.82 9.82 0 0 1 2 88.6V46.7a9.88 9.88 0 0 1 9.8-9.8z" id="path20" style="fill:#ed342f"/><path class="cls-2" d="M32.8 36.9h21a9.82 9.82 0 0 1 9.8 9.8v41.9a9.82 9.82 0 0 1-9.8 9.8h-21z" id="path22" style="fill:#d51c19"/><circle class="cls-4" cx="16.7" cy="52.1" r="6.9" id="circle26" style="fill:#fffcf5"/><circle class="cls-4" cx="16.7" cy="83.4" r="6.9" id="circle28" style="fill:#fffcf5"/><circle class="cls-4" cx="32.8" cy="67.7" r="6.9" id="circle32" style="fill:#fffcf5"/><circle class="cls-3" cx="48.8" cy="52.1" r="6.9" id="circle34" style="fill:#f2e7ce"/><circle class="cls-3" cx="48.8" cy="83.4" r="6.9" id="circle36" style="fill:#f2e7ce"/><path class="cls-3" d="M32.8 60.8a6.9 6.9 0 1 1 0 13.8z" id="path38" style="fill:#f2e7ce"/><path id="line40" style="fill:none;stroke:#e43c27;stroke-width:1.50999999px;stroke-miterlimit:10" d="M123.4 50h61.9"/><path id="line42" style="fill:none;stroke:#1b66a4;stroke-width:1.50999999px;stroke-miterlimit:10" d="M184.4 50h61.8"/><path id="line44" style="fill:none;stroke:#fdcb44;stroke-width:1.50999999px;stroke-miterlimit:10" d="M245.9 50h61.9"/><path id="line46" style="fill:none;stroke:#19ae5b;stroke-width:1.50999999px;stroke-miterlimit:10" d="M307.4 50h61.9"/><g aria-label="RANDOM" transform="translate(117.25 42.89)" style="font-size:56.24000168px;font-family:Avenir;isolation:isolate;fill:#fff;fill-opacity:1;stroke:none" id="text50"><path d="M4.943 0v-39.818h10.188q1.84 0 3.323.082 1.483.082 3.185.384 1.703.275 2.993.77 1.291.466 2.527 1.29 1.236.824 2.032 1.95t1.29 2.773q.495 1.648.495 3.708 0 4.31-2.636 7.057-2.637 2.719-7.305 3.46L32.35 0h-5.794l-10.82-17.877H9.666V0Zm4.723-22.27h4.23q1.784 0 2.745-.028.961-.055 2.637-.22 1.675-.165 2.636-.577.961-.439 2.004-1.126 1.044-.686 1.51-1.867.495-1.18.495-2.773 0-1.648-.577-2.856-.576-1.236-1.455-1.923-.879-.714-2.224-1.126-1.318-.411-2.554-.521-1.236-.138-2.801-.138H9.666Z" style="font-style:normal;font-variant:normal;font-weight:400;font-stretch:normal;font-family:Avenir;-inkscape-font-specification:Avenir;fill:#fff;fill-opacity:1;stroke:none" id="path883"/><path d="m34.71 0 17.548-39.818h4.449L73.65 0h-5.52l-4.064-9.776H44.157L40.066 0Zm11.315-14.17H62.28l-7.88-19.58h-.11z" style="font-style:normal;font-variant:normal;font-weight:400;font-stretch:normal;font-family:Avenir;-inkscape-font-specification:Avenir;fill:#fff;fill-opacity:1;stroke:none" id="path885"/><path d="M78.868 0v-39.818h5.959l23.067 33.063h.11v-33.063h4.723V0h-5.959L83.701-33.063h-.11V0Z" style="font-style:normal;font-variant:normal;font-weight:400;font-stretch:normal;font-family:Avenir;-inkscape-font-specification:Avenir;fill:#fff;fill-opacity:1;stroke:none" id="path887"/><path d="M121.872 0v-39.818h15.295q2.472 0 5.026.659 2.581.631 5.19 2.142 2.636 1.51 4.668 3.734 2.032 2.225 3.323 5.685 1.29 3.46 1.29 7.689t-1.29 7.689q-1.29 3.46-3.323 5.684-2.032 2.225-4.668 3.735-2.609 1.51-5.19 2.17-2.554.631-5.026.631Zm4.723-4.394h8.98q3.487 0 6.343-.906 2.884-.906 5.08-2.746 2.197-1.84 3.406-4.86 1.208-3.021 1.208-7.003t-1.208-7.003q-1.209-3.02-3.406-4.86-2.196-1.84-5.08-2.746-2.856-.907-6.343-.907h-8.98z" style="font-style:normal;font-variant:normal;font-weight:400;font-stretch:normal;font-family:Avenir;-inkscape-font-specification:Avenir;fill:#fff;fill-opacity:1;stroke:none" id="path889"/><path d="M163.475-11.561q-1.565-3.9-1.565-8.348 0-4.449 1.565-8.32 1.565-3.9 4.284-6.646 2.746-2.774 6.618-4.367 3.9-1.592 8.348-1.592 4.449 0 8.32 1.592 3.9 1.593 6.619 4.367 2.746 2.746 4.311 6.645 1.565 3.872 1.565 8.32 0 4.45-1.565 8.349-1.565 3.872-4.311 6.645-2.719 2.747-6.618 4.34-3.872 1.592-8.32 1.592-4.45 0-8.35-1.593-3.871-1.592-6.617-4.339-2.719-2.773-4.284-6.645zm5.465-16.669q-1.95 3.762-1.95 8.32 0 4.56 1.95 8.349 1.977 3.762 5.602 5.986 3.625 2.197 8.183 2.197 4.559 0 8.183-2.197 3.625-2.224 5.575-5.986 1.977-3.79 1.977-8.348 0-4.559-1.977-8.32-1.95-3.79-5.575-5.987-3.624-2.225-8.183-2.225-4.558 0-8.183 2.225-3.625 2.197-5.602 5.986z" style="font-style:normal;font-variant:normal;font-weight:400;font-stretch:normal;font-family:Avenir;-inkscape-font-specification:Avenir;fill:#fff;fill-opacity:1;stroke:none" id="path891"/><path d="M211.12 0v-39.818h7.03l13.51 31.223h.11l13.593-31.223h6.866V0h-4.724v-33.42h-.11L233.116 0h-2.855l-14.307-33.42h-.11V0Z" style="font-style:normal;font-variant:normal;font-weight:400;font-stretch:normal;font-family:Avenir;-inkscape-font-specification:Avenir;fill:#fff;fill-opacity:1;stroke:none" id="path893"/></g><g aria-label="UCHILE" transform="translate(148.4 100.32)" style="font-size:56.24000168px;font-family:Avenir;isolation:isolate;fill:#fff;fill-opacity:1;stroke:none" id="text54"><path d="M34.813-39.818h-4.725v23.958c0 6.412-2.362 12.486-10.292 12.486S9.505-9.448 9.505-15.86v-23.958H4.78v24.633c0 8.661 4.05 16.197 15.016 16.197 10.967 0 15.017-7.536 15.017-16.197z" style="font-style:normal;font-variant:normal;font-weight:500;font-stretch:normal;font-family:Avenir;-inkscape-font-specification:'Avenir Medium';fill:#fff;fill-opacity:1;stroke:none" id="path870"/><path d="M76.493-34.588c-3.374-4.386-8.66-6.242-14.06-6.242-11.81 0-20.246 9.223-20.246 20.921 0 12.092 8.83 20.921 20.246 20.921 6.356 0 11.53-2.193 15.073-6.973l-3.543-2.981c-2.812 3.6-6.693 5.568-11.53 5.568-8.942 0-15.184-7.312-15.184-16.535 0-8.717 6.299-16.535 15.184-16.535 3.825 0 7.593 1.631 9.955 4.837z" style="font-style:normal;font-variant:normal;font-weight:500;font-stretch:normal;font-family:Avenir;-inkscape-font-specification:'Avenir Medium';fill:#fff;fill-opacity:1;stroke:none" id="path872"/><path d="M84.037 0h4.724v-18.56h21.258V0h4.725v-39.818h-4.725v16.872H88.761v-16.872h-4.724z" style="font-style:normal;font-variant:normal;font-weight:500;font-stretch:normal;font-family:Avenir;-inkscape-font-specification:'Avenir Medium';fill:#fff;fill-opacity:1;stroke:none" id="path874"/><path d="M124.679 0h4.724v-39.818h-4.724z" style="font-style:normal;font-variant:normal;font-weight:500;font-stretch:normal;font-family:Avenir;-inkscape-font-specification:'Avenir Medium';fill:#fff;fill-opacity:1;stroke:none" id="path876"/><path d="M139.288 0h22.946v-4.387h-18.222v-35.43h-4.724z" style="font-style:normal;font-variant:normal;font-weight:500;font-stretch:normal;font-family:Avenir;-inkscape-font-specification:'Avenir Medium';fill:#fff;fill-opacity:1;stroke:none" id="path878"/><path d="M167.408 0h26.04v-4.387h-21.316v-14.172h18.953v-4.387h-18.953V-35.43h20.303v-4.387h-25.027z" style="font-style:normal;font-variant:normal;font-weight:500;font-stretch:normal;font-family:Avenir;-inkscape-font-specification:'Avenir Medium';fill:#fff;fill-opacity:1;stroke:none" id="path880"/></g></svg>