<svg xmlns="http://www.w3.org/2000/svg" viewBox="0 0 352.42 59.29"><defs><style>.cls-1{fill:#969696;}.cls-2{fill:#004b93;}.cls-3{fill:#6dcaf3;}.cls-4{fill:#0095d4;}.cls-5{fill:#93d5f6;}</style></defs><title>Marca Participa UChile</title><g id="Capa_2" data-name="Capa 2"><g id="Diseño_de_Marca" data-name="Diseño de Marca"><path class="cls-1" d="M339.42,23V15.1l.54.35,1.58,4.88a.16.16,0,0,0,.07.07l.06,0h0l.17-.06a.12.12,0,0,0,.08-.16l-1.42-4.36,1.64,1,3.22,4.44a.12.12,0,0,0,.1.05.11.11,0,0,0,.08,0l.14-.11a.16.16,0,0,0,.06-.08.17.17,0,0,0,0-.1l-3.27-4.51L342,14.71l3.75,2.73.08,0h0a.1.1,0,0,0,.08-.05l.11-.15a.13.13,0,0,0,0-.18l-4.19-3-.16-.6L349.45,16h.1a.12.12,0,0,0,.06-.08l.06-.17a.13.13,0,0,0-.09-.16L341.83,13l.5-.4h5.13a.13.13,0,0,0,.13-.13v-.18a.13.13,0,0,0,0-.09.11.11,0,0,0-.09,0h-4.6l1.5-1.23,5.22-1.69a.14.14,0,0,0,.09-.17l-.06-.17a.11.11,0,0,0-.06-.07.12.12,0,0,0-.1,0l-5.36,1.74-1.86-.11L346,7.73a.13.13,0,0,0,0-.18l-.11-.15-.08-.05a.19.19,0,0,0-.1,0l-4.22,3.06-.6,0,4.82-6.65a.14.14,0,0,0,0-.09.19.19,0,0,0,0-.09l-.15-.1a.12.12,0,0,0-.18,0l-4.82,6.62-.22-.57L342,4.62a.12.12,0,0,0,0-.1.11.11,0,0,0-.07-.06l-.17-.06a.14.14,0,0,0-.17.09l-1.43,4.42-.69-1.76V1.56a.13.13,0,0,0-.13-.13h-.18a.13.13,0,0,0-.13.13V7.14l-.68,1.77-1.44-4.42a.12.12,0,0,0-.06-.08.18.18,0,0,0-.1,0l-.18.06a.13.13,0,0,0-.08.16L338,9.56l-.22.57L333,3.51a.12.12,0,0,0-.18,0l-.15.1a.11.11,0,0,0-.05.09.1.1,0,0,0,0,.09l4.83,6.65-.61,0-4.22-3.06a.17.17,0,0,0-.1,0l-.08.05-.11.15a.13.13,0,0,0,0,.18l3.79,2.75-1.86.11L329,8.85a.11.11,0,0,0-.1,0,.12.12,0,0,0-.07.07l-.05.17a.14.14,0,0,0,.08.17L334,11l1.5,1.23H331a.13.13,0,0,0-.13.13v.18a.13.13,0,0,0,.13.13h5.13l.49.4-7.75,2.52a.12.12,0,0,0-.08.16l.05.17a.14.14,0,0,0,.07.08h.1l7.78-2.53-.15.6-4.2,3a.13.13,0,0,0,0,.18l.11.15a.1.1,0,0,0,.08.05h0l.07,0,3.76-2.73-.48,1.83-3.28,4.51a.12.12,0,0,0,0,.1.1.1,0,0,0,.05.08l.15.11a.08.08,0,0,0,.07,0,.16.16,0,0,0,.11-.05l3.22-4.44,1.63-1.05-1.42,4.37a.12.12,0,0,0,0,.1.13.13,0,0,0,.07.06l.18.06h0a.14.14,0,0,0,.12-.09l1.59-4.88.53-.35V23H326v32a1.76,1.76,0,0,0,1.93,1.94h9.36c.41,0,1.58.11,1.58.63v.34h.69v-.34c0-.52,1.16-.63,1.57-.63h9.36a1.77,1.77,0,0,0,1.94-1.94V23Zm12.31,16.19H343a3.87,3.87,0,0,0-1.88-2.31l0,0a.82.82,0,0,1-.23-.27c-.18-.27-.42-.64-.9-.55a1,1,0,0,0-.5.19V23.68h12.31ZM339.2,43.94a3.65,3.65,0,1,1,0-7.3h.14l.12.13a.29.29,0,0,0-.19.14.07.07,0,0,0,0,.05h-.06a3.34,3.34,0,1,0,1.48.35h0s0,0,0,0a6.64,6.64,0,0,0-.91-.22l-.18-.06.17,0a.13.13,0,0,0,.11-.09.14.14,0,0,0,0-.13l-.27-.28v0s.09-.12.42-.18.45.14.65.44a1.16,1.16,0,0,0,.3.35h0a3.65,3.65,0,0,1-1.71,6.88m-.93-28.68h0l-.24.15h0l-1.63,1.05,2.71-3.73v2l-.07,0h0Zm-1.51-.87.06-.24h0l.25-.92,1.89-.62-2.71,3.73Zm-.55-2-.22-.18h0L334.52,11l4.37,1.42-1.89.61-.08-.07h0l-.71-.58h0m1.58-1.75L339,12.26l-4.39-1.43Zm.59-1.25,0-.06h0l.7-1.8v4.6l-1.17-1.6,0-.09h0Zm2.08,1.14-1.16,1.6V7.54Zm3.37.29-4.38,1.42,1.17-1.6Zm-1.52,1.48-.11.09h0l-.8.65-1.9-.61L343.89,11Zm-.67,2.07.52,2-2.71-3.72,1.89.61v0h0l.23.87h0Zm-1.26,1-.24-.15h0l-.78-.5h0l-.06,0v-2L342,16.46l-1.63-1.05h0m.52,24.9a2,2,0,0,1-.9.72,1.08,1.08,0,0,0,.28-.72,1.09,1.09,0,0,0-.27-.71,2.12,2.12,0,0,1,.89.71M339,39.44h.32a.89.89,0,0,1,.72.87.88.88,0,0,1-1.76,0,.89.89,0,0,1,.72-.87m-.92.87a1,1,0,0,0,.29.72,2.06,2.06,0,0,1-.91-.72,2.09,2.09,0,0,1,.9-.71,1.05,1.05,0,0,0-.28.71m-.76.23a2.32,2.32,0,0,0,1.84.91,2.35,2.35,0,0,0,1.85-.91l.69,1.21h-5.08Zm1.84-1.37a2.27,2.27,0,0,0-1.27.39l1.27-2.22,1.28,2.22a2.32,2.32,0,0,0-1.28-.39m-2,1.11,0,0h0l-.75,1.31a3,3,0,0,1-.31-1.33A3.07,3.07,0,0,1,339,37.23ZM341.75,42a3.07,3.07,0,0,1-5.09,0Zm.22-.39-.76-1.31h0v0l-1.77-3.06h0a.85.85,0,0,0,.25.09c.16,0,.6.12.79.18a3.06,3.06,0,0,1,1.8,2.79,3.1,3.1,0,0,1-.31,1.33m-3-17.94V36.39a3.92,3.92,0,0,0-3.54,2.79h-8.77V23.68Zm-1.71,32.51h-9.36a1.09,1.09,0,0,1-1.24-1.25V39.61h8.67a3.82,3.82,0,0,0-.06.68,3.91,3.91,0,0,0,3.7,3.9V56.58a3.4,3.4,0,0,0-1.71-.39m13.2,0h-9.36a3.36,3.36,0,0,0-1.7.39V44.19a3.91,3.91,0,0,0,3.7-3.9,3.82,3.82,0,0,0-.07-.68h8.68V54.94a1.1,1.1,0,0,1-1.25,1.25"/><path class="cls-1" d="M341.37,26.81a1,1,0,0,0,.29,0l1,1.38a5.18,5.18,0,0,0,0,1.28,1.79,1.79,0,0,0,2,1.58l.3.42a1.33,1.33,0,0,0-.16,1.74,1.07,1.07,0,0,0,.84.29,4.41,4.41,0,0,0,.72-.08h0a1.12,1.12,0,0,0-.3,1.29,1.1,1.1,0,0,0,.76.56,1.06,1.06,0,0,1,.37.18.83.83,0,0,1,.28.71v.11a.82.82,0,0,0,.33.57l.13.12a.79.79,0,0,1,.12.28c.05.15.1.33.27.35h0a.19.19,0,0,0,.14-.06,1.8,1.8,0,0,0,.21-.85l1.06,1.48,0,0,.46.31a.1.1,0,0,0,.07,0,.12.12,0,0,0,.08,0,.13.13,0,0,0,.05-.13l-.12-.54,0,0-2-3a.67.67,0,0,0-.28-.44l-.58-.88c.36-.38.43-.72.21-1A1,1,0,0,0,346.6,32l-.26-.41a1.22,1.22,0,0,0,.09-1.53,1.11,1.11,0,0,0-.92-.35h-.39l-.94-1.44a.62.62,0,0,1,.08-.12c.13.14.36.36.57.36a.27.27,0,0,0,.12,0,1.71,1.71,0,0,0,.36-1.39,1.17,1.17,0,0,0-1.15-.87,1.27,1.27,0,0,0-.84.34l-.15.15-.46-.7a.85.85,0,0,0,.11-1,.73.73,0,0,0-.64-.29,1.55,1.55,0,0,0-.88.3c-.59.39-.83,1-.56,1.41a.74.74,0,0,0,.63.29M345.28,31h.16l.11,0h0l.75,1.16-.23.05h0l-.23,0L345,31l.18,0h.1m3.08,6.26,0-.09a1,1,0,0,0-.18-.38.93.93,0,0,0-.14-.14.55.55,0,0,1-.25-.4v-.1a1.06,1.06,0,0,0-.37-.89,1,1,0,0,0-.46-.23,1,1,0,0,1-.62-.45c-.21-.36.08-.76.23-.94l.08.1a.86.86,0,0,1,.07.1l0,0,.09.14a.93.93,0,0,1,.13.22.18.18,0,0,0,0,.15.23.23,0,0,0,.18.07h.16l.27,0a.54.54,0,0,1,.27,0,.41.41,0,0,1,.26.38v0a1.28,1.28,0,0,1,0,.19h0a.86.86,0,0,0,.27.89,1.13,1.13,0,0,1,.11.11.2.2,0,0,1,0,.11,3.79,3.79,0,0,1-.12,1m1.78.84L350,38l-1.24-1.73v-.06a.3.3,0,0,0,0-.1.64.64,0,0,0-.2-.3l0-.05,0,0,0,0a.26.26,0,0,1,0-.09s0,0,0-.06,0-.07,0-.11,0-.07,0-.11a.45.45,0,0,1,0-.11l1.77,2.72Zm-2.58-3.94h-.11l-.19,0h0l-.21-.29-.21-.3,0-.05-.12-.17h.07l.13,0h.24l.54.84h-.09m-.66-1.87a.65.65,0,0,1,.58.24c.08.12.15.3-.09.61a.42.42,0,0,0-.18-.06h-.15l-.22,0h-.09l-.27,0h0a4,4,0,0,1-.77.09A.9.9,0,0,1,345,33c-.42-.44-.06-1.06.12-1.32a4.28,4.28,0,0,1,.26.37.29.29,0,0,0,0,.23.43.43,0,0,0,.35.14,0,0,0,0,0,0,0h0l.27,0a1.87,1.87,0,0,0,.37-.07h0a1.93,1.93,0,0,1,.45-.06m-2.18-2.49h-.12l-.11,0h-.07l-.1-.06,0,0a.58.58,0,0,1-.1-.12,1.36,1.36,0,0,1-.11-.25,1.18,1.18,0,0,1,0-.45h0l0-.15a.06.06,0,0,1,0,0l.75,1.16h-.1m-1.24-2.94h0a1,1,0,0,1,.67-.28.92.92,0,0,1,.9.66,1.63,1.63,0,0,1-.23,1.11c-.09,0-.29-.16-.46-.37a.14.14,0,0,0-.15,0,.73.73,0,0,0-.3.37h0a.38.38,0,0,0-.05.11s0,0,0,.05a1.42,1.42,0,0,0-.08.55v0a.88.88,0,0,0,0,.16.13.13,0,0,0,0,.06.83.83,0,0,0,0,.15s0,0,0,.06a2,2,0,0,0,.1.21h0a1,1,0,0,0,.88.37h.67a.86.86,0,0,1,.72.25.91.91,0,0,1,0,1.06c-.12-.28-.34-.66-.61-.66h-.12l-.11,0-.14,0h-.56a1.53,1.53,0,0,1-1.76-1.36,4.32,4.32,0,0,1,0-1.28,2.87,2.87,0,0,1,0-.31s0-.05,0-.07a2,2,0,0,1,.08-.26v0c0-.06,0-.1.06-.15s.05-.1.08-.14a.43.43,0,0,1,0-.07,1.08,1.08,0,0,1,.23-.26m-2-1.51a1.41,1.41,0,0,1,.74-.26.51.51,0,0,1,.43.18.66.66,0,0,1-.16.74.14.14,0,0,0,0,.15L343,27a2.46,2.46,0,0,0-.23.53v0a1.33,1.33,0,0,0-.05.19.08.08,0,0,0,0,0l-.88-1.23a.16.16,0,0,0-.11-.05h0a1.18,1.18,0,0,1-.31.05.48.48,0,0,1-.42-.18c-.18-.26,0-.75.49-1.05"/><path class="cls-1" d="M344.72,27.63a.26.26,0,0,0,.26-.26.26.26,0,0,0-.26-.26.26.26,0,0,0-.26.26.25.25,0,0,0,.26.26"/><path class="cls-1" d="M339.94,36.33a.16.16,0,0,0-.16.16.16.16,0,0,0,.16.17.17.17,0,0,0,.17-.17.17.17,0,0,0-.17-.16"/><path class="cls-1" d="M337.1,49.08a2.75,2.75,0,1,0-3.65,2.58h-2.1l-.76-2a.62.62,0,1,0-1.15-.3.57.57,0,0,0,.08.29l-.76,2.06h-.18a.13.13,0,0,0-.13.13v1.12a.13.13,0,0,0,.13.13h6.95v2.15a.13.13,0,0,0,.13.13h1a.13.13,0,0,0,.13-.13V52.92h0V51.79a.13.13,0,0,0-.13-.13h-1.42a2.73,2.73,0,0,0,1.84-2.58m-6.67.72.35.93-.51-.84a.83.83,0,0,0,.16-.09m-.37-.86a.37.37,0,0,1,.36.37.36.36,0,0,1-.36.36.37.37,0,0,1-.37-.36.38.38,0,0,1,.37-.37m-.38.85a.54.54,0,0,0,.16.1l-.51.84Zm.37.17,1,1.7H329Zm6.5,2.93v2.17h-.76V52.91a.13.13,0,0,0-.13-.13h-7v-.86h7.84Zm0-2.71v-.13a1.14,1.14,0,0,0-.07-.19l0-.09a.54.54,0,0,0-.13-.29.42.42,0,0,1-.07-.15.58.58,0,0,0-.08-.18.45.45,0,0,1-.06-.12.3.3,0,0,0,0-.1.59.59,0,0,1,.06-.16l.16-.09.2,0c.08,0,.19-.13.2-.13s0-.07,0-.11a1.31,1.31,0,0,0-.05-.15.62.62,0,0,1,0-.12h0a2.36,2.36,0,0,1,.2,1,2.43,2.43,0,0,1-.31,1.17v-.07M335.36,48v0l0,0h.08a.26.26,0,0,0,.16,0l0,0a.41.41,0,0,1,.08-.12.32.32,0,0,0,.11-.21.39.39,0,0,0,0-.16.08.08,0,0,0,0,0,.19.19,0,0,0-.07-.13l0,0c0-.06,0-.08,0-.08h0l.08-.06a2.44,2.44,0,0,1,.82,1h0a.55.55,0,0,0-.12,0,.2.2,0,0,0-.1,0h0a.39.39,0,0,1-.18,0l-.09,0-.16-.08a.29.29,0,0,0-.16,0h0c-.08,0-.13.11-.15.17v0a.7.7,0,0,0,0,.16.48.48,0,0,1-.14,0l-.11,0,0-.11a.2.2,0,0,0,0-.17m-.71-1.36a2.59,2.59,0,0,1,.42.09l-.05.12a.34.34,0,0,1,0,.09,2.12,2.12,0,0,1,0,.24h0a.35.35,0,0,0-.17-.23.21.21,0,0,1-.11-.09.9.9,0,0,1,0-.19Zm-1.3.38c0,.17.16.29.3.24a.55.55,0,0,0,.21-.15S334,47,334,47a.42.42,0,0,0,.16,0h0a.62.62,0,0,1,0,.15,2.2,2.2,0,0,0,0,.23.13.13,0,0,1,0,.1.15.15,0,0,1-.08.05l0,0a.31.31,0,0,0-.2-.09l-.08,0a.62.62,0,0,0-.33.31.22.22,0,0,1-.05.08v0a.22.22,0,0,0-.19-.21l-.05,0-.11,0a.14.14,0,0,0-.11,0,.51.51,0,0,0-.15.4,1.09,1.09,0,0,0,.4.57,5.91,5.91,0,0,1,.6.46,2.29,2.29,0,0,0,.46.2c.25.07.37.16.38.22a.73.73,0,0,1-.16.44,1.83,1.83,0,0,0-.32.31l-.05.06c-.07.07-.09.11-.14.35a4.12,4.12,0,0,1-.19.65l-.05,0c0-.09,0-.27,0-.37s0-.2,0-.23v-.2a1.12,1.12,0,0,0,0-.35.11.11,0,0,0,0,0c0-.1-.07-.28-.21-.32a.68.68,0,0,1-.28-.16,1,1,0,0,0,0-.17,1,1,0,0,1,0-.3l.09,0c.12-.05.21-.1.22-.18s-.07-.13-.12-.16l-.07,0c0-.07-.1-.13-.27-.24l-.13-.08,0,0c-.08-.17-.17-.34-.31-.35a1,1,0,0,1-.28-.08,2.51,2.51,0,0,1,1.1-1,1.24,1.24,0,0,1,0,.18m.32,4.19v0Zm.69.37A2.47,2.47,0,0,1,332.15,48a.86.86,0,0,0,.35.11s.07,0,.17.25a.24.24,0,0,0,.05.09l.15.11a1.07,1.07,0,0,1,.2.14.26.26,0,0,0,.15.14l-.08,0-.12.06c-.09.06-.09.22-.07.46a.82.82,0,0,1,0,.14s0,.18.39.33c0,0,.09.16.11.21a.35.35,0,0,0,0,.06,2.19,2.19,0,0,1,0,.29,1.58,1.58,0,0,0,0,.23s0,.12,0,.21a2.22,2.22,0,0,0,.05.46.11.11,0,0,0,.12.08.68.68,0,0,0,.2-.06.09.09,0,0,0,0-.05,4.1,4.1,0,0,0,.21-.71c0-.2.06-.22.1-.26l.06-.07a2,2,0,0,1,.28-.29.79.79,0,0,0,.23-.59c0-.19-.29-.31-.5-.37l-.39-.15a5.11,5.11,0,0,0-.66-.5,1.09,1.09,0,0,1-.29-.44.37.37,0,0,1,.09-.24h.06l.07,0,0,0c0,.12,0,.23.09.25h0c.1,0,.21-.11.26-.24a.46.46,0,0,1,.24-.21h0a.18.18,0,0,1,.1.06l0,0a.26.26,0,0,0,.3-.08.36.36,0,0,0,.07-.24.66.66,0,0,1,0-.2v-.17c0-.16-.1-.18-.14-.18a.28.28,0,0,0-.12,0l-.07,0h0c-.09,0-.18.09-.27.18a.58.58,0,0,1-.13.11s-.07-.05-.08-.1,0-.15,0-.23a2.49,2.49,0,0,1,.87-.16h.11v0a1.25,1.25,0,0,0,0,.26.38.38,0,0,0,.2.18.19.19,0,0,1,.07.11c0,.08.1.14.23.14h0c.11,0,.13-.15.15-.4v-.07a.43.43,0,0,0,.05-.1,2.53,2.53,0,0,1,.37.18.2.2,0,0,0-.09.17.29.29,0,0,0,.07.17l0,.05s0,0,0,0v0a.41.41,0,0,1,0,.12.12.12,0,0,1-.06.09h0l-.1.12,0,0h-.14a.07.07,0,0,0-.06,0,.48.48,0,0,0-.09.1.19.19,0,0,0,0,.15l0,0a.47.47,0,0,0-.07.27s.06.08.25.12h0c.07,0,.31-.07.31-.19s0-.1,0-.17,0,0,0,0h.09l.12.07a.11.11,0,0,0,.08,0l.05,0a.61.61,0,0,0,.25,0,.19.19,0,0,0,.09,0h0a.32.32,0,0,0,0,.14l0,.09-.07.06-.23.06h0a.61.61,0,0,0-.23.14s-.17.27-.07.37l0,0a.51.51,0,0,0,.09.18s0,.08.05.12a.45.45,0,0,0,.1.21.36.36,0,0,1,.09.19.64.64,0,0,0,.06.16l.06.13v.11a.72.72,0,0,0,0,.17s0,.11,0,.2a2.48,2.48,0,0,1-2,1"/><path class="cls-1" d="M329.16,43.28l.07,0h0l2,5.67.13,0-1.46-4.23,1.44,3.52.12,0-1.48-3.62,1.54,3.2.12-.05L330,44.42l1.69,3,.11-.06-1.72-3,1.84,2.8L332,47l-1.86-2.83,2,2.64.1-.08-2-2.68,2.21,2.52.1-.08L330.33,44l2.42,2.39.1-.09-2.43-2.4,2.7,2.32.08-.1-2.69-2.31,3.06,2.27.07-.11-3-2.23L334.14,46l.07-.11L329.67,43l0-.08.66-.54-.85-.05-.3-.79-.31.79-.85.05.66.54-.22.82Zm-.13-.7.13-.33.12.33.35,0-.27.22.09.34-.29-.19-.3.19.09-.34-.27-.22Z"/><path class="cls-1" d="M350.57,51.75a1.3,1.3,0,0,1,0-.44v-.18s0,0,0,0h0a.14.14,0,0,0-.12-.14l-.39,0,.13-.15a.11.11,0,0,0,0-.11.16.16,0,0,0-.07-.09.13.13,0,0,1-.09-.11,1.07,1.07,0,0,1,0-.37v-.16h0a0,0,0,0,1,0,0,.12.12,0,0,0-.12-.14l-.59-.05c0-1.18,0-3.54,0-4.06a.12.12,0,0,0-.05-.1.17.17,0,0,0-.12,0l-.51.13V45.2a.14.14,0,0,0-.06-.11.13.13,0,0,0-.12,0,2.16,2.16,0,0,1-.79.18,1,1,0,0,1-.4-.07,2.17,2.17,0,0,0-.84-.21h0a1.17,1.17,0,0,0,.32-.52.08.08,0,0,0,0-.09.08.08,0,0,0-.1,0l-.2.08a1.57,1.57,0,0,0,.22-.48.08.08,0,0,0,0-.09.06.06,0,0,0-.09,0,1.38,1.38,0,0,1-.21.09,2.05,2.05,0,0,0,.16-.38.14.14,0,0,0,0-.09.07.07,0,0,0-.09,0,2.6,2.6,0,0,1-.35.1,1.13,1.13,0,0,1-.22-.56c0-.15,0-.28-.16-.28s-.16.15-.18.3a1,1,0,0,1-.2.56,1.15,1.15,0,0,1-.33-.12.09.09,0,0,0-.1,0,.08.08,0,0,0,0,.09,2.05,2.05,0,0,0,.16.38,1.38,1.38,0,0,1-.21-.09.08.08,0,0,0-.1,0,.12.12,0,0,0,0,.09,2.05,2.05,0,0,0,.22.48l-.2-.08a.06.06,0,0,0-.09,0,.08.08,0,0,0,0,.09,1.15,1.15,0,0,0,.51.67,2,2,0,0,0-.77.27,2.36,2.36,0,0,1-1.22.32,2.67,2.67,0,0,1-.42,0,.12.12,0,0,0-.16.12v.34l-.44-.08a.2.2,0,0,0-.11,0,.14.14,0,0,0-.05.1s.06,2.19.08,3.57l-.74.67h0l0,0a.55.55,0,0,0-.14.42.78.78,0,0,0,.06.29l-.63.56h0a.65.65,0,0,0-.18.49.7.7,0,0,0,.49.73l7.52,2.11h.07a.12.12,0,0,0,.1,0l2.3-3a.14.14,0,0,0,0-.11.13.13,0,0,0-.07-.09.21.21,0,0,1-.11-.14m-9.3-.85a.31.31,0,0,1,.07-.24.14.14,0,0,1,.1,0l1.09.23v.69l-1-.25s-.23-.06-.24-.38m4.2-.63h0m.06.28a.11.11,0,0,0,.11,0,3.24,3.24,0,0,1,1.43-.25,12.51,12.51,0,0,1,2.1.22h0l-1.12,1.21-5.62-1.18A5.32,5.32,0,0,1,344,50.3a4.37,4.37,0,0,1,1.52.25m-2.74.34.37.08v.71l-.37-.08Zm.63.13,2.54.53v.82l-2.54-.62Zm2.8.59,1.7.36v.87l-1.71-.41Zm2,.34,1.57-1.69a1.15,1.15,0,0,0,0,.26.4.4,0,0,0,.11.19l-1.69,1.95,0-.48Zm1.46-2-.33.36V50Zm-1.14.1a.14.14,0,0,0,.11,0,.12.12,0,0,0,.05-.1c0-.87,0-2.93,0-4l.41-.1c0,.77,0,2.95,0,4h0c0,.17,0,.31,0,.41a12,12,0,0,0-2-.19,4,4,0,0,0-1.32.18,1.61,1.61,0,0,1,1.22-.37,5.92,5.92,0,0,1,1.54.24m-1.31-4.66a1.35,1.35,0,0,0,.5.09,2.26,2.26,0,0,0,.72-.13c0,.72,0,3.26,0,4.41A5.89,5.89,0,0,0,347,49.6a2.15,2.15,0,0,0-1.24.31l.08-4.46a1.24,1.24,0,0,1,.65-.21,1.86,1.86,0,0,1,.74.2m-2.48-.84a1.07,1.07,0,0,0,.33.08.07.07,0,0,0,.09,0,.09.09,0,0,0,0-.1,1.07,1.07,0,0,1-.3-.43,1.14,1.14,0,0,0,.33.08.08.08,0,0,0,.09,0,.08.08,0,0,0,0-.1.84.84,0,0,1-.21-.31,1.14,1.14,0,0,0,.25.06.06.06,0,0,0,.07,0,1.18,1.18,0,0,0,.28-.69v0h0a1.28,1.28,0,0,0,.29.68.07.07,0,0,0,.07,0l.27,0A.74.74,0,0,1,346,44a.09.09,0,0,0,0,.1.1.1,0,0,0,.09.06,1.44,1.44,0,0,0,.33-.09.93.93,0,0,1-.29.43.08.08,0,0,0,0,.1.11.11,0,0,0,.09.06,1.39,1.39,0,0,0,.34-.09,1,1,0,0,1-.89.53,1,1,0,0,1-.88-.53M343,46a2.68,2.68,0,0,0,1.36-.36,1.65,1.65,0,0,1,.81-.25.8.8,0,0,1,.38.08l-.1,4.44a2.11,2.11,0,0,0-1.09-.23,8.59,8.59,0,0,0-1.62.2l-.05-3.9.31,0m-.57.43.05,3.62a.12.12,0,0,0,0,.1.14.14,0,0,0,.11,0,8.38,8.38,0,0,1,1.72-.23,1.37,1.37,0,0,1,1.09.32A4.8,4.8,0,0,0,344,50a5.47,5.47,0,0,0-1.83.32c0-1.08-.07-3.37-.08-4l.33.05m-.51,4-.29-.06.29-.26v.32m-1.41,1.8c0-.3.14-.35.23-.35l.71.17v.84l-.65-.19s-.29-.08-.29-.47m5.32.88v1L341.63,53v-.84Zm2.34,1.66-2.17-.6v-1l2.17.52Zm.09-1.33-7.35-1.78.31-.27a.64.64,0,0,0,.24.13L348,53.13h0a.11.11,0,0,0,.08,0h0l0,0,1.66-1.92.35,0Zm.2,1.14v-1l1.83-2.13a1.06,1.06,0,0,0,0,.31.68.68,0,0,0,.13.24Z"/><path class="cls-1" d="M329.33,32a1.86,1.86,0,0,0,1.88-1.83.13.13,0,0,0,0-.06l-1.46-3.31h2.75l-.35,7H331a.13.13,0,0,0-.13.13v.58a.13.13,0,0,0,.13.13h1.09L332,36.17h-.44a.13.13,0,0,0-.09,0,.13.13,0,0,0,0,.1,1.29,1.29,0,0,0,2.58,0,.13.13,0,0,0,0-.1.15.15,0,0,0-.09,0h-.51l-.08-1.54h1.16a.13.13,0,0,0,.13-.13v-.58a.13.13,0,0,0-.13-.13h-1.2l-.36-7h2.8l-1.46,3.31a.13.13,0,0,0,0,.06,1.88,1.88,0,0,0,3.76,0,.13.13,0,0,0,0-.06l-1.75-4a.13.13,0,0,0-.12-.08h-3.24l-.05-.91a.13.13,0,0,0-.13-.12.14.14,0,0,0-.13.12l0,.91h-3.2a.13.13,0,0,0-.12.08l-1.75,4s0,0,0,.06A1.87,1.87,0,0,0,329.33,32m3.8,4.21h-.83l.8-.67Zm-.05-1-.78.65,0-.41.74-.63Zm-.22-.55-.52.43,0-.43Zm-.12,2.67a1,1,0,0,1-1-.87h2a1,1,0,0,1-1,.87m1.6-2.93h-3.2v-.32h3.2ZM333,33.79h-.61l.3-6.09Zm-3.59-7.51H336l1.7,3.87a1.62,1.62,0,0,1-3.24,0L336,26.68a.17.17,0,0,0,0-.12.14.14,0,0,0-.11-.06h-3.13a.13.13,0,0,0-.08,0,.11.11,0,0,0-.07,0h-3.09a.11.11,0,0,0-.1.06.11.11,0,0,0,0,.12L331,30.15a1.63,1.63,0,0,1-3.25,0Z"/><path class="cls-1" d="M330.62,30.21a.12.12,0,0,0,.13-.12s0-.06,0-.07l-1.28-2.95a.12.12,0,0,0-.12-.08.14.14,0,0,0-.12.08l-1.28,3a.12.12,0,0,0,0,.13.13.13,0,0,0,.11.05ZM328.24,30l1.09-2.52L330.42,30Z"/><path class="cls-1" d="M334.71,30a.15.15,0,0,0,0,.13.16.16,0,0,0,.11.05h2.58a.13.13,0,0,0,.13-.13.11.11,0,0,0,0-.06l-1.28-2.95a.13.13,0,0,0-.24,0Zm1.41-2.59L337.21,30H335Z"/><path class="cls-1" d="M339.2,40.76a.46.46,0,0,0,0-.92.46.46,0,0,0,0,.92"/><rect class="cls-2" x="311.46" y="1.13" width="0.99" height="57.03"/><polygon class="cls-3" points="24.22 10.38 17.57 14.21 8.99 19.17 8.99 23.17 8.99 29.08 8.99 39 8.99 49.37 0 44.18 0 29.08 0 13.98 13.08 6.43 24.22 0 24.22 10.38"/><polygon class="cls-2" points="50.37 45.3 39.23 51.73 26.16 59.28 17.97 54.56 17.97 44.18 26.16 48.91 34.74 43.95 41.39 40.12 50.37 45.3"/><polygon class="cls-4" points="28.1 0 39.23 6.43 52.31 13.98 52.31 29.08 52.31 41.94 43.33 36.76 43.33 29.08 43.33 19.17 34.74 14.21 28.1 10.38 28.1 0"/><polygon class="cls-5" points="26.16 19.65 30.24 22.01 34.33 24.37 34.33 29.08 34.33 33.8 30.24 36.16 26.16 38.52 22.07 36.16 17.99 33.8 17.99 29.08 17.99 24.37 22.07 22.01 26.16 19.65"/><path class="cls-2" d="M64.82,20.59h8.07c4.48,0,6.19,2.83,6.19,5.73s-1.71,5.74-6.19,5.74H68.76v6.41H64.82ZM68.76,29h3c1.81,0,3.46-.4,3.46-2.68s-1.65-2.68-3.46-2.68h-3Z"/><path class="cls-2" d="M78,38.47l8.12-17.86h4l8,17.86h-3.8l-1.76-4h-9l-1.88,4ZM88.12,24l-3,6.91h5.94L88.14,24Z"/><path class="cls-2" d="M110.08,31.86l5,6.64h-4.81l-4.51-6.44h-1.93V38.5h-4V20.59H108c4.51,0,6.24,2.83,6.24,5.73a5.36,5.36,0,0,1-4.26,5.54Zm-6.24-8.22V29h3.06c1.88,0,3.43-.43,3.43-2.71s-1.55-2.68-3.43-2.68Z"/><path class="cls-2" d="M122.05,23.9h-5.68V20.61h15.25v3.31H126V38.47h-3.93Z"/><path class="cls-2" d="M133.87,20.59h3.94V38.47h-3.94Z"/><path class="cls-2" d="M149.2,38.52a9.07,9.07,0,1,1,0-18.13A9,9,0,0,1,157.06,25c-1.52.8-1.65.88-3.35,1.71a5.21,5.21,0,0,0-4.51-2.58,5.31,5.31,0,0,0,0,10.62A5.23,5.23,0,0,0,153.86,32c1.7.87,1.75,1,3.36,1.7A9,9,0,0,1,149.2,38.52Z"/><path class="cls-2" d="M159.64,20.59h3.94V38.47h-3.94Z"/><path class="cls-2" d="M167,20.59h8.07c4.48,0,6.18,2.83,6.18,5.73s-1.7,5.74-6.18,5.74H171v6.41H167ZM171,29H174c1.8,0,3.46-.4,3.46-2.68s-1.66-2.68-3.46-2.68H171Z"/><path class="cls-2" d="M180.18,38.47l8.12-17.86h3.95l8,17.86h-3.8l-1.76-4h-9l-1.88,4ZM190.33,24l-3,6.91h5.94L190.35,24Z"/><path class="cls-2" d="M201.74,34.58h3.88v3.89h-3.88Z"/><path class="cls-2" d="M223.25,31.71c0,4.83-2.86,7.19-7.64,7.19S208,36.59,208,31.71V20.59h3.94V31.71c0,1.95.5,3.88,3.68,3.88,2.81,0,3.71-1.2,3.71-3.88V20.59h3.93Z"/><path class="cls-2" d="M234.74,38.52A9.07,9.07,0,1,1,242.61,25c-1.53.8-1.65.88-3.36,1.71a5.2,5.2,0,0,0-4.51-2.58,5.31,5.31,0,0,0,0,10.62A5.22,5.22,0,0,0,239.4,32c1.71.87,1.76,1,3.36,1.7A9,9,0,0,1,234.74,38.52Z"/><path class="cls-2" d="M257,30.81h-8.29v7.61h-3.83V20.49h3.83V27H257V20.54h3.86V38.42H257Z"/><path class="cls-2" d="M263.75,20.59h3.93V38.47h-3.93Z"/><path class="cls-2" d="M270.76,38.35V20.51h3.86V35h9.16v3.31Z"/><path class="cls-2" d="M289.34,31.33v3.81h10.1v3.31h-13.9V20.51h13v3.31h-9.24v4h8.17v3.48Z"/></g></g></svg>