<svg xmlns="http://www.w3.org/2000/svg" width="645.287" height="170.208" version="1.0"><path style="opacity:1;fill:#fff;fill-opacity:1;fill-rule:nonzero;stroke:none;stroke-width:8;stroke-linecap:round;stroke-linejoin:miter;stroke-miterlimit:4;stroke-dasharray:none;stroke-dashoffset:0;stroke-opacity:1" d="M214.713 417.583c-24.84 0-45 20.16-45 45l.347 125h40l-.347-83.156v-41.844c0-2.587 1.98-4.744 4.5-5 .168-.017.328 0 .5 0 1.38 0 2.627.564 3.532 1.469l104.942 115.135c8.146 8.146 19.393 13.188 31.813 13.188 24.84 0 45-20.16 45-45v-125h-40v125c0 .064.002.124 0 .188a5.01 5.01 0 0 1-5 4.812 4.979 4.979 0 0 1-3.531-1.469L246.526 430.771c-8.145-8.145-19.393-13.188-31.813-13.188zM420 417.375v125c0 24.84 20.16 45 45 45h170c27.814-1.313 50-24.269 50-52.406 0-28.138-22.185-51.125-50-52.438v-.156H525c-5.563-.313-10-5.79-10-12.5s4.437-12.187 10-12.5h180v130h40v-130h70v-40H525v.156c-27.815 1.313-50 24.3-50 52.438 0 28.137 22.186 51.093 50 52.406h110c5.563.313 10 5.79 10 12.5s-4.437 12.187-10 12.5H465c-2.76 0-5-2.24-5-5v-125h-40z" transform="translate(-169.713 -417.375)"/></svg>