<svg xmlns="http://www.w3.org/2000/svg" xmlns:xlink="http://www.w3.org/1999/xlink" width="1156.705" height="496.888" xml:space="preserve"><defs><path id="a" d="M0 0h47.125v19.761H0z"/><path id="b" d="m3.421 5.559 1.18-.855 1.182.855-.45-1.387 1.179-.858-1.459-.003-.452-1.386-.452 1.386-1.459.003 1.18.858z"/><path id="c" d="M0 0h47.125v19.761H0z"/><clipPath id="d"><use height="100%" width="100%" style="overflow:visible" xlink:href="#a" overflow="visible"/></clipPath></defs><path d="m130.362 120.22-2.795-13.698 10.314-9.441-13.895-1.574-5.789-12.727-5.793 12.727-13.893 1.574 10.314 9.44-2.797 13.7 12.168-6.895zm3.442 4.864-15.605-8.844-15.607 8.844 3.586-17.576-13.23-12.111 17.822-2.018 7.43-16.326 7.428 16.326 17.822 2.018-13.23 12.11zm7.986 10.994-23.766-13.465-23.766 13.465 5.461-26.764-20.15-18.441 27.143-3.076 11.313-24.861 11.314 24.86 27.141 3.077-20.15 18.44zm-4.353-6.06-4.424-21.663 16.313-14.93-21.969-2.49-9.158-20.125-9.158 20.125-21.971 2.49 16.311 14.93-4.422 21.664 19.24-10.898zm29.898 7.27c1.625 1.222-.205 3.659-1.832 2.439l-13.857-10.406a44.642 44.642 0 0 0 1.768-2.486zm43.627-4.358c1.922.666.924 3.547-.998 2.88l-52.021-18.013c.344-.951.656-1.92.932-2.904zm-76.475-86.5c.607-1.94 3.518-1.026 2.908.913l-4.898 15.61a43.983 43.983 0 0 0-2.895-.958zm30.221 19.482c1.633-1.207 3.445 1.246 1.813 2.453l-13.82 10.209a41.435 41.435 0 0 0-1.836-2.434zm11.647-41.227c1.232-1.613 3.656.232 2.424 1.85l-33.484 43.922a42.97 42.97 0 0 0-2.393-1.89zm-45.787 119.477c.973-.311 1.93-.654 2.871-1.03l5.182 15.522c.643 1.928-2.25 2.893-2.893.965zm46.572-43.266c2.031 0 2.031 3.049 0 3.049h-16.666l.004-.721c0-.78-.02-1.555-.061-2.328zm-35.069 37.578a39.89 39.89 0 0 0 2.436-1.83l32.363 43.35c1.217 1.629-1.227 3.453-2.443 1.824zm68.231-69.015c1.924-.648 2.9 2.238.975 2.89l-52.811 17.848c-.309-.973-.65-1.93-1.025-2.871zM116.536 6.525c0-2.033 3.049-2.033 3.049 0v53.8a42.613 42.613 0 0 0-3.049-.038V6.525zm-47.82 130.764 13.922-10.455c.559.852 1.148 1.68 1.766 2.486l-13.857 10.406c-1.626 1.22-3.458-1.216-1.831-2.437zm-43.629-4.36 52.088-18.036c.277.984.588 1.953.932 2.904L26.086 135.81c-1.923.665-2.919-2.215-.999-2.881zm76.475-86.498 4.885 15.564c-.98.287-1.945.607-2.895.959l-4.898-15.611c-.61-1.94 2.3-2.853 2.908-.912zM71.341 65.91l13.846 10.23c-.643.787-1.254 1.6-1.84 2.434l-13.816-10.21c-1.635-1.207.175-3.66 1.81-2.453zM59.695 24.686l33.453 43.883a43.287 43.287 0 0 0-2.395 1.889l-33.48-43.922c-1.235-1.617 1.191-3.463 2.422-1.85zm45.789 119.477-5.162 15.457c-.645 1.928-3.535.963-2.893-.965l5.184-15.521c.939.375 1.898.718 2.871 1.029zm-46.575-43.266h16.725a41.908 41.908 0 0 0-.063 2.328l.006.72H58.909c-2.031 0-2.031-3.048 0-3.048zm35.069 37.578-32.357 43.344c-1.215 1.629-3.656-.195-2.441-1.824l32.361-43.35c.788.64 1.603 1.25 2.437 1.83zM25.749 69.459 78.61 87.326a41.971 41.971 0 0 0-1.027 2.87L24.773 72.35c-1.924-.652-.95-3.54.976-2.89zm90.715 76.703c.354.01.707.016 1.063.016.666 0 1.328-.018 1.986-.047v38.477h-3.049zm-27.803 96.51L79.35 271.07h9.311zM77.007 271.07l11.654-34.158v-3.965H67.432c.412 4.32.777 8.557 1.031 12.26 1.037 15.172.521 45.268.4 51.465h8.016c1.354 0 1.744 1.252.631 2.02l-8.805 6.076c.047 2.289.238 10.67.67 15.445 1.371.709 2.217 1.137 2.195 3.025-.029 2.47-2.285 3.36-4.303 3.19H62.46l-3.178-.001s-.254-.004-.609-.063c-3.631-.592-4.713-5.098-1.105-6.125.295-4.64.348-13.186.355-15.477l-8.66-6.076c-1.104-.775-.713-2.016.637-2.016h7.566c-.133-6.342-.725-37.64.244-51.412.26-3.686.643-7.996 1.078-12.416H37.62v4.098l11.646 34.135h2.566s-.748 2.09-1.275 2.988c-3.053 5.197-8.592 7.664-14.602 7.664-7.342 0-12.131-4.531-14.879-10.652h2.676l11.65-34.143v-4.09h-6.697c-2.025 0-.594-4.4-.451-5.115.721-3.631 4.471.498 5.391 1.174 1.678.279 7.416-.561 8.93-.76 4.799-.63 10.121-1.422 12.863-1.617.479-.033 3.271-.285 4.094-.971 1.221-11.506 2.502-21.855 2.502-21.855.186-1.498 2.018-1.494 2.201.002 0 0 1.268 10.359 2.471 21.98.857.666 3.594.914 4.066.947 6.42.455 12.764 1.832 19.184 2.332.82.063 1.785.182 2.609.045 1.035-.76 2.34-2.414 3.635-2.57 2.221-.264 2.197 3.83 2.402 5.244.102.7-.387 1.268-1.098 1.268h-6.629v3.959l11.658 34.164h2.695s-.967 2.15-1.523 3.023c-2.943 4.613-7.68 7.627-13.355 7.627-7.77 0-13.379-3.67-15.877-10.65h2.534zm23.186 0-9.314-28.408v28.408zm-74.096.006h9.309v-28.387zm11.525 0h9.303l-9.303-28.377zm10.811 2.217H24.726c2.551 3.762 6.484 6.217 11.232 6.217 5.069 0 9.748-1.924 12.475-6.217zm47.494-44.27c-1.006.81-2.129 1.355-2.605 1.707h2.895c-.083-.511-.185-1.12-.29-1.707zm-8.734 1.707c-4.973-.623-11.584-1.537-16.576-1.89-1.602-.112-2.779-.345-3.648-.628l.25 2.518zm-22.075 1.3c-.328-3.573-.805-13.747-.873-14.903-.068-1.152-.215-1.88-.215-1.88l.223 81.425 2.395-.002c.119-6.076.641-36.162-.396-51.311-.274-4.008-.681-8.64-1.134-13.328zm-34.83-3.11c-.107.59-.207 1.195-.289 1.707h2.895c-.477-.352-1.6-.895-2.606-1.707zm8.733 1.707h19.988l.258-2.527c-.879.289-2.064.523-3.67.639-4.992.35-11.602 1.265-16.576 1.888zm20.789 89.287h7.314c-.371-4.49-.557-11.588-.621-14.447H60.14c-.018 2.902-.08 10.086-.33 14.447zm8.508 2.217H58.75c-.33.148-.701.254-1.066.477-.363 1.14.75 1.563 1.652 1.605H67.322l.123.01s.137.012.342.01c1.305-.027 2.258-1.252 1.209-1.77-.239-.121-.467-.221-.678-.332zm-8.692-18.881h7.375l6.32-4.361h-19.91zm2.41-6.578.225-81.381s-.096.873-.232 2.25c-.137 1.379-.898 14.36-.918 14.354-.479 4.805-.906 9.529-1.188 13.52-.967 13.75-.369 45.046-.238 51.255zm15.842-23.385c2.729 4.293 7.404 6.217 12.475 6.217 4.438 0 8.863-2.498 11.289-6.217zm66.783-60.281c.961-.051 3.02.605 2.645 1.922-.473 1.652-4.316.55-3.844-1.102.098-.348.471-.781 1.199-.82zm53.963 97.049c-.154 1.268-.111 2.443.33 3.293a338.312 338.312 0 0 0 2.957 5.553l2.006 2.955s.738.486 1.377.199c.643-.29.555-1.193.555-1.193zm-2.806-8.276-.004.168c-.029 1.8-.527 3.813-.779 5.3-.047.474-.1 1.02-.148 1.57-.139 2.53.037 4.759 1.336 7.189 1.424 2.66 2.844 3.613 3.734 3.965l-.365-.684c-1.299-2.152-2.584-4.19-3.063-6.484a6.27 6.27 0 0 1-.191-2.244c.01-.195.023-.395.043-.594.051-.473.125-.906.191-1.307.129-.75.924-3.604 1.045-4.043.092-.398.184-.82.277-1.27 1.205-5.69-.568-7.848-6.287-7.994l1.533 2.344c2.099.436 2.68 2.119 2.678 4.084zm-49.598-61.63c1.629.77 4.484 5.388 5.471 6.864l2.064-5.434c-1.143-1.797-4.729-7.975-7.086-8.682-.17.016-.344.123-.379.14-.213.237-.357.558-.545.819-.619.859-3.783 4.354-3.107 5.756.641 1.34 1.973-.224 3.582.538zm15.836 25.49c-5.342-.386-7.381-5.185-5.924-10.087l1.242-3.527c.572-1.633 1.232-3.27 1.912-4.912l.258-.662c2.236-5.352 4.543-10.816 4.375-16.631-.184-6.408-3.76-12.625-14.402-16.205-1.891-.635-9.832-2.28-11.777-.211.482 1 5.086 3.824 6.305 4.676 1.719 1.203 3.777 1.367 5.828 1.387 0 0 .719.229 1.549.633 12.271 5.973 5.725 18.355 2.469 27.563 0 0-2.604 6.992-3.189 8.766-3.188 9.639 2.479 13.94 11.502 14.264 1.379.05 2.494.053 3.338.04l-2.746-4.042zm20.996 30.11c-2.443-.308-3.789-2.435-3.533-4.862.574-5.465 4.229-9.961 4.932-15.408.449-3.48-.439-7.77-7.492-9.13a37.063 37.063 0 0 0-4.574-.421l3.23 4.895c6.107 1.508 5.25 6.854 3.309 11.393-2.33 4.969-8.588 16.205 2.25 16.672 1.289-.068 2.582-.162 3.857-.371zm-6.613-13.444.453-.98c.41-.96.781-1.938 1.02-2.882l-7.463-11.36-2.283-3.433-8.113-12.39-.516 1.347-.344.92-.951 2.707-.029.11 4.961 7.067 2.273 3.238zm10.004 18.189c-.684.137-1.375.266-1.857.328-1.328.178-3.402.28-3.402.28-8.854-.351-8.611-7.02-8.262-9.562.211-1.527 1.381-4.43 2.473-6.918l-8.273-11.773c-1.389.07-3.201.12-4.998.059-3.568-.13-8.625-.684-12.148-4.598-4.416-4.898-1.51-12.836.777-18.69-1.309-1.966-3.154-4.716-4.113-5.995-.809-1.082-1.18-1.385-1.367-1.471-.529-.254-3.17 1.467-4.633-1.58-1.428-2.973 2.211-6.242 3.582-8.434 2.895-4.64 7.994 2.625 10.549 6.762 2.271-6.846 3.174-14.086-5.273-17.225-6.328-.18-5.926-1.918-10.436-4.293-1.906-1.006-2.996-2.025-3.422-2.973-.25-.078-.477-.168-.637-.22-1.807-.593-3.014-1.312-4.453-2.522-.412-.346-.371-.648-.168-.967.234-.363.693-.703 1.189-.342 1.951 1.41 2.316 1.609 4.576 1.607 1.93-1.906 7.578-2.637 14.076-.453 15.164 5.098 18.455 15.434 14.041 28.908-.922 2.813-2.111 5.533-3.234 8.277l9.879 14.984c1.125.02 2.311.047 2.939.082 1.451.08 3.51.402 3.51.402 10.695 2.063 10.59 10.07 7.574 17.69-.176.446-.51 1.142-.896 1.98l6.125 9.326c.6-.023 1.182-.035 1.594-.027 7.104.18 9.785 3.688 8.311 10.668-.184.859-.512 1.98-.816 3.176l8.412 12.646c1.555 1.992-1.287 6.619-5.256 3.773l-.766-1.092c-2.637 1.082-6.355-3.361-7.371-5.26-1.469-2.748-1.703-5.1-1.605-7.852zm-2.079-6.965.461.66 8.16 11.578.105-.613c.096-.65.186-1.252.236-1.523l.094-.521c.031-.205.055-.37.064-.467l.037-.32-10.549-16.063-.057.125c-.441 1.102-.84 2.25-1.051 3.295l-.047.248zm-10.855 100.438c5.785-1.504 8.34 2.219 13.629 2.516 1.475.082 1.352 2.295-.125 2.213-5.221-.293-8.281-3.795-12.943-2.58-1.432.368-1.991-1.776-.561-2.15zm.084-8.256c6.197-1.447 8.166 2.334 13.557 2.623 1.477.076 1.359 2.29-.117 2.21-5.184-.274-7.959-3.835-12.936-2.675-1.44.336-1.943-1.824-.504-2.158zm-.037 16.416c6.057-1.684 8.297 2.393 13.502 2.504 1.479.033 1.43 2.25-.049 2.219-4.922-.11-8.166-3.891-12.863-2.588-1.422.396-2.016-1.741-.59-2.135zm-7.356 2.135c-4.691-1.303-7.938 2.479-12.861 2.588-1.477.03-1.523-2.186-.047-2.22 5.203-.11 7.447-4.187 13.504-2.503 1.426.394.83 2.53-.596 2.135zm.08-8.147c-3.807-.992-5.545.674-8.799 1.775a15.319 15.319 0 0 1-4.145.805c-1.475.082-1.602-2.131-.125-2.213 5.289-.297 7.844-4.02 13.627-2.516 1.433.374.872 2.518-.558 2.149zm-.027-8.246c-4.977-1.16-7.748 2.4-12.936 2.676-1.475.08-1.594-2.135-.117-2.211 5.391-.29 7.361-4.07 13.557-2.623 1.441.334.936 2.494-.504 2.158zm17.842 41.334-44.393-9.713v5.6l44.393 11.643zm-12.873-49.354V412.1c2.863-.861 5.92-1.361 8.883-1.361 3.205 0 6.443.576 9.529 1.41v-28.668c-6.281.664-9.359-4.832-13.744-4.832-1.666 0-3.221.463-4.668 1.199zm-2.217 32.172v-32.188a9.919 9.919 0 0 0-.943-.45c-.932-.37-2.203-.733-3.611-.733-4.381 0-7.826 5.52-13.779 4.848l-.018 28.393c2.699-1.006 5.703-1.311 8.555-1.311 3.093 0 6.708.42 9.796 1.44zm-.121-34.695c.51.203.926.406 1.236.57a13.289 13.289 0 0 1 4.104-1.338c.303-.064.607-.102.916-.102.291-.715.361-1.563.057-2.52-1.102 2.199-4.191.689-2.586-2.043.945-1.607 1.762-2.55 1.59-4.643-.168-2.051-1.914-3.496-3.584-4.4 0 0 .688 1.52.83 2.459.828 5.473-5.447 4.299-4.227 1.219-1.328 1.262-3.123 3.004-3.123 6.553 0 1.266.365 2.426 1.012 3.38l.385.03c1.339.128 2.507.483 3.39.835zm33.1 41.307c.109-.867.238-2.018.217-2.498-.023-.623-.037-1.262-.123-1.885l-15.764 14.645v6.563c4.375-4.49 14.861-15.258 15.203-15.676.271-.332.445-1.105.455-1.148h.012zm-11.362 34.138c5.283-6.758 18.971-24.271 19.281-24.734.664-1.002.764-4.006.482-5.893l-19.764 22.986v7.64zm-58.818-23.09v6.246l56.602 18.643v-9.01zm1.115-4.02-2.428 1.34.359.11 58.283 16.352 19.424-22.592c-1.43-.248-3.314-.568-4.723-.81-1.213 2.427-9.033 9.855-9.424 10.255-4.23 4.35-8.854 9.092-8.854 9.092l-47.252-12.395zm10.74-11.894-5.209 3.18 46.51 10.178 11.283-10.482c-1.426-.25-10.539-1.846-14.816-2.13-4.098-.274-9.844.12-11.072.208l-.197.074-.098-.03-.234-.046c-1.32-.086-6.859-.424-10.814-.205-4.535.25-15.352 2.16-15.352 2.16v-2.907zm56.157-.443-3.385-.355v3.502zm-7.965.139c.793.143 1.576.283 2.352.42v-3.377l.012-23.572h-2.363v26.529zm-45.975-3.65.105-.063-.02 4.168c.645-.107 1.494-.248 2.477-.4v-26.584h-2.563v22.88zm-13.326 8.14 11.109-6.785v-26.451h4.779v-4.164s1.867.674 2.48.742c4.438.5 7.656-3.625 11.762-4.64a8.335 8.335 0 0 1-.813-3.636c0-4.236 2.082-6.943 5.045-9.516.947-.693 1.561-.914 1.555-.934.029-.014.063-.041.063-.04a.425.425 0 0 0-.037-.046c-.633-.81-1.34-1.564-1.762-2.486-.113-.238-.568-1.92-.568-1.92s1.98.729 2.75 1.078c4.91 2.236 9.545 5.908 6.459 11.64 1.887 1.222 2.586 3.6 2.023 5.8 4.223.89 7.313 5.18 11.959 4.688.639-.068 2.496-.703 2.496-.703v4.137h4.58v26.023l5.297.557c2.039.213 2.359.994 2.568 2.912.137 1.244.146 2.439.018 3.684 1.926.328 5.92 1.008 6.668 1.158 2.719.543 1.668 8.859.766 10.213-.387.582-21.912 28.11-21.912 28.11l-64.705-21.31 4.457-2.82v-4.195l-4.785-1.438 12.68-6.998v-1.568zm-13.125-112.764c1.982-.031 2.02 2.279.039 2.31-1.98.03-2.021-2.28-.039-2.31zm-1.617 30.449a2.917 2.917 0 0 1 2.92 2.916 2.92 2.92 0 0 1-5.84 0 2.917 2.917 0 0 1 2.92-2.916zm-65.582 67.17-11.512-30.361a13.503 13.503 0 0 0 2.115-.676l11.469 30.25c.525 1.383-1.549 2.168-2.072.787zm-18.625 25.565c.043 1.64 2.324 2.44 3.297 3.686.268.342 1.357 2.063 1.801 2.063h49.852l.014 13.574c.557.902 3.91 1.314 4.555 3.389.379 1.227 1.715 2.06 2.814 2.564V428.33zm13.746-2.227-.6-2.877-2.43-3.064-3.186-8.475-3.744 9.178-2.369 2.29-.701 2.958zm-11.201-8.064 5.072-12.428 4.467 11.887-2.898-14.883c-.287-1.643-.885-1.996-1.512-1.941-1.033.1-1.344.732-1.701 2.307zm55.369-24.662c8.047 7.246 8.697 19.645 1.451 27.693a19.513 19.513 0 0 1-7.086 5.006l12.27-.01v30.55s-1.682-.427-2.139-.59c-5.137-1.833-3.408-3.778-6.123-5.1-1.408-.685-3.553-1.382-3.553-3.304v-11.328H38.698c-2.414 0-2.713-2.645-4.107-3.48-2.611-1.568-4.09-3.824-2.613-6.457l5.436-23.863c.326-1.445.906-3.768 3.654-4.025 2.49-.234 3.568 1.85 3.9 3.756l4.65 23.879 21.313-.016a19.628 19.628 0 0 1-5.658-3.566c-8.047-7.248-8.697-19.646-1.451-27.695 7.246-8.048 19.644-8.698 27.693-1.45zm-11.36 27.74a22.264 22.264 0 0 1-9.225 2.545 17.434 17.434 0 0 0 12.092 1.055 73.112 73.112 0 0 0-2.402-3.047zm11.073-11.387c-.861 1.588-1.979 3.266-3.416 5.018-1.832 2.23-3.76 3.92-5.678 5.19a63.723 63.723 0 0 1 3.08 4.015 17.335 17.335 0 0 0 6.104-4.367 17.298 17.298 0 0 0 3.947-7.4 74.787 74.787 0 0 1-3.867-2.342zm2.646-9.718c.021 2.066-.359 4.703-1.689 7.76a65.323 65.323 0 0 0 3.494 2.11 17.446 17.446 0 0 0-1.805-9.87zm-16.554-5.31c2.662-1.407 5.576-2.395 8.502-2.485a17.409 17.409 0 0 0-11.475-1.184 75.833 75.833 0 0 0 2.973 3.67zm-11.379 10.97c1.434-2.764 3.459-5.264 6.029-7.373a34.585 34.585 0 0 1 3.354-2.434 63.6 63.6 0 0 1-3.23-4.135 17.32 17.32 0 0 0-6.623 4.58 17.319 17.319 0 0 0-3.781 6.78c.588.325 2.051 1.16 3.971 2.399zm-2.514 11.144c-.094-3.197.455-6.291 1.6-9.152a62.396 62.396 0 0 0-3.832-2.318 17.434 17.434 0 0 0 2.232 11.47zm10.453-2.24-6.156 6.775c.277.035.635.072 1.063.096 3.512.199 6.852-.555 9.855-2.061a72.98 72.98 0 0 0-4.762-4.81zm9.615-10.58-8.115 8.932a69.22 69.22 0 0 1 5.281 5.307c2.018-1.303 3.85-2.96 5.436-4.893 1.041-1.268 2.203-2.98 3.203-4.902a77.132 77.132 0 0 1-5.805-4.444zm7.399-8.143-5.912 6.508a67.953 67.953 0 0 0 5.254 4.09c1.467-3.477 2.174-7.33.684-10.36l.135-.07zm-7.571 5.037 5.578-6.141c-3.348-.852-6.893.068-10.061 1.662a72.847 72.847 0 0 0 4.483 4.479zm-9.611 10.575 8.111-8.928a70.223 70.223 0 0 1-5.018-4.984 32.362 32.362 0 0 0-3.43 2.459c-2.24 1.84-4.154 4.252-5.525 6.947a75.326 75.326 0 0 1 5.862 4.506zm-7.805 8.589.102-.045 6.217-6.908a68.453 68.453 0 0 0-5.277-4.135c-1.375 3.52-1.828 7.37-.953 10.99l-.104.084zm-24.73-65.882 7 .725-5.656 4.973L44.322 367l-6.502-3.496-6.279 3.504 1.287-7.025-5.252-5.193 6.877-.576 3.357-6.46zm-1.416 2.084-1.947-3.742-1.957 3.764-3.301.275 2.664 2.635-.65 3.549 3.229-1.803 3.133 1.684-.893-3.516 2.867-2.521zm9.285 10.464 14.199 11.348c1.154.922-.229 2.654-1.383 1.732l-14.215-11.361a14 14 0 0 0 1.399-1.72zm2.166 20.956-7.955-16.13a13.72 13.72 0 0 0 1.945-1.067L53.2 386.74c.655 1.325-1.334 2.304-1.988.978zm10.086 1.707-15.732-19.15c.607-.428 1.178-.9 1.707-1.416l15.736 19.158c.939 1.14-.773 2.548-1.711 1.408zm16.016-5.721-27.939-17.441a13.9 13.9 0 0 0 1.031-1.97l28.082 17.528c1.253.783.08 2.664-1.174 1.883zm34.24-71.928a30.339 30.339 0 0 0-3.734 1.176c-9.359 3.803-15.643 13.248-15.643 25.197 0 4.223 1.113 8.096 2.977 11.477l22.119-36.695a6.074 6.074 0 0 1-2.695-.746 3.96 3.96 0 0 1-.979-.785c-.692.097-1.375.224-2.045.376zm1.076-7.59.029-103.457H18.566v129.889h65.932c2.408-14.156 12.094-22.18 26.676-25.791.481-.232.968-.443 1.456-.641zm38.815 26.432h65.967v-129.89H123.41v102.046c2.729.322 5.479 1.143 8.203 2.439 9.539 4.538 17.648 13.337 19.832 25.405zM41.529 471.838l.094-.002h58.564c4.293 0 7.977.389 11.988 2.01l.484.2V371.372c-16.086-2.393-27.088-15.318-28.578-30.002H18.566v103.05l-.004 6.429c0 15.568 7.004 20.99 16.781 20.99zm178.246-27.082-.002 6.092c0 16.625-7.826 23.346-19.137 23.346h-65.257c-5.877 0-9.281.582-14.328 3.383V371.652a38.21 38.21 0 0 1-6.035-.01l.002 105.879s-1.953-1.04-2.967-1.45c-3.791-1.53-7.809-1.878-11.865-1.878H41.622c-.787 0-1.574.006-2.359 0h-3.92c-11.309 0-19.137-6.721-19.137-23.346V339.012h67.721a30.963 30.963 0 0 1-.018-1.057c0-1.732.088-3.393.26-4.98H16.206V198.37h98.813l-.002 105.02c1.984-.543 4-.797 6.035-.771v-104.25h98.723v134.608h-67.982c.15 1.357.229 2.754.229 4.186 0 .625-.014 1.246-.043 1.863h67.797v105.73zm-21.536 27.082h2.396c9.777 0 16.781-5.422 16.781-20.99v-5.771l-.002-.314-.004-103.377h-65.624c-1.701 15.123-12.482 27.695-28.377 30.004v102.664c4.119-1.811 7.969-2.217 12.426-2.217h61.908zm-91.871-136.52c3.586-1.857 7.605-2.936 11.648-2.936 4 0 8.004 1.074 11.578 2.9l-11.604-19.25zm26.59 5.545-3.961 1.945c-2.959 2.619-7.25 4.277-11.172 4.277-3.74 0-7.834-1.463-10.553-4.107l-4.246-2.117-5.305 8.8h40.539zm7.924 8.85c1.732-3.422 2.76-7.496 2.76-12.242 0-11.514-6.152-20.45-16.168-24.551-3.352-1.367-6.127-.295-8.789-.031zm-44.326 2.166c4.996 7.172 13.475 11.61 21.188 11.61 7.852 0 16.84-3.782 21.898-11.61zm18.463-46.248.654.672.152.16.178.19c.463.493.955 1 1.188 1.57.076.13.15.26.221.394 0 0-.076.623-.236.98-.098.217-.217.42-.355.609a3.992 3.992 0 0 1-.301.365c1.994.436 5.063-.412 6.623-.625 3.338-.455 6.977 1.717 9.783 3.254 2.963 1.623 12.936 9.094 12.936 24.27 0 19.168-15.537 28.236-28.117 28.236-12.902 0-27.783-11.33-27.783-27.557 0-13.787 6.314-21.146 12.707-25.004 5.389-3.254 10.768-3.98 12.27-4.13l.027-.151c-.615-.781-1.324-1.482-2.027-2.188l-1.74.336c-16.879 3.254-25.07 15.762-25.07 30.94 0 16.526 12.939 31.597 31.955 31.597 18.992 0 31.723-14.855 31.723-32.39 0-14.458-8.605-24.933-19.143-29.944-4.823-2.291-10.491-3.084-15.645-1.584zm-3.903 37.45a8.073 8.073 0 0 1-1.258-4.341c0-.961.168-1.885.477-2.742a25.258 25.258 0 0 0-5.674 2.922l-.232.162 4.168 2.08s.338.355.711.664c.564.47 1.172.89 1.808 1.256zm14.553-7.093c.309.859.477 1.785.477 2.752a8.084 8.084 0 0 1-1.164 4.189 13.551 13.551 0 0 0 2.752-1.973l3.881-1.881-.178-.123a25.634 25.634 0 0 0-5.768-2.964zm-12.414-.791a5.888 5.888 0 0 0-1.18 3.543c0 3.262 2.652 5.91 5.928 5.91 3.273 0 5.926-2.648 5.926-5.91 0-1.348-.459-2.551-1.219-3.545a20.826 20.826 0 0 0-4.676-.541c-1.601 0-3.216.184-4.779.543zm4.957 156.69c-.557-.685-5.508-6.933-16.516-6.522 0 0-69.789.04-72.844-.01C5.973 484.2 5 458.064 5 452.787l.033-265.87h225.896s.238 267.444.035 269.358c-1.762 28.715-24.246 29.09-24.246 29.09h-71.316c-13.28 0-16.635 5.838-17.19 6.523zm-.037-4.823c3.928-4.715 11.201-5.871 16.904-5.871h69.943s1.248.037 3.123-.314c12.775-2.39 17.902-14.063 18.656-26.3.191-1.812-.023-246.454-.039-263.206H9.206L9.173 451.23c0 13.865 4.08 29.078 21.434 29.953 2.994.05 39.33.027 62.502.014l8.887-.008c6.074-.224 12.159 1.504 16.179 5.875z" style="fill:#fff"/><path d="M14.247 10.536a.168.168 0 0 0-.126.046.247.247 0 0 0-.06.113.576.576 0 0 0-.017.142v2.053c0 .443-.121.781-.363 1.015-.244.233-.584.351-1.022.351-.442 0-.783-.119-1.024-.357-.241-.236-.362-.575-.362-1.018v-2.075a.562.562 0 0 0-.027-.195c-.018-.049-.075-.073-.17-.073h-.082v-.058h1.019v.056c-.058 0-.105.002-.14.005a.15.15 0 0 0-.082.033.148.148 0 0 0-.041.082.828.828 0 0 0-.011.148v2.085c0 .336.077.603.233.797.155.196.408.293.758.293.322 0 .571-.09.747-.272.178-.184.266-.434.266-.75v-2.169a.345.345 0 0 0-.024-.138.182.182 0 0 0-.085-.084.392.392 0 0 0-.176-.03v-.056h.872v.056zM18.168 10.56a.15.15 0 0 0-.085.074.28.28 0 0 0-.027.126 4.69 4.69 0 0 0-.003.181v3.275h-.28l-2.195-3.145v2.668c0 .069 0 .128.002.178a.31.31 0 0 0 .027.123.145.145 0 0 0 .085.071c.04.014.097.021.17.021v.054h-.882v-.054a.564.564 0 0 0 .176-.021.166.166 0 0 0 .088-.068.247.247 0 0 0 .029-.12c.002-.05.003-.111.003-.184v-2.975a9.799 9.799 0 0 1-.054-.117.245.245 0 0 0-.05-.072.148.148 0 0 0-.068-.032.725.725 0 0 0-.124-.009v-.054h.724c.335.508.676 1.006 1.024 1.496.346.489.688.987 1.023 1.495v-2.53c0-.072 0-.135-.002-.187a.297.297 0 0 0-.028-.126.14.14 0 0 0-.087-.071.582.582 0 0 0-.178-.022v-.055h.887v.055a.467.467 0 0 0-.175.025M19.017 14.188v-.056c.062 0 .112-.001.15-.005a.175.175 0 0 0 .091-.029c.022-.016.036-.043.044-.079a.859.859 0 0 0 .011-.153v-3.062a.843.843 0 0 0-.011-.153.13.13 0 0 0-.044-.08.175.175 0 0 0-.091-.03 1.95 1.95 0 0 0-.15-.005v-.055h1.062v.055a1.95 1.95 0 0 0-.15.005.188.188 0 0 0-.091.03c-.022.016-.036.043-.044.08a.86.86 0 0 0-.01.153v3.062c0 .065.003.116.01.153a.13.13 0 0 0 .044.079.17.17 0 0 0 .091.029c.038.004.088.005.15.005v.056zM23.986 10.601a.673.673 0 0 0-.09.159l-1.342 3.466h-.225l-1.413-3.455a.52.52 0 0 0-.106-.168.272.272 0 0 0-.178-.068v-.055h.969v.055c-.036 0-.071.002-.104.004a.194.194 0 0 0-.082.021.085.085 0 0 0-.041.057c-.006.027.001.062.019.104l1.117 2.815 1.03-2.694c.04-.103.049-.177.027-.226-.022-.047-.091-.074-.208-.082v-.054h.79v.055c-.074 0-.128.022-.163.066M26.77 14.188h-2.496v-.056c.113 0 .184-.014.213-.046.029-.03.045-.104.045-.221v-3.062c0-.117-.016-.191-.045-.223-.029-.032-.1-.046-.213-.046v-.055h2.441l.006.563h-.076c-.018-.139-.061-.224-.129-.254a.73.73 0 0 0-.293-.047h-1.105c-.062 0-.098.006-.107.02-.01.013-.014.049-.014.106v1.254h1.111c.059 0 .109-.002.154-.008a.265.265 0 0 0 .105-.035.182.182 0 0 0 .064-.083.574.574 0 0 0 .031-.147h.072v.826h-.072a.626.626 0 0 0-.031-.152.202.202 0 0 0-.064-.085.212.212 0 0 0-.104-.039 1.328 1.328 0 0 0-.156-.008h-1.111v1.43c0 .032.01.057.029.073a.135.135 0 0 0 .072.029.316.316 0 0 0 .088.003l.078-.003h.904c.088 0 .164-.004.227-.013a.49.49 0 0 0 .311-.175.945.945 0 0 0 .115-.2h.088zM29.702 14.188a6.641 6.641 0 0 0-.264-.522 4.046 4.046 0 0 0-.619-.826 7.965 7.965 0 0 0-.41-.388l-.395.005v1.408c0 .061.004.11.012.146.006.036.02.065.037.082.018.02.045.03.082.034.037.003.084.004.143.004v.056h-.996v-.056c.055 0 .1-.001.133-.007a.152.152 0 0 0 .08-.035.135.135 0 0 0 .035-.081.869.869 0 0 0 .01-.144v-3.062a.9.9 0 0 0-.01-.143.142.142 0 0 0-.035-.082.136.136 0 0 0-.08-.036.925.925 0 0 0-.133-.008v-.053H28.6c.16 0 .314.019.463.053.148.035.277.091.391.167a.831.831 0 0 1 .271.302.945.945 0 0 1 .102.46.822.822 0 0 1-.076.364.799.799 0 0 1-.209.263 1.144 1.144 0 0 1-.299.172 1.804 1.804 0 0 1-.357.094c.105.088.191.161.256.225.066.061.125.121.174.178.049.057.098.115.145.174.047.062.104.132.17.211.072.093.143.195.209.311.064.115.127.222.184.323.055.101.107.186.154.255.049.068.094.103.139.103v.056h-.615zm-1.688-1.993h.264c.131 0 .26-.013.385-.035.127-.025.24-.066.342-.126a.715.715 0 0 0 .248-.244.736.736 0 0 0 .092-.383.653.653 0 0 0-.076-.334.548.548 0 0 0-.205-.206.9.9 0 0 0-.293-.102 2.053 2.053 0 0 0-.334-.027h-.109c-.037 0-.076.002-.115.006a.406.406 0 0 0-.113.027.237.237 0 0 0-.084.061v1.363zM30.977 14.115c-.02.017-.027.039-.027.067h-.066l-.027-.799.012-.017h.049a.984.984 0 0 0 .266.378c.112.095.229.164.354.206.123.042.25.059.379.052a.828.828 0 0 0 .346-.094.652.652 0 0 0 .252-.228.604.604 0 0 0 .096-.342.61.61 0 0 0-.129-.395 1.444 1.444 0 0 0-.32-.287 4.226 4.226 0 0 0-.418-.246 2.985 2.985 0 0 1-.42-.263 1.399 1.399 0 0 1-.32-.341.854.854 0 0 1-.127-.483c0-.144.029-.271.09-.382a.95.95 0 0 1 .238-.286c.098-.081.211-.142.338-.185a1.231 1.231 0 0 1 .612-.042 1.751 1.751 0 0 1 .284.071l.105.031.107.029c.033.01.051.014.055.014.062-.008.098-.042.104-.104h.061c.016.135.029.273.041.416.014.143.016.281.008.416h-.059a.855.855 0 0 0-.215-.345.972.972 0 0 0-.673-.28.814.814 0 0 0-.33.066.599.599 0 0 0-.248.197.546.546 0 0 0-.096.322c0 .1.027.187.08.26.053.076.115.145.189.207.094.075.195.147.301.213.105.066.213.128.322.187l-.037-.017c.119.062.236.13.348.203.111.071.211.154.299.246.088.091.156.194.207.31a.971.971 0 0 1 .078.396.829.829 0 0 1-.105.42c-.068.122-.16.226-.27.31a1.277 1.277 0 0 1-.375.191 1.41 1.41 0 0 1-.424.066c-.152 0-.299-.019-.438-.055a79.695 79.695 0 0 1-.428-.115.117.117 0 0 0-.069.032M33.594 14.188v-.056c.062 0 .113-.001.15-.005a.178.178 0 0 0 .09-.029c.023-.017.037-.043.045-.079a.786.786 0 0 0 .01-.153v-3.062a.774.774 0 0 0-.01-.153c-.008-.037-.021-.063-.045-.08a.174.174 0 0 0-.09-.03 1.93 1.93 0 0 0-.15-.005v-.055h1.062v.055a1.93 1.93 0 0 0-.15.005.18.18 0 0 0-.09.03c-.023.017-.037.043-.045.08a.774.774 0 0 0-.01.153v3.062c0 .065.002.116.01.153.008.036.021.062.045.079a.16.16 0 0 0 .09.029c.037.004.088.005.15.005v.056zM35.34 14.133c.055 0 .102-.001.137-.005a.15.15 0 0 0 .084-.033.17.17 0 0 0 .037-.082.72.72 0 0 0 .012-.148v-3.061a.72.72 0 0 0-.012-.148.174.174 0 0 0-.037-.082.137.137 0 0 0-.084-.033 1.273 1.273 0 0 0-.137-.006v-.054h1.271c.303 0 .58.037.83.112.25.074.465.189.643.342.18.152.318.348.416.581.1.233.148.508.148.827 0 .266-.043.515-.127.747a1.466 1.466 0 0 1-.438.616 1.758 1.758 0 0 1-.711.378 3.212 3.212 0 0 1-.807.104H35.34Zm.735-.339a.09.09 0 0 0 .039.076.257.257 0 0 0 .092.04.476.476 0 0 0 .111.018l.082.003c.266 0 .508-.031.727-.091.221-.061.406-.154.559-.284a1.28 1.28 0 0 0 .357-.499c.084-.202.125-.447.125-.731 0-.27-.039-.505-.119-.703a1.327 1.327 0 0 0-.344-.496 1.409 1.409 0 0 0-.535-.293 2.453 2.453 0 0 0-.705-.096c-.064 0-.133.006-.203.016a.416.416 0 0 0-.186.082zM41.342 14.188v-.055c.084 0 .146-.015.188-.047.039-.03.039-.092 0-.183l-.34-.833h-1.648l-.307.767c-.041.096-.053.168-.035.22.016.051.082.076.199.076v.055h-.766v-.055a.223.223 0 0 0 .111-.038.396.396 0 0 0 .143-.176l.047-.108 1.402-3.368h.301l1.457 3.51c.039.099.117.159.234.181v.055h-.986zm-.968-3.17-.723 1.785h1.445zM42.668 14.133c.055 0 .1-.001.137-.005a.144.144 0 0 0 .082-.033.17.17 0 0 0 .039-.082.933.933 0 0 0 .01-.148v-3.061a.933.933 0 0 0-.01-.148.166.166 0 0 0-.039-.082c-.018-.019-.047-.029-.082-.033a1.299 1.299 0 0 0-.137-.006v-.054h1.271c.303 0 .578.037.828.112.25.074.465.189.645.342.178.152.316.348.416.581.098.233.148.508.148.827 0 .266-.043.515-.127.747-.084.231-.23.437-.438.616a1.765 1.765 0 0 1-.713.378 3.197 3.197 0 0 1-.805.104h-1.227v-.055zm.735-.339c0 .031.012.059.037.076a.46.46 0 0 0 .203.058l.082.003c.268 0 .51-.031.729-.091a1.45 1.45 0 0 0 .559-.284c.154-.13.271-.296.355-.499.084-.202.127-.447.127-.731 0-.27-.041-.505-.121-.703a1.3 1.3 0 0 0-.879-.789 2.439 2.439 0 0 0-.703-.096c-.066 0-.133.006-.203.016a.416.416 0 0 0-.186.082zM11.01 19.304c.055 0 .101-.002.137-.005a.14.14 0 0 0 .082-.033.165.165 0 0 0 .038-.082.724.724 0 0 0 .012-.149v-3.06a.73.73 0 0 0-.012-.149.165.165 0 0 0-.038-.082c-.018-.018-.046-.028-.082-.031a1.251 1.251 0 0 0-.137-.007v-.054h1.271c.302 0 .579.037.829.112.25.075.465.188.644.342.178.153.317.347.416.581.098.233.148.508.148.826 0 .266-.042.516-.126.748-.084.23-.23.437-.438.616a1.762 1.762 0 0 1-.712.378 3.203 3.203 0 0 1-.805.104H11.01Zm.734-.339a.09.09 0 0 0 .038.076.262.262 0 0 0 .093.04c.037.01.074.016.11.018l.082.003c.266 0 .51-.031.728-.091a1.47 1.47 0 0 0 .559-.284c.153-.13.272-.296.356-.499.084-.202.126-.447.126-.731 0-.27-.04-.505-.121-.703a1.293 1.293 0 0 0-.342-.495 1.411 1.411 0 0 0-.537-.293 2.403 2.403 0 0 0-.703-.098c-.066 0-.134.006-.203.018a.4.4 0 0 0-.186.082zM17.275 19.359h-2.498v-.056c.114 0 .185-.015.214-.046.029-.03.044-.104.044-.222v-3.061c0-.117-.015-.191-.044-.222-.029-.032-.1-.047-.214-.047v-.055h2.443l.006.562h-.077c-.019-.138-.061-.223-.129-.253a.709.709 0 0 0-.293-.047h-1.106c-.062 0-.098.006-.107.02-.009.013-.013.048-.013.106v1.254h1.111c.059 0 .11-.003.153-.008a.254.254 0 0 0 .107-.036.161.161 0 0 0 .063-.082.575.575 0 0 0 .033-.147h.071v.826h-.071a.57.57 0 0 0-.033-.152.178.178 0 0 0-.063-.085.216.216 0 0 0-.104-.039 1.34 1.34 0 0 0-.156-.008h-1.111v1.43c0 .032.009.057.029.073.02.016.044.025.072.029a.318.318 0 0 0 .088.003l.079-.003h.903c.088 0 .164-.005.228-.013a.486.486 0 0 0 .309-.175.866.866 0 0 0 .115-.2h.088zM21.856 19.324a2.19 2.19 0 0 1-.66.102 2.05 2.05 0 0 1-.78-.14 1.676 1.676 0 0 1-.583-.393 1.684 1.684 0 0 1-.368-.604 2.312 2.312 0 0 1-.126-.78c0-.274.044-.529.132-.764a1.81 1.81 0 0 1 .375-.613c.162-.174.358-.309.586-.406.228-.096.483-.145.764-.145.194 0 .387.021.58.064a.598.598 0 0 0 .085.025l.107.03a.79.79 0 0 0 .104.026c.033.009.06.013.082.013.07 0 .114-.033.132-.1h.06v.203a8.67 8.67 0 0 1-.013.45 1.059 1.059 0 0 1-.031.191 1.544 1.544 0 0 0-.427-.474c-.157-.108-.361-.162-.613-.162-.245 0-.457.045-.635.135-.179.09-.326.209-.441.358-.115.15-.201.325-.258.526-.056.2-.085.412-.085.635 0 .23.03.445.088.646.058.201.147.375.266.524.118.147.268.264.449.349.18.087.395.13.643.13.088 0 .183-.003.285-.006.102-.004.203-.013.304-.029.1-.018.196-.042.288-.077a.818.818 0 0 0 .246-.146l.022.094c-.176.157-.368.27-.578.338M25.051 19.359v-.056c.059 0 .105-.003.143-.007a.14.14 0 0 0 .082-.037.154.154 0 0 0 .039-.079.693.693 0 0 0 .01-.145V17.6h-1.791v1.435c0 .062.003.111.009.145a.132.132 0 0 0 .035.079c.019.02.045.031.08.037.034.004.081.007.14.007v.056h-1.003v-.056c.059 0 .106-.003.143-.007a.143.143 0 0 0 .082-.037.14.14 0 0 0 .038-.079.68.68 0 0 0 .011-.145v-3.061a.71.71 0 0 0-.011-.146.154.154 0 0 0-.038-.079.143.143 0 0 0-.082-.037 1.33 1.33 0 0 0-.143-.007v-.055h1.003v.055c-.059 0-.105.003-.14.007a.146.146 0 0 0-.08.037.139.139 0 0 0-.035.082.91.91 0 0 0-.009.143v1.347h1.791v-1.347a.721.721 0 0 0-.01-.146.163.163 0 0 0-.039-.079.146.146 0 0 0-.082-.037 1.33 1.33 0 0 0-.143-.007v-.055h1.008v.055c-.059 0-.105.003-.141.007a.173.173 0 0 0-.082.037.137.137 0 0 0-.037.082.928.928 0 0 0-.008.143v3.061c0 .062.002.111.008.145a.133.133 0 0 0 .037.079c.021.02.049.031.082.037.035.004.082.007.141.007v.056zM26.743 19.359v-.056c.062 0 .113-.002.152-.005a.178.178 0 0 0 .09-.029c.022-.016.035-.043.043-.079a.765.765 0 0 0 .012-.154v-3.061a.747.747 0 0 0-.012-.153c-.008-.037-.021-.064-.043-.08a.169.169 0 0 0-.09-.029 1.554 1.554 0 0 0-.152-.006v-.055h1.062v.055c-.061 0-.111.002-.15.006a.178.178 0 0 0-.09.029c-.022.015-.037.043-.043.08a.747.747 0 0 0-.012.153v3.061c0 .066.004.117.012.154a.12.12 0 0 0 .043.079.169.169 0 0 0 .09.029c.039.003.09.005.15.005v.056zM30.959 19.359H28.49v-.056c.059 0 .105-.003.139-.007a.14.14 0 0 0 .08-.037.138.138 0 0 0 .035-.079.908.908 0 0 0 .008-.145v-3.061a.936.936 0 0 0-.008-.143.156.156 0 0 0-.035-.082.136.136 0 0 0-.08-.037 1.195 1.195 0 0 0-.139-.007v-.055h1.008v.055c-.059 0-.107.003-.143.007a.16.16 0 0 0-.084.037.134.134 0 0 0-.041.079.685.685 0 0 0-.012.146v3.018c0 .032.01.057.029.073a.145.145 0 0 0 .072.029.308.308 0 0 0 .086.003l.08-.003h.799c.1 0 .188-.004.264-.01a.617.617 0 0 0 .203-.052.462.462 0 0 0 .156-.126c.045-.057.09-.133.133-.229l.072.018zM33.879 19.359h-2.498v-.056c.113 0 .184-.015.215-.046.027-.03.043-.104.043-.222v-3.061c0-.117-.016-.191-.043-.222-.031-.032-.102-.047-.215-.047v-.055h2.443l.006.562h-.078c-.018-.138-.061-.223-.129-.253a.7.7 0 0 0-.293-.047h-1.105c-.062 0-.098.006-.107.02a.253.253 0 0 0-.014.106v1.254h1.113c.057 0 .109-.003.152-.008a.26.26 0 0 0 .107-.036.17.17 0 0 0 .062-.082.675.675 0 0 0 .033-.147h.07v.826h-.07a.72.72 0 0 0-.033-.152.198.198 0 0 0-.062-.085.216.216 0 0 0-.105-.039 1.316 1.316 0 0 0-.154-.008h-1.113v1.43c0 .032.01.057.031.073.02.017.043.025.07.029a.319.319 0 0 0 .088.003l.08-.003h.902c.088 0 .164-.005.229-.013a.493.493 0 0 0 .309-.175.866.866 0 0 0 .115-.2h.088z" clip-path="url(#d)" style="fill:#fff" transform="matrix(25.00004 0 0 25.00004 2.303 .478)"/></svg>