<?xml version="1.0" encoding="utf-8"?>
<!-- Generator: Adobe Illustrator 15.1.0, SVG Export Plug-In . SVG Version: 6.00 Build 0)  -->
<!DOCTYPE svg PUBLIC "-//W3C//DTD SVG 1.1//EN" "http://www.w3.org/Graphics/SVG/1.1/DTD/svg11.dtd">
<svg version="1.1" id="Capa_1" xmlns="http://www.w3.org/2000/svg" xmlns:xlink="http://www.w3.org/1999/xlink" x="0px" y="0px"
	 width="200px" height="115.286px" viewBox="0 0 200 115.286" enable-background="new 0 0 200 115.286" xml:space="preserve">
<g>
	<g>
		<path fill="#FCE804" d="M37.196,112.984c-0.671,0.305-1.359,0.59-2.024,0.896c-1.543,0.715-3.134,0.395-4.682,0.301
			c-0.758-0.045-1.517-0.641-2.226-1.084c-2.18-1.363-3.924-3.223-5.65-5.08c-2.302-2.475-4.472-5.07-6.663-7.645
			c-2.281-2.681-4.518-5.398-6.763-8.109c-1.526-1.844-3.002-3.731-4.482-5.614c-0.957-1.22-1.859-2.483-2.826-3.692
			c-0.238-0.3-0.181-0.857-0.733-0.896V47.95c0.495,0.005,0.364-0.383,0.372-0.64c0.058-2.01,0.147-4.021,0.128-6.031
			c-0.013-1.484,0.239-2.942,0.256-4.423c0.008-0.738,0.064-1.489,0.116-2.233c0.149-2.217,0.312-4.428,0.472-6.644
			c0.116-1.589,0.177-3.185,0.373-4.764c0.237-1.891,0.373-3.792,0.615-5.683c0.223-1.739,0.475-3.472,0.729-5.204
			C4.423,10.854,4.731,9.39,5.054,7.93c0.31-1.404,0.689-2.787,1.184-4.125C6.426,3.293,6.65,2.76,6.954,2.267
			c0.32-0.519,0.896-0.839,1.064-1.455h6.515c-0.042,0.364,0.222,0.361,0.461,0.369c2.888,0.102,5.757,0.466,8.63,0.745
			c2.359,0.229,4.724,0.503,7.085,0.735c2.305,0.227,4.614,0.492,6.917,0.726c2.081,0.21,4.188,0.304,6.249,0.729
			c0.134,0.029,0.272,0.022,0.413,0.029c1.725,0.088,3.432,0.373,5.148,0.556c2.012,0.219,4.031,0.373,6.038,0.639
			c1.674,0.223,3.355,0.357,5.03,0.568c1.11,0.141,2.228,0.242,3.34,0.375c2.181,0.26,4.357,0.571,6.543,0.783
			c1.484,0.145,2.674,0.822,3.76,1.77c0.255,0.532,0.721,0.914,1,1.44c0.753,1.431,0.722,2.943,0.422,4.44
			c-0.383,1.917-0.528,3.861-0.76,5.789c-0.244,2.01-0.493,4.024-0.714,6.039c-0.226,2.053-0.405,4.113-0.696,6.159
			c-0.164,1.15-0.172,2.324-0.369,3.465c-0.349,2.016-0.377,4.067-0.718,6.085c-0.161,0.948-0.1,1.935-0.282,2.877
			c-0.317,1.662-0.302,3.357-0.573,5.024c-0.203,1.262-0.188,2.558-0.394,3.817c-0.341,2.082-0.488,4.184-0.722,6.274
			c-0.227,2.013-0.44,4.033-0.669,6.043c-0.259,2.264-0.496,4.535-0.757,6.8c-0.283,2.462-0.546,4.929-0.801,7.393
			c-0.262,2.522-0.56,5.042-0.884,7.557c-0.161,1.24-0.615,2.362-1.556,3.283c-1.37,1.331-2.736,2.66-4.178,3.914
			c-1.137,0.988-2.129,2.144-3.28,3.112c-2.968,2.496-5.916,5.016-9.059,7.295c-1.479,1.07-2.968,2.131-4.489,3.145
			C42.286,110.373,39.711,111.623,37.196,112.984 M69.263,18.957c0.179-1.358-0.27-2.712-0.983-3.978
			c-0.347-0.616-0.902-1.147-1.585-1.338c-0.727-0.203-1.495-0.331-2.238-0.43c-1.314-0.176-2.642-0.331-3.952-0.452
			c-1.803-0.167-3.577-0.522-5.381-0.636c-0.432-0.028-0.879-0.011-1.29-0.12c-1.757-0.462-3.593-0.304-5.355-0.736
			C47.277,10.975,46.024,11,44.8,10.842c-1.903-0.249-3.802-0.602-5.729-0.693c-0.373-0.019-0.752-0.01-1.113-0.124
			c-1.684-0.519-3.47-0.275-5.18-0.726c-1.219-0.323-2.528-0.189-3.793-0.478c-1.35-0.308-2.768-0.203-4.144-0.5
			c-1.046-0.225-2.167-0.111-3.205-0.36c-1.587-0.381-3.221-0.309-4.82-0.677c-1.124-0.26-2.35-0.316-3.564-0.149
			c-0.869,0.122-1.573,0.458-2.18,1.018c-0.256,0.236-0.539,0.549-0.552,0.943c-0.05,1.456-0.246,2.893-0.413,4.341
			c-0.226,1.966-0.207,3.952-0.474,5.929c-0.288,2.135-0.188,4.311-0.497,6.465c-0.327,2.269-0.1,4.589-0.49,6.875
			c-0.319,1.856-0.09,3.763-0.316,5.646c-0.139,1.172-0.267,2.364-0.287,3.551c-0.041,2.42-0.241,4.829-0.41,7.241
			c-0.264,3.78-0.302,7.575-0.452,11.364c-0.17,4.236-0.327,8.501,0.128,12.748c0.1,0.912,0.243,1.833,0.231,2.761
			c-0.012,1.178,0.575,2.144,1.129,3.112c0.567,0.995,1.223,1.943,1.764,2.951c0.666,1.24,1.458,2.401,2.196,3.596
			c0.686,1.111,1.449,2.182,2.184,3.265c0.903,1.325,1.845,2.618,2.813,3.893c0.937,1.227,2.007,2.348,3.008,3.521
			c1.654,1.939,3.557,3.604,5.521,5.206c1.308,1.07,2.738,1.957,4.201,2.795c0.728,0.416,1.472,0.85,2.295,1.016
			c1.059,0.211,2.143,0.342,3.227,0.234c0.782-0.076,1.592-0.107,2.328-0.346c1.103-0.355,2.215-0.697,3.269-1.227
			c0.778-0.395,1.595-0.742,2.333-1.193c1.379-0.844,2.722-1.744,4.021-2.715c2.178-1.625,4.209-3.417,6.159-5.298
			c2.619-2.525,5.037-5.241,7.276-8.109c0.396-0.508,0.895-1.01,1.068-1.594c0.221-0.742,0.379-1.531,0.46-2.306
			c0.149-1.444,0.205-2.889,0.452-4.335c0.279-1.636,0.18-3.323,0.503-4.979c0.312-1.611,0.162-3.277,0.467-4.914
			c0.32-1.725,0.146-3.521,0.519-5.255c0.26-1.218,0.078-2.468,0.301-3.704c0.429-2.392,0.451-4.835,0.717-7.25
			c0.179-1.614,0.385-3.235,0.494-4.857c0.114-1.745,0.335-3.478,0.508-5.216c0.146-1.479,0.224-2.963,0.454-4.433
			c0.202-1.28,0.103-2.594,0.355-3.873c0.375-1.911,0.424-3.863,0.63-5.79c0.209-1.973,0.659-3.926,0.647-5.925
			c0-0.095,0.04-0.193,0.068-0.287C69.189,21.05,69.316,20.079,69.263,18.957"/>
		<path fill="#142873" d="M37.197,112.984c2.513-1.361,5.088-2.611,7.473-4.197c1.521-1.014,3.011-2.074,4.487-3.145
			c3.143-2.279,6.091-4.799,9.059-7.295c1.15-0.969,2.144-2.124,3.28-3.112c1.442-1.254,2.811-2.583,4.178-3.914
			c0.94-0.921,1.395-2.043,1.556-3.283c0.322-2.515,0.624-5.034,0.882-7.557c0.257-2.465,0.521-4.932,0.803-7.393
			c0.26-2.265,0.498-4.536,0.757-6.801c0.23-2.009,0.442-4.029,0.669-6.042c0.234-2.09,0.381-4.192,0.722-6.274
			c0.208-1.259,0.189-2.555,0.394-3.817c0.271-1.667,0.255-3.362,0.574-5.024c0.181-0.943,0.121-1.93,0.281-2.877
			c0.343-2.018,0.37-4.069,0.719-6.085c0.197-1.141,0.207-2.315,0.369-3.465c0.291-2.046,0.472-4.106,0.696-6.159
			c0.223-2.015,0.471-4.028,0.714-6.039c0.231-1.928,0.377-3.873,0.76-5.789c0.3-1.498,0.329-3.009-0.424-4.44
			c-0.278-0.526-0.744-0.908-0.998-1.44c0.315-0.215,0.679-0.157,0.967-0.029c1.188,0.53,2.332,1.122,3.162,2.188
			c1.038,1.336,1.399,2.815,1.107,4.47c-0.308,1.763-0.563,3.535-0.743,5.315c-0.198,1.975-0.426,3.952-0.697,5.916
			c-0.195,1.404-0.177,2.829-0.458,4.213c-0.398,1.932-0.32,3.915-0.731,5.844c-0.164,0.766-0.048,1.572-0.209,2.351
			c-0.406,1.946-0.313,3.955-0.712,5.901c-0.185,0.893-0.151,1.805-0.241,2.706c-0.111,1.085-0.363,2.147-0.427,3.243
			c-0.124,2.116-0.415,4.22-0.672,6.321c-0.17,1.382-0.165,2.786-0.448,4.15c-0.316,1.511-0.258,3.054-0.483,4.565
			c-0.387,2.584-0.559,5.19-0.921,7.772c-0.315,2.241-0.428,4.502-0.81,6.735c-0.15,0.868-0.09,1.775-0.26,2.64
			c-0.379,1.945-0.238,3.966-0.839,5.87c-0.264,0.827-0.823,1.51-1.459,2.106c-1.862,1.748-3.683,3.536-5.596,5.223
			c-2.153,1.898-4.367,3.724-6.588,5.539c-1.245,1.014-2.537,1.975-3.847,2.904c-1.686,1.195-3.38,2.379-5.123,3.488
			c-1.429,0.906-2.895,1.773-4.418,2.51c-1.559,0.748-3.162,1.436-4.828,1.93C38.336,112.865,37.784,113.064,37.197,112.984"/>
		<path fill="#142873" d="M69.263,18.958c0.053,1.121-0.073,2.092-0.352,3.042c-0.03,0.094-0.068,0.191-0.068,0.288
			c0.012,1.999-0.437,3.951-0.647,5.924c-0.206,1.929-0.255,3.878-0.631,5.79c-0.252,1.279-0.155,2.59-0.354,3.873
			c-0.229,1.471-0.31,2.953-0.455,4.431c-0.171,1.739-0.391,3.472-0.508,5.217c-0.107,1.623-0.312,3.243-0.492,4.857
			c-0.267,2.417-0.289,4.859-0.718,7.25c-0.223,1.238-0.04,2.485-0.301,3.704c-0.372,1.733-0.198,3.53-0.518,5.255
			c-0.304,1.639-0.155,3.303-0.467,4.917c-0.323,1.653-0.223,3.342-0.503,4.977c-0.245,1.444-0.303,2.89-0.452,4.335
			c-0.081,0.774-0.24,1.564-0.46,2.306c-0.174,0.584-0.671,1.086-1.068,1.592c-2.239,2.87-4.657,5.585-7.276,8.111
			c-1.951,1.881-3.979,3.673-6.159,5.298c-1.301,0.969-2.643,1.872-4.02,2.715c-0.741,0.455-1.558,0.801-2.336,1.193
			c-1.053,0.531-2.165,0.871-3.268,1.227c-0.736,0.238-1.547,0.27-2.328,0.348c-1.084,0.105-2.169-0.025-3.228-0.236
			c-0.823-0.166-1.567-0.6-2.297-1.016c-1.462-0.838-2.89-1.725-4.2-2.793c-1.964-1.604-3.866-3.268-5.519-5.207
			c-1.002-1.178-2.072-2.296-3.008-3.523c-0.972-1.273-1.911-2.566-2.814-3.892c-0.737-1.083-1.499-2.153-2.184-3.265
			c-0.737-1.194-1.531-2.354-2.196-3.598c-0.54-1.009-1.196-1.954-1.767-2.949c-0.554-0.969-1.139-1.935-1.126-3.113
			c0.01-0.926-0.133-1.848-0.23-2.76c-0.457-4.247-0.3-8.512-0.13-12.748c0.15-3.788,0.188-7.584,0.452-11.363
			c0.169-2.413,0.369-4.822,0.41-7.24c0.02-1.188,0.148-2.382,0.289-3.553c0.226-1.885-0.002-3.791,0.314-5.647
			c0.39-2.287,0.164-4.606,0.49-6.876c0.309-2.154,0.208-4.329,0.496-6.464c0.268-1.976,0.248-3.963,0.475-5.931
			c0.167-1.445,0.362-2.884,0.413-4.34c0.013-0.393,0.295-0.707,0.552-0.943c0.606-0.56,1.311-0.896,2.182-1.016
			c1.213-0.171,2.438-0.111,3.562,0.147c1.6,0.369,3.233,0.297,4.82,0.678c1.037,0.249,2.16,0.137,3.204,0.36
			c1.377,0.297,2.797,0.192,4.144,0.5c1.265,0.289,2.576,0.155,3.793,0.476c1.713,0.452,3.496,0.208,5.181,0.729
			c0.361,0.112,0.739,0.104,1.113,0.12c1.926,0.094,3.825,0.446,5.729,0.695c1.224,0.159,2.479,0.134,3.679,0.426
			c1.763,0.431,3.599,0.274,5.355,0.736c0.411,0.109,0.858,0.091,1.288,0.118c1.806,0.118,3.582,0.47,5.383,0.638
			c1.311,0.121,2.638,0.274,3.952,0.45c0.744,0.101,1.511,0.229,2.239,0.431c0.682,0.191,1.238,0.723,1.585,1.338
			C68.995,16.245,69.441,17.599,69.263,18.958 M23.208,19.021c0-0.316,0.002-0.631,0-0.947c-0.009-0.835-0.341-1.261-1.159-1.474
			c-0.361-0.094-0.729-0.163-1.09-0.259c-0.946-0.255-1.626,0.319-1.578,1.299c0.081,1.614,0.125,3.228,0.197,4.842
			c0.069,1.601-0.123,3.191-0.119,4.79c0.007,2.023-0.271,4.03-0.442,6.042c-0.121,1.408-0.28,2.813-0.43,4.219
			c-0.259,2.428-0.598,4.844-0.889,7.268c-0.214,1.777-0.514,3.543-0.693,5.324c-0.193,1.898-0.411,3.797-0.682,5.678
			c-0.32,2.221-0.437,4.456-0.676,6.679c-0.24,2.229-0.495,4.459-0.751,6.684c-0.25,2.165-0.469,4.337-0.729,6.5
			c-0.209,1.73-0.281,3.489-0.145,5.242c0.05,0.647,0.344,1.045,0.96,1.253c1.009,0.339,2.036,0.611,3.077,0.818
			c1.6,0.315,3.211,0.571,4.822,0.834c1.861,0.303,3.75,0.373,5.6,0.732c0.799,0.156,1.616,0.063,2.413,0.202
			c2.58,0.454,5.2,0.454,7.797,0.736c2.501,0.271,5.03,0.199,7.548,0.344c2.261,0.133,4.532,0.013,6.795-0.127
			c1.078-0.066,2.157-0.163,3.19-0.539c0.291-0.108,0.507-0.25,0.681-0.52c0.922-1.433,0.161-2.683-1.068-3.342
			c-1.516-0.815-3.202-1.093-4.899-1.103c-2.425-0.013-4.85-0.055-7.277,0.054c-2.362,0.104-4.732-0.021-7.096,0.129
			c-1.657,0.104-3.307-0.138-4.965-0.116c-2.05,0.028-4.086-0.14-6.125-0.37c-1.96-0.218-3.896-0.499-5.793-1.055
			c-0.575-0.171-0.776-0.455-0.744-1.007c0.069-1.118-0.038-2.236,0.114-3.36c0.159-1.183,0.014-2.381,0.186-3.584
			c0.211-1.456,0.132-2.949,0.194-4.426c0.027-0.589,0.031-1.19,0.161-1.761c0.362-1.582,0.222-3.208,0.487-4.8
			c0.214-1.296,0.205-2.63,0.425-3.925c0.329-1.937,0.422-3.897,0.679-5.843c0.298-2.24,0.516-4.5,0.79-6.744
			c0.283-2.322,0.377-4.66,0.725-6.976c0.243-1.608,0.219-3.251,0.338-4.88c0.168-2.275,0.226-4.56,0.271-6.841
			C23.348,22.802,23.372,20.908,23.208,19.021 M47.754,44.565c-0.057,0.588,0.175,1.134,0.225,1.693
			c0.108,1.219,0.703,2.046,1.728,2.642c0.617,0.359,2.025,0.447,2.378,0.039c0.447-0.516,0.761-1.101,0.841-1.826
			c0.159-1.435-0.32-2.78-0.617-4.121c-0.299-1.336-0.354-2.648-0.375-3.984c-0.037-2.222-0.037-4.446,0.389-6.64
			c0.17-0.879,0.109-1.767,0.188-2.65c0.144-1.633,0.422-3.252,0.016-4.92c-0.271-1.112-0.673-1.937-1.737-2.448
			c-0.847-0.41-1.129-0.407-1.699,0.333c-0.73,0.948-1.412,1.922-2.062,2.929c-1.082,1.675-2.21,3.323-3.384,4.936
			c-1.169,1.605-2.508,3.065-4.131,4.235c-0.333,0.239-0.688,0.334-0.96-0.199c-0.195-0.375-0.431-0.734-0.618-1.118
			c-0.341-0.704-0.651-1.426-0.76-2.193c-0.135-0.937-0.469-1.823-0.673-2.739c-0.108-0.489-0.237-1.032-0.477-1.492
			c-0.562-1.083-1.327-1.994-2.547-2.374c-1.207-0.379-2.074-0.181-2.232,1.283c-0.099,0.915-0.354,1.807-0.277,2.748
			c0.11,1.326-0.335,2.572-0.774,3.786c-0.179,0.494-0.267,1.032-0.519,1.487c-0.372,0.669-0.547,1.404-0.838,2.101
			c-0.247,0.595-0.407,1.239-0.67,1.808c-0.333,0.717-0.547,1.472-0.758,2.204c-0.333,1.141-0.674,2.305-0.652,3.52
			c0.028,1.562-0.015,2.886,1.749,3.77c1.329,0.666,2.127,0.349,2.202-1.106c0.074-1.423,0.457-2.792,0.643-4.193
			c0.177-1.348,0.474-2.697,0.749-4.038c0.296-1.446,0.886-2.79,1.18-4.226c0.057-0.28,0.31-0.467,0.596-0.512
			c0.265-0.042,0.347,0.196,0.462,0.385c0.487,0.807,0.756,1.687,1.053,2.579c0.338,1.01,0.401,2.064,0.732,3.079
			c0.324,0.987,0.718,1.832,1.484,2.518c0.765,0.681,1.99,0.696,2.753,0.033c1.26-1.092,2.173-2.474,3.121-3.812
			c1.345-1.898,2.562-3.89,4.043-5.692c0.241-0.291,0.412-0.893,0.815-0.785c0.394,0.107,0.223,0.686,0.283,1.065
			c0.338,2.189,0.124,4.377-0.229,6.526C48.098,40.981,48.093,42.793,47.754,44.565 M38.766,49.622
			c-2.244,0.027-4.407,0.396-6.425,1.458c-1.229,0.646-2.34,1.397-2.842,2.76c-0.242,0.665-0.459,1.347-0.583,2.042
			c-0.242,1.345-0.184,2.679,0.52,3.902c0.848,1.479,2.33,2.241,3.689,3.111c0.668,0.43,1.462,0.669,2.21,0.96
			c1.596,0.615,3.219,1.171,4.72,2.013c1.07,0.6,2.137,1.221,2.84,2.266c0.219,0.328,0.633,0.748,0.38,1.131
			c-0.908,1.383-2.151,2.251-3.874,2.406c-1.283,0.113-2.365-0.457-3.448-0.926c-1.436-0.618-2.665-1.626-3.915-2.558
			c-0.785-0.587-1.512-1.25-2.245-1.897c-0.247-0.217-0.349-0.23-0.501,0.092c-0.708,1.487-0.465,2.927,0.238,4.31
			c0.616,1.213,1.557,2.158,2.688,2.921c0.982,0.66,2.038,1.184,3.146,1.58c1.711,0.605,3.491,0.748,5.297,0.675
			c1.743-0.07,3.345-0.545,4.717-1.623c1.015-0.796,1.825-1.774,2.327-2.997c0.688-1.68,0.562-3.28-0.452-4.762
			c-0.899-1.311-2.094-2.317-3.469-3.137c-1.221-0.729-2.495-1.321-3.814-1.812c-1.745-0.649-3.576-1.069-5.226-1.979
			c-1.366-0.752-2.106-2.177-0.728-3.612c1.275-1.323,2.908-1.867,4.639-2.255c1.686-0.375,3.06,0.158,4.238,1.339
			c0.447,0.448,0.9,0.886,1.411,1.257c0.795,0.574,1.634,0.946,2.646,0.632c0.352-0.111,0.519-0.326,0.571-0.671
			c0.286-1.905-0.788-4.052-2.485-5.062C43.1,50.036,40.999,49.578,38.766,49.622"/>
		<path fill="#FCE804" d="M23.208,19.021c0.163,1.888,0.14,3.782,0.1,5.671c-0.046,2.282-0.103,4.568-0.272,6.843
			c-0.119,1.626-0.097,3.271-0.337,4.879c-0.348,2.316-0.442,4.653-0.725,6.976c-0.274,2.243-0.491,4.502-0.79,6.745
			c-0.257,1.945-0.35,3.905-0.679,5.842c-0.22,1.295-0.209,2.629-0.426,3.922c-0.265,1.593-0.125,3.221-0.486,4.803
			c-0.131,0.57-0.135,1.172-0.161,1.762c-0.062,1.476,0.016,2.969-0.193,4.425c-0.174,1.203-0.029,2.403-0.188,3.584
			c-0.152,1.124-0.045,2.242-0.114,3.36c-0.033,0.553,0.169,0.836,0.744,1.006c1.897,0.557,3.833,0.838,5.793,1.056
			c2.039,0.23,4.077,0.398,6.125,0.37c1.658-0.022,3.31,0.221,4.965,0.116c2.364-0.151,4.733-0.025,7.095-0.129
			c2.427-0.108,4.853-0.066,7.278-0.054c1.698,0.01,3.384,0.287,4.9,1.103c1.229,0.657,1.99,1.909,1.067,3.34
			c-0.172,0.271-0.389,0.412-0.68,0.521c-1.033,0.377-2.111,0.472-3.19,0.539c-2.264,0.141-4.534,0.261-6.796,0.128
			c-2.517-0.145-5.045-0.072-7.547-0.344c-2.597-0.282-5.218-0.282-7.797-0.736c-0.795-0.139-1.614-0.046-2.412-0.202
			c-1.851-0.359-3.739-0.43-5.601-0.732c-1.611-0.263-3.223-0.519-4.824-0.834c-1.04-0.207-2.066-0.479-3.075-0.818
			c-0.617-0.208-0.911-0.605-0.96-1.253c-0.136-1.753-0.064-3.512,0.145-5.24c0.261-2.165,0.479-4.337,0.728-6.502
			c0.258-2.225,0.513-4.454,0.754-6.684c0.237-2.222,0.355-4.457,0.675-6.678c0.271-1.882,0.489-3.78,0.682-5.678
			c0.18-1.782,0.479-3.549,0.693-5.326c0.291-2.425,0.63-4.841,0.889-7.269c0.15-1.404,0.309-2.809,0.43-4.22
			c0.172-2.011,0.45-4.015,0.442-6.042c-0.004-1.596,0.188-3.19,0.118-4.788c-0.071-1.614-0.115-3.23-0.194-4.843
			c-0.05-0.979,0.63-1.554,1.576-1.298c0.361,0.096,0.729,0.165,1.089,0.259c0.819,0.213,1.151,0.64,1.16,1.474
			C23.21,18.388,23.208,18.706,23.208,19.021"/>
		<path fill="#FCE804" d="M47.754,44.565c0.338-1.772,0.345-3.583,0.639-5.373c0.352-2.147,0.567-4.336,0.229-6.526
			c-0.06-0.378,0.112-0.958-0.283-1.064c-0.404-0.108-0.574,0.494-0.814,0.787c-1.481,1.8-2.698,3.792-4.043,5.69
			c-0.949,1.338-1.862,2.721-3.122,3.814c-0.765,0.662-1.987,0.646-2.753-0.035c-0.766-0.685-1.16-1.53-1.482-2.52
			c-0.332-1.013-0.396-2.067-0.734-3.078c-0.298-0.891-0.566-1.771-1.055-2.578c-0.112-0.188-0.195-0.427-0.458-0.385
			c-0.288,0.045-0.541,0.231-0.598,0.513c-0.292,1.433-0.884,2.779-1.178,4.224c-0.276,1.341-0.573,2.69-0.751,4.037
			c-0.185,1.403-0.567,2.771-0.641,4.193c-0.075,1.457-0.875,1.773-2.202,1.107c-1.762-0.882-1.721-2.207-1.751-3.77
			c-0.021-1.215,0.32-2.381,0.651-3.518c0.213-0.733,0.427-1.487,0.76-2.206c0.265-0.568,0.425-1.212,0.672-1.808
			c0.289-0.696,0.466-1.433,0.838-2.1c0.253-0.458,0.34-0.994,0.518-1.488c0.439-1.214,0.885-2.46,0.776-3.786
			c-0.077-0.941,0.176-1.833,0.276-2.746c0.155-1.466,1.025-1.664,2.231-1.285c1.221,0.382,1.986,1.291,2.548,2.376
			c0.24,0.459,0.368,1.002,0.477,1.491c0.205,0.916,0.538,1.802,0.671,2.74c0.111,0.767,0.421,1.489,0.762,2.192
			c0.188,0.386,0.423,0.744,0.618,1.118c0.273,0.533,0.628,0.438,0.96,0.197c1.623-1.168,2.961-2.629,4.13-4.234
			c1.175-1.611,2.303-3.26,3.383-4.936c0.651-1.005,1.333-1.981,2.063-2.929c0.57-0.74,0.852-0.743,1.699-0.334
			c1.064,0.511,1.466,1.339,1.737,2.45c0.406,1.668,0.128,3.287-0.016,4.921c-0.08,0.882-0.019,1.77-0.188,2.649
			c-0.426,2.194-0.426,4.419-0.39,6.642c0.021,1.334,0.077,2.648,0.376,3.982c0.297,1.34,0.777,2.686,0.617,4.12
			c-0.081,0.724-0.395,1.311-0.842,1.826c-0.354,0.409-1.76,0.321-2.379-0.037c-1.023-0.596-1.619-1.424-1.726-2.643
			C47.93,45.699,47.699,45.154,47.754,44.565"/>
		<path fill="#FCE804" d="M38.766,49.622c2.233-0.044,4.334,0.414,6.273,1.564c1.697,1.009,2.771,3.156,2.485,5.062
			c-0.052,0.345-0.219,0.56-0.571,0.671c-1.012,0.314-1.851-0.058-2.646-0.632c-0.511-0.371-0.964-0.809-1.411-1.257
			c-1.178-1.181-2.552-1.714-4.238-1.339c-1.73,0.388-3.363,0.932-4.639,2.255c-1.378,1.436-0.639,2.86,0.728,3.612
			c1.649,0.909,3.48,1.329,5.226,1.979c1.319,0.491,2.593,1.084,3.814,1.812c1.375,0.819,2.57,1.826,3.469,3.137
			c1.014,1.481,1.141,3.082,0.452,4.762c-0.502,1.223-1.312,2.201-2.327,2.997c-1.372,1.078-2.974,1.553-4.717,1.623
			c-1.806,0.073-3.586-0.069-5.297-0.675c-1.109-0.396-2.165-0.92-3.146-1.58c-1.131-0.763-2.072-1.708-2.688-2.921
			c-0.704-1.383-0.946-2.822-0.238-4.31c0.152-0.322,0.255-0.309,0.501-0.092c0.733,0.647,1.46,1.311,2.245,1.897
			c1.25,0.932,2.479,1.939,3.915,2.558c1.083,0.469,2.165,1.039,3.448,0.926c1.723-0.155,2.966-1.023,3.874-2.406
			c0.253-0.383-0.161-0.803-0.38-1.131c-0.703-1.045-1.77-1.666-2.84-2.266c-1.501-0.842-3.124-1.397-4.72-2.013
			c-0.748-0.291-1.542-0.53-2.21-0.96c-1.359-0.87-2.841-1.633-3.689-3.111c-0.703-1.224-0.761-2.558-0.52-3.902
			c0.124-0.696,0.341-1.378,0.583-2.042c0.501-1.363,1.613-2.113,2.842-2.76C34.359,50.018,36.522,49.649,38.766,49.622"/>
	</g>
	<g>
		<path fill="#142873" d="M90.072,17.184h1.602v11.325h4.17v1.384h-5.771V17.184z"/>
		<path fill="#142873" d="M97.721,17.184h1.603v12.709h-1.603V17.184z"/>
		<path fill="#142873" d="M109.866,29.638c-0.764,0.237-1.566,0.382-2.312,0.382c-4.024,0-5.718-3.058-5.718-6.5
			c0-3.969,2.312-6.463,5.626-6.463c0.91,0,1.82,0.164,2.403,0.455v1.566c-0.691-0.437-1.493-0.637-2.386-0.637
			c-2.075,0-3.968,1.656-3.968,4.751c0,3.277,1.311,5.444,4.078,5.444c0.819,0,1.62-0.219,2.275-0.601V29.638z"/>
		<path fill="#142873" d="M112.381,17.184h5.918v1.384h-4.314v4.042h4.114v1.384h-4.114v4.515h4.552v1.384h-6.155V17.184z"/>
		<path fill="#142873" d="M125.292,17.057c2.823,0,4.625,2.421,4.625,6.354c0,4.388-1.767,6.608-4.771,6.608
			c-2.821,0-4.625-2.421-4.625-6.353C120.521,19.279,122.289,17.057,125.292,17.057z M125.146,28.709
			c1.676,0,3.097-1.384,3.097-5.298c0-2.567-0.803-5.044-2.951-5.044c-1.674,0-3.095,1.384-3.095,5.299
			C122.197,26.233,122.999,28.709,125.146,28.709z"/>
		<path fill="#142873" d="M90.072,34.969h5.917v1.384h-4.315v4.042h4.115v1.384h-4.115v4.515h4.552v1.384h-6.153V34.969z"/>
		<path fill="#142873" d="M101.309,40.959l-3.405-5.991h1.894l2.658,4.679l2.549-4.679h1.766l-3.55,6.008l3.787,6.7h-1.894
			l-2.986-5.298l-2.858,5.298h-1.821L101.309,40.959z"/>
		<path fill="#142873" d="M108.758,34.969h3.058c1.275,0,2.075,0.347,2.749,0.983c0.638,0.62,1.001,1.511,1.001,2.622
			c0,2.476-1.438,3.787-4.132,3.787h-1.075v5.316h-1.601V34.969z M110.358,41.05h0.875c1.948,0,2.657-0.91,2.657-2.331
			c0-1.748-0.982-2.439-2.621-2.439h-0.911V41.05z"/>
		<path fill="#142873" d="M117.754,34.969h5.918v1.384h-4.315v4.042h4.115v1.384h-4.115v4.515h4.552v1.384h-6.154V34.969z"/>
		<path fill="#142873" d="M126.424,34.969h3.26c1.346,0,2.093,0.328,2.676,0.874c0.655,0.619,0.945,1.493,0.945,2.422
			c0,1.347-0.636,2.64-2.512,3.04v0.036c0.764,0.146,1.129,0.51,1.384,1.239l1.785,5.097h-1.73l-1.457-4.296
			c-0.363-1.056-0.818-1.458-2.021-1.458h-0.729v5.754h-1.602V34.969z M128.025,40.613h1.239c1.709,0,2.367-1.129,2.367-2.24
			c0-1.42-0.93-2.093-2.331-2.093h-1.275V40.613z"/>
		<path fill="#142873" d="M136.112,34.969h1.602v12.708h-1.602V34.969z"/>
		<path fill="#142873" d="M140.758,34.969h2.475l3.188,10.105h0.035l3.26-10.105h2.402v12.708h-1.528v-10.96h-0.037l-3.604,10.96
			h-1.165l-3.46-10.96h-0.037v10.96h-1.527V34.969z"/>
		<path fill="#142873" d="M155.163,34.969h5.917v1.384h-4.315v4.042h4.113v1.384h-4.113v4.515h4.552v1.384h-6.153V34.969z"/>
		<path fill="#142873" d="M163.832,34.969h1.983l4.79,10.487h0.035V34.969h1.529v12.708h-1.983l-4.789-10.414h-0.037v10.414h-1.528
			V34.969z"/>
		<path fill="#142873" d="M177.053,36.353h-2.913v-1.384h7.429v1.384h-2.913v11.324h-1.603V36.353z"/>
		<path fill="#142873" d="M187.47,34.969l4.15,12.708h-1.674l-1.02-3.313h-4.843l-1.02,3.313h-1.603l4.26-12.708H187.47z
			 M188.508,42.98l-1.948-6.336h-0.037l-2.003,6.336H188.508z"/>
		<path fill="#142873" d="M193.409,34.969h1.601v11.325h4.17v1.384h-5.771V34.969z"/>
		<path fill="#142873" d="M90.072,52.753h2.476l3.187,10.104h0.036l3.259-10.104h2.404v12.709h-1.53V54.501h-0.037l-3.604,10.961
			h-1.166l-3.459-10.961h-0.036v10.961h-1.529V52.753z"/>
		<path fill="#142873" d="M109.229,52.753l4.151,12.709h-1.676l-1.02-3.313h-4.843l-1.02,3.313h-1.601l4.26-12.709H109.229z
			 M110.268,60.764l-1.949-6.335h-0.036l-2.002,6.335H110.268z"/>
		<path fill="#142873" d="M115.168,52.753h1.984l4.789,10.486h0.036V52.753h1.528v12.709h-1.982l-4.789-10.415h-0.037v10.415h-1.529
			V52.753z"/>
		<path fill="#142873" d="M134.526,60.783c0,1.257-0.074,1.949-0.511,2.841c-0.527,1.057-1.638,1.966-3.477,1.966
			c-1.84,0-2.95-0.909-3.478-1.966c-0.438-0.892-0.51-1.584-0.51-2.841v-8.029h1.602v8.267c0,1.984,0.874,3.259,2.386,3.259
			c1.511,0,2.386-1.274,2.386-3.259v-8.267h1.602V60.783z"/>
		<path fill="#142873" d="M137.569,52.753h5.918v1.384h-4.315v4.042h4.115v1.385h-4.115v4.515h4.553v1.384h-6.155V52.753z"/>
		<path fill="#142873" d="M146.239,52.753h1.602v11.325h4.17v1.384h-5.771V52.753z"/>
		<path fill="#142873" d="M89.89,70.538h2.768c1.692,0,2.658,0.401,3.386,0.911c1.129,0.783,2.349,2.386,2.349,5.243
			c0,3.679-1.748,6.556-6.518,6.556H89.89V70.538z M91.493,81.863h0.964c2.804,0,4.261-1.912,4.261-5.171
			c0-2.658-1.129-4.77-4.261-4.77h-0.964V81.863z"/>
		<path fill="#142873" d="M100.763,70.538h5.917v1.385h-4.314v4.042h4.114v1.384h-4.114v4.515h4.552v1.385h-6.154V70.538z"/>
		<path fill="#142873" d="M119.282,72.378c-0.602-0.366-1.385-0.584-2.167-0.584c-1.202,0-1.983,0.819-1.983,1.895
			c0,0.817,0.327,1.329,2.147,2.384c1.967,1.129,2.622,2.239,2.622,3.697c0,2.021-1.257,3.604-3.696,3.604
			c-1.02,0-1.984-0.219-2.658-0.547v-1.655c0.729,0.436,1.675,0.818,2.422,0.818c1.438,0,2.257-0.966,2.257-2.002
			c0-0.984-0.255-1.549-1.967-2.586c-2.292-1.383-2.802-2.166-2.802-3.806c0-2.093,1.601-3.187,3.531-3.187
			c0.837,0,1.729,0.184,2.294,0.419V72.378z"/>
		<path fill="#142873" d="M127.113,70.538l4.152,12.71h-1.676l-1.02-3.314h-4.843l-1.021,3.314h-1.601l4.26-12.71H127.113z
			 M128.15,78.549l-1.947-6.335h-0.037l-2.002,6.335H128.15z"/>
		<path fill="#142873" d="M133.053,70.538h1.603v11.325h4.17v1.385h-5.772V70.538z"/>
		<path fill="#142873" d="M145.452,70.538l4.152,12.71h-1.675l-1.02-3.314h-4.843l-1.02,3.314h-1.604l4.261-12.71H145.452z
			 M146.492,78.549l-1.948-6.335h-0.037l-2.003,6.335H146.492z"/>
		<path fill="#142873" d="M156.637,72.378c-0.603-0.366-1.385-0.584-2.168-0.584c-1.202,0-1.983,0.819-1.983,1.895
			c0,0.817,0.327,1.329,2.146,2.384c1.968,1.129,2.623,2.239,2.623,3.697c0,2.021-1.256,3.604-3.695,3.604
			c-1.021,0-1.985-0.219-2.66-0.547v-1.655c0.73,0.436,1.676,0.818,2.423,0.818c1.438,0,2.258-0.966,2.258-2.002
			c0-0.984-0.256-1.549-1.968-2.586c-2.292-1.383-2.803-2.166-2.803-3.806c0-2.093,1.602-3.187,3.532-3.187
			c0.838,0,1.729,0.184,2.295,0.419V72.378z"/>
	</g>
</g>
</svg>
