<?xml version="1.0" encoding="UTF-8"?>
<svg width="183px" height="117px" viewBox="0 0 183 117" version="1.1" xmlns="http://www.w3.org/2000/svg" xmlns:xlink="http://www.w3.org/1999/xlink">
    <!-- Generator: Sketch 58 (84663) - https://sketch.com -->
    <title>Group 18</title>
    <desc>Created with Sketch.</desc>
    <g id="Simbolos" stroke="none" stroke-width="1" fill="none" fill-rule="evenodd">
        <g id="HEADER" transform="translate(-376.000000, -65.000000)" fill="#000000">
            <g id="Group-18" transform="translate(376.000000, 65.000000)">
                <path d="M0.119974576,116.521093 L182.256254,116.521093 L182.256254,98.9978644 L0.119974576,98.9978644 L0.119974576,116.521093 Z M13.3489068,109.30378 C13.3489068,111.748881 11.7535424,113.031915 9.15772881,113.031915 C6.60752542,113.031915 4.96754237,111.748881 4.96754237,109.30378 L4.96754237,102.964958 L5.07165254,102.859856 L6.71064407,102.666508 L6.81475424,102.770619 L6.81475424,109.168932 C6.81475424,110.689932 7.83007627,111.376068 9.15772881,111.376068 C10.5448729,111.376068 11.4997119,110.689932 11.4997119,109.168932 L11.4997119,102.964958 L11.603822,102.859856 L13.2447966,102.666508 L13.3489068,102.770619 L13.3489068,109.30378 Z M24.9011695,112.748339 L24.7970593,112.852449 L23.2899407,112.852449 L23.1560847,112.763212 L18.9192966,106.693093 L18.3987458,105.798737 L18.3987458,112.748339 L18.2946356,112.852449 L16.653661,112.852449 L16.5495508,112.748339 L16.5495508,102.950085 L16.653661,102.844983 L18.1449153,102.666508 L18.2787712,102.726 L22.484822,108.7515 L23.0509831,109.706339 L23.0509831,102.964958 L23.1560847,102.859856 L24.7970593,102.666508 L24.9011695,102.770619 L24.9011695,112.748339 Z M30.0442119,112.748339 L29.9401017,112.852449 L28.2981356,112.852449 L28.1940254,112.748339 L28.1940254,102.964958 L28.2981356,102.859856 L29.9401017,102.666508 L30.0442119,102.770619 L30.0442119,112.748339 Z M41.6391102,102.770619 L38.0002119,112.748339 L37.8951102,112.852449 L36.1212712,112.659102 L36.017161,112.554992 L32.526,102.964958 L32.6311017,102.859856 L34.435678,102.666508 L34.5397881,102.770619 L36.777661,109.675602 L37.0453729,110.660186 L37.3150678,109.675602 L39.4914661,102.964958 L39.5955763,102.859856 L41.535,102.666508 L41.6391102,102.770619 Z M45.9641441,108.393559 L45.9641441,111.212466 L49.9758559,111.212466 L50.0660847,111.331449 L49.8568729,112.763212 L49.7378898,112.852449 L44.2190593,112.852449 L44.1149492,112.748339 L44.1149492,102.889602 L44.2190593,102.785492 L49.9312373,102.785492 L50.036339,102.889602 L50.036339,104.322356 L49.9312373,104.426466 L45.9641441,104.426466 L45.9641441,106.752585 L49.4543136,106.752585 L49.528678,106.872559 L49.1558644,108.319195 L49.0220085,108.393559 L45.9641441,108.393559 Z M60.1865847,111.331449 L59.9476271,112.763212 L59.8435169,112.867322 C59.7542797,112.882195 59.4558305,112.898059 59.3209831,112.898059 C57.9497034,112.898059 57.2179576,111.868856 57.0692288,111.629898 L55.3390169,108.960712 L55.1902881,108.870483 L54.7728559,108.870483 L54.7728559,112.748339 L54.6677542,112.852449 L53.0277712,112.852449 L52.9226695,112.748339 L52.9226695,102.889602 L53.0277712,102.785492 L55.9507881,102.785492 C57.7999831,102.785492 59.6789237,103.560864 59.6789237,105.843356 C59.6789237,108.438178 57.1882119,108.7515 57.1882119,108.7515 L57.6066356,109.258169 L58.6636017,110.780161 C58.7845678,110.958636 59.0968983,111.286831 59.6045593,111.286831 C59.9020169,111.286831 60.0814831,111.227339 60.0814831,111.227339 L60.1865847,111.331449 Z M64.7466102,105.574653 C64.7466102,106.335153 65.5507373,106.663347 66.4004746,106.976669 C67.6845,107.43872 69.2045085,108.065364 69.2045085,109.988924 C69.2045085,112.316034 67.2660763,113.031915 65.6707119,113.031915 C63.9553729,113.031915 62.5533559,111.972966 62.5533559,111.972966 L62.5236102,111.823246 L63.4030932,110.660186 L63.551822,110.645314 C63.9851186,110.988381 64.8655932,111.390941 65.6707119,111.390941 C66.5650678,111.390941 67.3265593,111.018127 67.3265593,110.003797 C67.3265593,109.139186 66.4758305,108.810992 65.5656102,108.467924 C64.3133136,107.991 62.866678,107.423847 62.866678,105.619271 C62.866678,103.755203 64.3737966,102.636763 66.1476356,102.636763 C67.937339,102.636763 69.0557797,103.516246 69.0557797,103.516246 L69.0855254,103.665966 L68.2952797,104.873644 L68.1445678,104.90339 C68.1445678,104.90339 67.371178,104.276746 66.2071271,104.276746 C65.2076695,104.276746 64.7466102,104.814153 64.7466102,105.574653 L64.7466102,105.574653 Z M73.8617034,112.748339 L73.7566017,112.852449 L72.1166186,112.852449 L72.0125085,112.748339 L72.0125085,102.964958 L72.1166186,102.859856 L73.7566017,102.666508 L73.8617034,102.770619 L73.8617034,112.748339 Z M85.0659407,109.154059 C85.0659407,111.615025 83.4408305,112.852449 80.8747627,112.852449 L77.2358644,112.852449 L77.1307627,112.748339 L77.1307627,102.889602 L77.2358644,102.785492 L80.8747627,102.785492 C83.4408305,102.785492 85.0659407,104.083398 85.0659407,106.514619 L85.0659407,109.154059 Z M95.8745593,112.748339 L95.7694576,112.852449 L94.0551102,112.852449 L93.9500085,112.748339 L93.1895085,110.466839 L89.6101017,110.466839 L88.8496017,112.748339 L88.7454915,112.852449 L87.0301525,112.852449 L86.9260424,112.748339 L90.4300932,102.964958 L90.5351949,102.859856 L92.1890593,102.666508 L92.2951525,102.770619 L95.8745593,112.748339 Z M106.291525,109.154059 C106.291525,111.615025 104.665424,112.852449 102.101339,112.852449 L98.4614492,112.852449 L98.357339,112.748339 L98.357339,102.889602 L98.4614492,102.785492 L102.101339,102.785492 C104.665424,102.785492 106.291525,104.083398 106.291525,106.514619 L106.291525,109.154059 Z M120.523881,109.154059 C120.523881,111.615025 118.89778,112.852449 116.332703,112.852449 L112.693805,112.852449 L112.588703,112.748339 L112.588703,102.889602 L112.693805,102.785492 L116.332703,102.785492 C118.89778,102.785492 120.523881,104.083398 120.523881,106.514619 L120.523881,109.154059 Z M125.373432,108.393559 L125.373432,111.212466 L129.385144,111.212466 L129.474381,111.331449 L129.266161,112.763212 L129.146186,112.852449 L123.628347,112.852449 L123.524237,112.748339 L123.524237,102.889602 L123.628347,102.785492 L129.340525,102.785492 L129.444636,102.889602 L129.444636,104.322356 L129.340525,104.426466 L125.373432,104.426466 L125.373432,106.752585 L128.863602,106.752585 L128.936975,106.872559 L128.565153,108.319195 L128.431297,108.393559 L125.373432,108.393559 Z M143.541153,110.630441 C143.541153,110.630441 142.930373,113.031915 139.530432,113.031915 C136.965356,113.031915 135.324381,111.748881 135.324381,109.30378 L135.324381,106.409517 C135.324381,103.948551 136.965356,102.636763 139.530432,102.636763 C142.632915,102.636763 143.378542,104.933136 143.378542,104.933136 L143.318059,105.067983 L141.856551,105.678763 L141.707822,105.634144 C141.707822,105.634144 141.140669,104.276746 139.530432,104.276746 C138.187907,104.276746 137.203322,105.038237 137.203322,106.514619 L137.203322,109.183805 C137.203322,110.704805 138.187907,111.390941 139.530432,111.390941 C141.453992,111.390941 141.871424,110.003797 141.871424,110.003797 L142.021144,109.959178 L143.482653,110.496585 L143.541153,110.630441 Z M154.708703,112.748339 L154.604593,112.852449 L152.963619,112.852449 L152.858517,112.748339 L152.858517,108.408432 L148.146788,108.408432 L148.146788,112.748339 L148.042678,112.852449 L146.401703,112.852449 L146.297593,112.748339 L146.297593,102.964958 L146.401703,102.859856 L148.042678,102.666508 L148.146788,102.770619 L148.146788,106.767458 L152.858517,106.767458 L152.858517,102.964958 L152.963619,102.859856 L154.604593,102.666508 L154.708703,102.770619 L154.708703,112.748339 Z M159.850754,112.748339 L159.746644,112.852449 L158.105669,112.852449 L158.001559,112.748339 L158.001559,102.964958 L158.105669,102.859856 L159.746644,102.666508 L159.850754,102.770619 L159.850754,112.748339 Z M169.325771,111.331449 L168.952958,112.778085 L168.81811,112.852449 L163.225907,112.852449 L163.121797,112.748339 L163.121797,102.964958 L163.225907,102.859856 L164.86589,102.666508 L164.970992,102.770619 L164.970992,111.212466 L169.251407,111.212466 L169.325771,111.331449 Z M173.635932,108.393559 L173.635932,111.212466 L177.646653,111.212466 L177.737873,111.331449 L177.528661,112.763212 L177.409678,112.852449 L171.890847,112.852449 L171.786737,112.748339 L171.786737,102.889602 L171.890847,102.785492 L177.603025,102.785492 L177.707136,102.889602 L177.707136,104.322356 L177.603025,104.426466 L173.635932,104.426466 L173.635932,106.752585 L177.126102,106.752585 L177.200466,106.872559 L176.827653,108.319195 L176.693797,108.393559 L173.635932,108.393559 Z M118.643949,109.035076 L118.643949,106.633602 C118.643949,105.142347 117.675229,104.426466 116.332703,104.426466 L114.436907,104.426466 L114.436907,111.212466 L116.332703,111.212466 C117.675229,111.212466 118.643949,110.541203 118.643949,109.035076 L118.643949,109.035076 Z M104.412585,109.035076 L104.412585,106.633602 C104.412585,105.142347 103.442873,104.426466 102.101339,104.426466 L100.206534,104.426466 L100.206534,111.212466 L102.101339,111.212466 C103.442873,111.212466 104.412585,110.541203 104.412585,109.035076 L104.412585,109.035076 Z M90.1326356,108.915102 L92.6679661,108.915102 L91.6685085,105.91772 L91.3998051,104.933136 L91.1311017,105.91772 L90.1326356,108.915102 Z M83.187,109.035076 L83.187,106.633602 C83.187,105.142347 82.2172881,104.426466 80.8747627,104.426466 L78.9809492,104.426466 L78.9809492,111.212466 L80.8747627,111.212466 C82.2172881,111.212466 83.187,110.541203 83.187,109.035076 L83.187,109.035076 Z M55.9805339,107.319737 C57.0246102,107.319737 57.8297288,106.917178 57.8297288,105.843356 C57.8297288,104.769534 57.0246102,104.366975 55.9805339,104.366975 L54.7728559,104.366975 L54.7728559,107.319737 L55.9805339,107.319737 Z" id="Fill-1"/>
                <path d="M49.7848881,46.3570856 L50.9142356,46.3570856 L50.9905831,46.2807381 L50.9905831,41.7018737 L54.3944898,41.7018737 L54.4857102,41.6255263 L54.7603627,40.5576534 L54.6998797,40.4813059 L50.9905831,40.4813059 L50.9905831,37.2757042 L54.9279305,37.2757042 L55.004278,37.1993568 L55.004278,36.1314839 L54.9279305,36.0551364 L49.7848881,36.0551364 L49.7085407,36.1314839 L49.7085407,46.2807381 L49.7848881,46.3570856 Z M60.4656,46.3570856 L61.7020322,46.3570856 L61.7783797,46.2807381 L62.6023373,43.8237381 L66.860939,43.8237381 L67.6997695,46.2807381 L67.7919814,46.3570856 L69.0125492,46.3570856 L69.0581593,46.2807381 L65.4410746,36.0243992 L65.3498542,35.9629246 L64.0678119,36.1314839 L63.9765915,36.2078314 L60.4199898,46.2807381 L60.4656,46.3570856 Z M64.5863797,37.9628314 L64.7390746,37.3064415 L64.8917695,37.9628314 L66.4792017,42.6636534 L62.9989475,42.6636534 L64.5863797,37.9628314 Z M76.3894983,45.5708059 C77.1063712,46.2172805 78.0810407,46.5405178 79.3125153,46.5405178 C80.2584305,46.5405178 81.0516508,46.3551025 81.6931678,45.9832805 C82.3336932,45.61245 82.7818627,45.065128 83.0356932,44.3423059 L82.9900831,44.2510856 L81.9985576,43.8693483 L81.8914729,43.9000856 C81.4532186,44.8460008 80.5945576,45.3189585 79.3125153,45.3189585 C78.4974814,45.3189585 77.8470407,45.0958653 77.3582186,44.6476958 C76.8703881,44.2005178 76.6254814,43.5391703 76.6254814,42.6636534 L76.6254814,39.7941788 C76.6254814,38.9394839 76.8723712,38.281111 77.3661508,37.8180686 C77.858939,37.3550263 78.5083881,37.1230093 79.3125153,37.1230093 C79.8509136,37.1230093 80.334778,37.2449669 80.7621254,37.4898737 C81.1894729,37.733789 81.5037864,38.0699161 81.7080407,38.4972636 L81.8151254,38.5270093 L82.8373881,38.0996619 L82.8839898,38.0084415 C82.6083458,37.3371788 82.1552186,36.8176195 81.5246085,36.4517466 C80.8939983,36.0858737 80.1563034,35.9024415 79.3125153,35.9024415 C78.0909559,35.9024415 77.119261,36.2306364 76.3974305,36.8870263 C75.6736169,37.5434161 75.3136932,38.4764415 75.3136932,39.6870941 L75.3136932,42.8004839 C75.3136932,44.0022127 75.6716339,44.9253229 76.3894983,45.5708059 L76.3894983,45.5708059 Z M91.0878712,45.5787381 C91.7958203,46.2192636 92.7704898,46.5405178 94.0108881,46.5405178 C95.2621932,46.5405178 96.2398373,46.2192636 96.9418373,45.5787381 C97.6438373,44.9372212 97.9948373,44.012128 97.9948373,42.8004839 L97.9948373,36.0243992 L97.9184898,35.9629246 L96.7891424,36.1156195 L96.7127949,36.2078314 L96.7127949,42.6636534 C96.7127949,43.5391703 96.4708627,44.2005178 95.9879898,44.6476958 C95.5051169,45.0958653 94.8457525,45.3189585 94.0108881,45.3189585 C93.2077525,45.3189585 92.5563203,45.0958653 92.0575831,44.6476958 C91.5598373,44.2005178 91.3099729,43.5391703 91.3099729,42.6636534 L91.3099729,36.0243992 L91.2336254,35.9629246 L90.104278,36.1156195 L90.0279305,36.2078314 L90.0279305,42.8004839 C90.0279305,44.012128 90.3819051,44.9372212 91.0878712,45.5787381 L91.0878712,45.5787381 Z M105.6276,46.3570856 L110.924329,46.3570856 L111.015549,46.2807381 L111.290202,45.2128653 L111.228727,45.1365178 L106.833295,45.1365178 L106.833295,36.0243992 L106.756947,35.9629246 L105.6276,36.1156195 L105.551253,36.2078314 L105.551253,46.2807381 L105.6276,46.3570856 Z M119.000303,46.3570856 L120.129651,46.3570856 L120.205998,46.2807381 L120.205998,37.2757042 L122.937651,37.2757042 L123.028871,37.1993568 L123.303524,36.1314839 L123.243041,36.0551364 L116.084227,36.0551364 L116.008871,36.1314839 L116.008871,37.1993568 L116.084227,37.2757042 L118.923956,37.2757042 L118.923956,46.2807381 L119.000303,46.3570856 Z M127.92899,46.3570856 L129.164431,46.3570856 L129.240778,46.2807381 L130.065727,43.8237381 L134.323337,43.8237381 L135.163159,46.2807381 L135.25438,46.3570856 L136.474947,46.3570856 L136.521549,46.2807381 L132.904464,36.0243992 L132.812253,35.9629246 L131.53021,36.1314839 L131.43899,36.2078314 L127.882388,46.2807381 L127.92899,46.3570856 Z M132.049769,37.9628314 L132.201473,37.3064415 L132.354168,37.9628314 L133.9416,42.6636534 L130.462337,42.6636534 L132.049769,37.9628314 Z M143.427524,46.3570856 L146.846303,46.3570856 C148.077778,46.3570856 149.054431,46.0348398 149.776261,45.3883653 C150.499083,44.7418907 150.859998,43.8187805 150.859998,42.6180432 L150.859998,39.839789 C150.859998,38.6291364 150.4971,37.696111 149.76932,37.0397212 C149.041541,36.3833314 148.066871,36.0551364 146.846303,36.0551364 L143.427524,36.0551364 L143.351176,36.1314839 L143.351176,46.2807381 L143.427524,46.3570856 Z M144.633219,37.2757042 L146.846303,37.2757042 C147.650431,37.2757042 148.301863,37.5077212 148.799608,37.9707636 C149.298346,38.4338059 149.547219,39.0921788 149.547219,39.9468737 L149.547219,42.4802212 C149.547219,43.3557381 149.30132,44.0170856 148.807541,44.4642636 C148.313761,44.9124331 147.660346,45.1365178 146.846303,45.1365178 L144.633219,45.1365178 L144.633219,37.2757042 Z M162.247668,46.3570856 L165.666447,46.3570856 C166.897922,46.3570856 167.874575,46.0348398 168.597397,45.3883653 C169.319227,44.7418907 169.681134,43.8187805 169.681134,42.6180432 L169.681134,39.839789 C169.681134,38.6291364 169.316253,37.696111 168.589464,37.0397212 C167.861685,36.3833314 166.888007,36.0551364 165.666447,36.0551364 L162.247668,36.0551364 L162.17132,36.1314839 L162.17132,46.2807381 L162.247668,46.3570856 Z M163.453363,37.2757042 L165.666447,37.2757042 C166.470575,37.2757042 167.122007,37.5077212 167.620744,37.9707636 C168.11849,38.4338059 168.368354,39.0921788 168.368354,39.9468737 L168.368354,42.4802212 C168.368354,43.3557381 168.121464,44.0170856 167.627685,44.4642636 C167.133905,44.9124331 166.48049,45.1365178 165.666447,45.1365178 L163.453363,45.1365178 L163.453363,37.2757042 Z M177.099727,46.3570856 L182.227897,46.3570856 L182.319117,46.2807381 L182.471812,45.2128653 L182.411329,45.1365178 L178.305422,45.1365178 L178.305422,41.5491788 L181.556634,41.5491788 L181.647854,41.4728314 L181.922507,40.4049585 L181.862024,40.328611 L178.305422,40.328611 L178.305422,37.2757042 L182.395464,37.2757042 L182.471812,37.1993568 L182.471812,36.1314839 L182.395464,36.0551364 L177.099727,36.0551364 L177.02338,36.1314839 L177.02338,46.2807381 L177.099727,46.3570856 Z" id="Fill-3"/>
                <path d="M49.7127051,68.7240153 L49.8386288,68.849939 L51.9129,68.849939 L52.0398153,68.7240153 L52.9599508,65.9646 L57.2889508,65.9646 L58.2080949,68.7240153 L58.3350102,68.849939 L60.4092814,68.849939 L60.5352051,68.7240153 L56.2062051,56.6571508 L56.0802814,56.5312271 L54.0774,56.7652271 L53.9514763,56.8911508 L49.7127051,68.7240153 Z M53.590561,64.0886339 L54.7992305,60.4626254 L55.1244508,59.2727949 L55.4486797,60.4626254 L56.6573492,64.0886339 L53.590561,64.0886339 Z M62.7294508,68.7240153 L62.8553746,68.849939 L64.8404085,68.849939 L64.9663322,68.7240153 L64.9663322,64.0341 L65.4710186,64.0341 L65.6514763,64.1421763 L67.7435949,67.3715746 C67.9240525,67.6601085 68.8084932,68.9044729 70.4673153,68.9044729 C70.6299254,68.9044729 70.9908407,68.8866254 71.0989169,68.868778 L71.2248407,68.7418627 L71.5133746,67.0106593 L71.3874508,66.8847356 C71.3874508,66.8847356 71.1712983,66.9561254 70.8103831,66.9561254 C70.1966288,66.9561254 69.8178661,66.5595153 69.6740949,66.3433627 L68.3930441,64.5030915 L67.8883576,63.8903288 C67.8883576,63.8903288 70.9006119,63.5115661 70.9006119,60.3723966 C70.9006119,57.6129814 68.6280356,56.6749983 66.3911542,56.6749983 L62.8553746,56.6749983 L62.7294508,56.800922 L62.7294508,68.7240153 Z M64.9663322,62.1581339 L64.9663322,58.5866593 L66.4268492,58.5866593 C67.6900525,58.5866593 68.6637305,59.0744898 68.6637305,60.3723966 C68.6637305,61.6712949 67.6900525,62.1581339 66.4268492,62.1581339 L64.9663322,62.1581339 Z M73.5648407,64.5576254 C73.5648407,67.3715746 75.3327305,68.9044729 78.1645271,69.0492356 C77.515078,69.3377695 77.1006203,69.9505322 77.1006203,70.6356763 C77.1006203,71.5915068 77.8224508,72.5304814 79.3553492,72.5304814 L81.5020017,72.5304814 L81.5922305,72.4402525 L81.5922305,70.4740576 L81.5020017,70.3838288 L79.9859593,70.3838288 C79.2472729,70.3838288 78.8139763,70.1131424 78.8139763,69.5182271 C78.8139763,69.2653881 78.8685102,69.0670831 78.8685102,69.0670831 C81.8629169,68.9947017 83.7200441,67.4429644 83.7200441,64.5576254 L83.7200441,61.0585322 C83.7200441,58.0819729 81.7716966,56.4945407 78.6335186,56.4945407 C75.5310356,56.4945407 73.5648407,58.0819729 73.5648407,61.0585322 L73.5648407,64.5576254 Z M75.801722,64.3950153 L75.801722,61.1844559 C75.801722,59.3987186 77.0103915,58.4785831 78.6335186,58.4785831 C80.2933322,58.4785831 81.4831627,59.3987186 81.4831627,61.1844559 L81.4831627,64.3950153 C81.4831627,66.2352864 80.2933322,67.0642017 78.6335186,67.0642017 C77.0103915,67.0642017 75.801722,66.2352864 75.801722,64.3950153 L75.801722,64.3950153 Z M86.4219508,64.5576254 C86.4219508,67.5153458 88.4059932,69.0670831 91.4906288,69.0670831 C94.6288068,69.0670831 96.5583153,67.5153458 96.5583153,64.5576254 L96.5583153,56.6571508 L96.4323915,56.5312271 L94.4483492,56.7652271 L94.3224254,56.8911508 L94.3224254,64.3950153 C94.3224254,66.2352864 93.1672983,67.0642017 91.4906288,67.0642017 C89.8853492,67.0642017 88.6588322,66.2352864 88.6588322,64.3950153 L88.6588322,56.6571508 L88.5319169,56.5312271 L86.5478746,56.7652271 L86.4219508,56.8911508 L86.4219508,64.5576254 Z M99.6181627,68.7240153 L99.7440864,68.849939 L101.728129,68.849939 L101.855044,68.7240153 L101.855044,56.6571508 L101.728129,56.5312271 L99.7440864,56.7652271 L99.6181627,56.8911508 L99.6181627,68.7240153 Z M107.565239,68.7240153 L107.691163,68.849939 L109.675205,68.849939 L109.80212,68.7240153 L109.80212,58.6590407 L112.903612,58.6590407 L113.066222,58.5688119 L113.517366,56.819761 L113.427137,56.6749983 L104.246603,56.6749983 L104.119688,56.800922 L104.119688,58.5331169 L104.246603,58.6590407 L107.565239,58.6590407 L107.565239,68.7240153 Z M115.659061,68.7240153 L115.784985,68.849939 L122.458942,68.849939 L122.603705,68.7418627 L122.855553,67.0106593 L122.747476,66.8658966 L117.895942,66.8658966 L117.895942,63.4570322 L121.593341,63.4570322 L121.755951,63.3668034 L122.207095,61.6177525 L122.115875,61.4729898 L117.895942,61.4729898 L117.895942,58.6590407 L122.692942,58.6590407 L122.819858,58.5331169 L122.819858,56.800922 L122.692942,56.6749983 L115.784985,56.6749983 L115.659061,56.800922 L115.659061,68.7240153 Z M125.066654,64.5576254 C125.066654,67.5153458 127.050697,69.0670831 130.15318,69.0670831 C134.266027,69.0670831 135.005705,66.1629051 135.005705,66.1629051 L134.933324,66.0002949 L133.165434,65.3508458 L132.984976,65.4053797 C132.984976,65.4053797 132.48029,67.0830407 130.15318,67.0830407 C128.530053,67.0830407 127.339231,66.2531339 127.339231,64.4128627 L127.339231,61.1844559 C127.339231,59.3987186 128.530053,58.4785831 130.15318,58.4785831 C132.101527,58.4785831 132.786671,60.1205492 132.786671,60.1205492 L132.967129,60.1740915 L134.735019,59.4344136 L134.8074,59.2727949 C134.8074,59.2727949 133.905112,56.4945407 130.15318,56.4945407 C127.050697,56.4945407 125.066654,58.0819729 125.066654,61.0585322 L125.066654,64.5576254 Z M140.116027,68.7240153 L140.242942,68.849939 L142.226985,68.849939 L142.352908,68.7240153 L142.352908,58.6590407 L145.455392,58.6590407 L145.618002,58.5688119 L146.068154,56.819761 L145.978917,56.6749983 L136.797392,56.6749983 L136.671468,56.800922 L136.671468,58.5331169 L136.797392,58.6590407 L140.116027,58.6590407 L140.116027,68.7240153 Z M148.140442,64.5576254 C148.140442,67.5153458 150.124485,69.0670831 153.20912,69.0670831 C156.347298,69.0670831 158.276807,67.5153458 158.276807,64.5576254 L158.276807,56.6571508 L158.150883,56.5312271 L156.166841,56.7652271 L156.040917,56.8911508 L156.040917,64.3950153 C156.040917,66.2352864 154.886781,67.0642017 153.20912,67.0642017 C151.602849,67.0642017 150.376332,66.2352864 150.376332,64.3950153 L150.376332,56.6571508 L150.250408,56.5312271 L148.266366,56.7652271 L148.140442,56.8911508 L148.140442,64.5576254 Z M161.346569,68.7240153 L161.472493,68.849939 L163.456536,68.849939 L163.583451,68.7240153 L163.583451,64.0341 L164.088137,64.0341 L164.268595,64.1421763 L166.360714,67.3715746 C166.541171,67.6601085 167.42462,68.9044729 169.084434,68.9044729 C169.247044,68.9044729 169.606968,68.8866254 169.716036,68.868778 L169.841959,68.7418627 L170.130493,67.0106593 L170.004569,66.8847356 C170.004569,66.8847356 169.787425,66.9561254 169.427502,66.9561254 C168.813747,66.9561254 168.434985,66.5595153 168.291214,66.3433627 L167.010163,64.5030915 L166.505476,63.8903288 C166.505476,63.8903288 169.517731,63.5115661 169.517731,60.3723966 C169.517731,57.6129814 167.244163,56.6749983 165.008273,56.6749983 L161.472493,56.6749983 L161.346569,56.800922 L161.346569,68.7240153 Z M163.583451,62.1581339 L163.583451,58.5866593 L165.043968,58.5866593 C166.30618,58.5866593 167.280849,59.0744898 167.280849,60.3723966 C167.280849,61.6712949 166.30618,62.1581339 165.043968,62.1581339 L163.583451,62.1581339 Z M171.745688,68.7240153 L171.871612,68.849939 L173.945883,68.849939 L174.072798,68.7240153 L174.991942,65.9646 L179.320942,65.9646 L180.241078,68.7240153 L180.367002,68.849939 L182.442264,68.849939 L182.568188,68.7240153 L178.239188,56.6571508 L178.113264,56.5312271 L176.110383,56.7652271 L175.984459,56.8911508 L171.745688,68.7240153 Z M175.623544,64.0886339 L176.832214,60.4626254 L177.156442,59.2727949 L177.481663,60.4626254 L178.690332,64.0886339 L175.623544,64.0886339 Z" id="Fill-4"/>
                <path d="M53.4188288,91.2124068 L53.5447525,91.3383305 L55.5287949,91.3383305 L55.6557102,91.2124068 L55.6557102,86.2161102 L59.4433373,79.1455424 L59.316422,79.0196186 L56.9724559,79.2536186 L56.8098458,79.3616949 L54.8981847,83.402161 L54.5372695,84.394678 L54.1763542,83.402161 L52.1744644,79.1088559 L52.0118542,79.0196186 L49.7749729,79.2714661 L49.6490492,79.3973898 L53.4188288,86.2339576 L53.4188288,91.2124068 Z M66.9838881,87.0460169 C66.9838881,90.0037373 68.9679305,91.5554746 72.0525661,91.5554746 C75.1907441,91.5554746 77.1212441,90.0037373 77.1212441,87.0460169 L77.1212441,79.1455424 L76.9953203,79.0196186 L75.011278,79.2536186 L74.8843627,79.3795424 L74.8843627,86.8834068 C74.8843627,88.723678 73.7302271,89.5525932 72.0525661,89.5525932 C70.4472864,89.5525932 69.2207695,88.723678 69.2207695,86.8834068 L69.2207695,79.1455424 L69.0948458,79.0196186 L67.1108034,79.2536186 L66.9838881,79.3795424 L66.9838881,87.0460169 Z M82.0094644,91.2124068 L82.1353881,91.3383305 L84.1194305,91.3383305 L84.2463458,91.2124068 L84.2463458,86.5224915 L84.7510322,86.5224915 L84.9314898,86.6305678 L87.0236085,89.8599661 C87.2040661,90.1485 88.0885068,91.3928644 89.7473288,91.3928644 C89.909939,91.3928644 90.2708542,91.3750169 90.3789305,91.3571695 L90.5048542,91.2302542 L90.7933881,89.4990508 L90.6674644,89.3721356 C90.6674644,89.3721356 90.4513119,89.4445169 90.0903966,89.4445169 C89.4766424,89.4445169 89.0978797,89.0479068 88.9541085,88.8317542 L87.6730576,86.9914831 L87.1683712,86.3787203 C87.1683712,86.3787203 90.1806254,85.9999576 90.1806254,82.8607881 C90.1806254,80.1013729 87.9080492,79.1633898 85.6711678,79.1633898 L82.1353881,79.1633898 L82.0094644,79.2893136 L82.0094644,91.2124068 Z M84.2463458,84.6465254 L84.2463458,81.0750508 L85.7068627,81.0750508 C86.9700661,81.0750508 87.9437441,81.5618898 87.9437441,82.8607881 C87.9437441,84.1596864 86.9700661,84.6465254 85.7068627,84.6465254 L84.2463458,84.6465254 Z M95.0807441,91.2124068 L95.2076593,91.3383305 L99.1578966,91.3383305 C101.375939,91.3383305 103.468058,90.2208814 103.468058,87.6230847 C103.468058,86.3598814 102.8196,85.2235932 101.484015,84.7734407 C102.639142,84.394678 103.125981,83.3476271 103.125981,82.3382542 C103.125981,79.9209153 101.1231,79.1633898 98.8148288,79.1633898 L95.2076593,79.1633898 L95.0807441,79.2893136 L95.0807441,91.2124068 Z M97.3176254,83.889 L97.3176254,81.0750508 L98.8326763,81.0750508 C99.8965831,81.0750508 100.8891,81.2733559 100.8891,82.4820254 C100.8891,83.6183136 99.8965831,83.889 98.8326763,83.889 L97.3176254,83.889 Z M97.3176254,89.4266695 L97.3176254,85.800661 L98.9407525,85.800661 C100.077041,85.800661 101.195481,86.3241864 101.195481,87.6230847 C101.195481,89.0300593 100.059193,89.4266695 98.9407525,89.4266695 L97.3176254,89.4266695 Z M106.747032,91.2124068 L106.872956,91.3383305 L108.947227,91.3383305 L109.074142,91.2124068 L109.994278,88.4529915 L114.323278,88.4529915 L115.242422,91.2124068 L115.368346,91.3383305 L117.443608,91.3383305 L117.569532,91.2124068 L113.240532,79.1455424 L113.114608,79.0196186 L111.111727,79.2536186 L110.985803,79.3795424 L106.747032,91.2124068 Z M110.624888,86.5770254 L111.833558,82.9510169 L112.157786,81.7611864 L112.483007,82.9510169 L113.691676,86.5770254 L110.624888,86.5770254 Z M121.582236,91.2124068 L121.708159,91.3383305 L123.692202,91.3383305 L123.819117,91.2124068 L123.819117,82.8072458 L124.449727,83.889 L129.572939,91.2302542 L129.735549,91.3383305 L131.556981,91.3383305 L131.682905,91.2124068 L131.682905,79.1455424 L131.556981,79.0196186 L129.572939,79.2536186 L129.446024,79.3795424 L129.446024,87.5328559 L128.76088,86.3787203 L123.674354,79.0910085 L123.511744,79.0196186 L121.708159,79.2357712 L121.582236,79.3616949 L121.582236,91.2124068 Z M136.674244,91.2124068 L136.800168,91.3383305 L138.78421,91.3383305 L138.910134,91.2124068 L138.910134,79.1455424 L138.78421,79.0196186 L136.800168,79.2536186 L136.674244,79.3795424 L136.674244,91.2124068 Z M143.250041,90.2744237 C143.250041,90.2744237 144.945549,91.5554746 147.01982,91.5554746 C148.949329,91.5554746 151.294286,90.6888814 151.294286,87.8759237 C151.294286,85.5488136 149.455007,84.7912881 147.903269,84.2320678 C146.875058,83.8533051 145.90138,83.4566949 145.90138,82.5365593 C145.90138,81.6164237 146.4606,80.9669746 147.669269,80.9669746 C149.076244,80.9669746 150.014227,81.7245 150.014227,81.7245 L150.194685,81.6888051 L151.150515,80.2272966 L151.113829,80.046839 C151.113829,80.046839 149.761388,78.9829322 147.596888,78.9829322 C145.450236,78.9829322 143.628803,80.3363644 143.628803,82.5901017 C143.628803,84.7734407 145.377854,85.4585847 146.892905,86.0356525 C147.993498,86.4501102 149.02171,86.8477119 149.02171,87.8937712 C149.02171,89.1202881 148.101575,89.5714322 147.01982,89.5714322 C146.045151,89.5714322 144.981244,89.0836017 144.45871,88.6691441 L144.278253,88.6869915 L143.214346,90.0939661 L143.250041,90.2744237 Z M155.695668,91.2124068 L155.821592,91.3383305 L157.806625,91.3383305 L157.932549,91.2124068 L157.932549,83.2038559 L158.509617,84.4303729 L160.656269,88.0742288 L160.817888,88.2001525 L162.514388,88.2001525 L162.676007,88.0742288 L164.804812,84.4482203 L165.436414,83.1314746 L165.436414,91.2124068 L165.562337,91.3383305 L167.510685,91.3383305 L167.636608,91.2124068 L167.636608,79.1276949 L167.473998,79.0374661 L165.507803,79.2536186 L165.364032,79.3616949 L161.665642,85.8551949 L157.84232,79.1276949 L157.67971,79.0374661 L155.821592,79.2536186 L155.695668,79.3795424 L155.695668,91.2124068 Z M172.320575,87.0460169 C172.320575,90.0037373 174.304617,91.5554746 177.4071,91.5554746 C180.545278,91.5554746 182.511473,90.0037373 182.511473,87.0460169 L182.511473,83.5469237 C182.511473,80.5703644 180.545278,78.9829322 177.4071,78.9829322 C174.304617,78.9829322 172.320575,80.5703644 172.320575,83.5469237 L172.320575,87.0460169 Z M174.593151,86.9012542 L174.593151,83.6728475 C174.593151,81.8871102 175.783973,80.9669746 177.4071,80.9669746 C179.066914,80.9669746 180.238897,81.8871102 180.238897,83.6728475 L180.238897,86.9012542 C180.238897,88.7415254 179.066914,89.5714322 177.4071,89.5714322 C175.783973,89.5714322 174.593151,88.7415254 174.593151,86.9012542 L174.593151,86.9012542 Z" id="Fill-5"/>
                <path d="M23.1589602,57.8573924 C23.1589602,57.9297737 23.1004602,57.9872822 23.0290703,57.9872822 C22.956689,57.9872822 22.898189,57.9297737 22.898189,57.8573924 C22.898189,57.785011 22.956689,57.7275025 23.0290703,57.7275025 C23.1004602,57.7275025 23.1589602,57.785011 23.1589602,57.8573924" id="Fill-6"/>
                <path d="M23.0291695,58.1299627 C22.8774661,58.1299627 22.7555085,58.0080051 22.7555085,57.8582847 C22.7555085,57.7075729 22.8774661,57.5846237 23.0291695,57.5846237 C23.1788898,57.5846237 23.301839,57.7075729 23.301839,57.8582847 C23.301839,58.0080051 23.1788898,58.1299627 23.0291695,58.1299627" id="Fill-7"/>
                <path d="M4.74167288,68.8610441 L4.88841864,68.3018237 L4.44024915,67.9349593 L5.01830847,67.9012475 L5.22851186,67.3618576 L5.43772373,67.9012475 L6.0177661,67.9349593 L5.56761356,68.3018237 L5.71535085,68.8610441 L5.22851186,68.5467305 L4.74167288,68.8610441 Z M13.5751729,73.3734763 L6.08419831,68.5844085 L6.05147797,68.4584847 L7.13620678,67.5710695 L5.73716441,67.4917475 L5.22851186,66.1849169 L4.72085085,67.4917475 L3.32081695,67.5710695 L4.40653729,68.4584847 L4.05057966,69.8129085 L5.22851186,69.0553831 L5.35146102,69.1347051 L8.51839322,78.5036288 L8.71967288,78.4362051 L6.4233,71.6412814 L8.72363898,77.2503407 L8.92095254,77.1700271 L6.47485932,71.2030271 L9.02307966,76.4848831 L9.21444407,76.3936627 L6.58095254,70.9353153 L9.38201186,75.8879847 L9.56742712,75.7828831 L6.72968136,70.7647729 L9.76374915,75.3823068 L9.94420678,75.2662983 L6.87047797,70.5892729 L10.1841559,74.9509932 L10.3537068,74.8211034 L7.0003678,70.4068322 L10.6402576,74.5533915 L10.7998932,74.4125949 L7.16099492,70.2660356 L11.1657661,74.2261881 L11.316478,74.0744847 L7.31468136,70.1182983 L11.7646475,73.9366627 L11.903461,73.773061 L7.46440169,69.9656034 L12.5063085,73.7026627 L12.6332237,73.5311288 L7.6597322,69.8446373 L13.4611475,73.5529424 L13.5751729,73.3734763 Z" id="Fill-8"/>
                <path d="M16.7169203,49.9465068 C15.2722678,49.9465068 14.1062339,48.8270746 14.0417847,47.3873797 L16.5662085,41.666278 C16.5949627,41.6008373 16.588022,41.5234983 16.5493525,41.4630153 C16.5106831,41.4035237 16.4432593,41.3678288 16.370878,41.3678288 L11.2080051,41.3678288 C11.1614034,41.3678288 11.1187678,41.3817102 11.0820814,41.4074898 C11.0463864,41.3817102 11.0027593,41.3678288 10.9571492,41.3678288 L5.8696322,41.3678288 C5.79725085,41.3678288 5.73081864,41.4035237 5.69214915,41.4630153 C5.65149661,41.5234983 5.64455593,41.6008373 5.67331017,41.666278 L8.19872542,47.3873797 C8.13229322,48.8270746 6.96625932,49.9465068 5.52259831,49.9465068 C4.07893729,49.9465068 2.91191186,48.8270746 2.84746271,47.3873797 L5.65843729,41.0009644 L10.9978017,41.0009644 C11.0275475,41.0009644 11.0553102,40.9940237 11.0820814,40.9841085 C11.107861,40.9940237 11.1366153,41.0009644 11.1673525,41.0009644 L16.5820729,41.0009644 L19.3920559,47.3873797 C19.3276068,48.8270746 18.1615729,49.9465068 16.7169203,49.9465068 L16.7169203,49.9465068 Z M11.5907339,53.3980068 L10.5823525,53.3980068 L11.0830729,43.3518712 L11.5907339,53.3980068 Z M13.7879542,54.3498712 L8.49519153,54.3498712 L8.49519153,53.8263458 L10.3582678,53.8263458 L11.8148186,53.8263458 L11.8168017,53.8263458 L13.7879542,53.8263458 L13.7879542,54.3498712 Z M11.1415729,59.1904983 C10.288861,59.1904983 9.58983559,58.5767441 9.46192881,57.755761 L12.8232,57.755761 C12.6952932,58.5767441 11.9952763,59.1904983 11.1415729,59.1904983 L11.1415729,59.1904983 Z M10.4782424,55.4970661 L10.5139373,54.7762271 L11.3369034,54.7762271 L10.4782424,55.4970661 Z M11.7057508,55.6923966 L10.4147847,56.7672102 L10.4494881,56.0781 L11.6730305,55.0508797 L11.7057508,55.6923966 Z M11.7880475,57.3264305 L10.4108186,57.3264305 L11.732522,56.2248458 L11.7880475,57.3264305 Z M19.803539,47.2614559 L16.9162169,40.7015237 C16.8815136,40.6241847 16.8051661,40.5736169 16.7208864,40.5736169 L11.3696237,40.5736169 L11.2942678,39.0783966 C11.2893102,38.9643712 11.1951153,38.8751339 11.0820814,38.8751339 C10.9680559,38.8761254 10.8748525,38.9643712 10.8689034,39.0783966 L10.794539,40.5736169 L5.51962373,40.5736169 C5.43534407,40.5736169 5.35800508,40.6241847 5.32429322,40.7015237 L2.43796271,47.2614559 C2.42507288,47.2902102 2.41912373,47.321939 2.42000902,47.3536678 C2.46770847,49.0462017 3.83006441,50.3728627 5.52259831,50.3728627 C7.2151322,50.3728627 8.57847966,49.0462017 8.62607288,47.3536678 C8.62706441,47.321939 8.62111525,47.2902102 8.60822542,47.2614559 L6.19683559,41.7941847 L10.7340559,41.7941847 L10.1550051,53.3980068 L8.28201356,53.3980068 C8.16402203,53.3980068 8.06784407,53.4951763 8.06784407,53.6131678 L8.06784407,54.5630492 C8.06784407,54.6810407 8.16402203,54.7762271 8.28201356,54.7762271 L10.0865898,54.7762271 L9.95967458,57.3294051 L9.22892034,57.3294051 C9.17141186,57.3294051 9.11588644,57.3522102 9.07622542,57.3938542 C9.03656441,57.4345068 9.01475085,57.4900322 9.0167339,57.5475407 C9.04945424,58.7086169 9.98247966,59.6178458 11.1415729,59.6178458 C12.3016576,59.6178458 13.2366661,58.7086169 13.2683949,57.5475407 C13.270378,57.4900322 13.2495559,57.4345068 13.2089034,57.3938542 C13.1692424,57.3522102 13.1137169,57.3294051 13.0562085,57.3294051 L12.2153949,57.3294051 L12.0864966,54.7762271 L14.0031153,54.7762271 C14.1201153,54.7762271 14.2162932,54.6810407 14.2162932,54.5630492 L14.2162932,53.6131678 C14.2162932,53.4951763 14.1201153,53.3980068 14.0031153,53.3980068 L12.0170898,53.3980068 L11.4320898,41.7941847 L16.0436746,41.7941847 L13.6322847,47.2614559 C13.6193949,47.2902102 13.6124542,47.321939 13.6134458,47.3536678 C13.661039,49.0462017 15.0243864,50.3728627 16.7169203,50.3728627 C18.4104458,50.3728627 19.7728017,49.0462017 19.8205015,47.3536678 C19.8213864,47.321939 19.8154373,47.2902102 19.803539,47.2614559 L19.803539,47.2614559 Z" id="Fill-9"/>
                <path d="M7.32261356,47.0663237 L3.72238475,47.0663237 L5.52200339,42.9187729 L7.32261356,47.0663237 Z M5.52200339,42.1681881 C5.43772373,42.1681881 5.36038475,42.2197475 5.32667288,42.298078 L3.20084237,47.1942305 C3.17109661,47.2606627 3.17902881,47.3370102 3.21769831,47.3965017 C3.25835085,47.4569847 3.32577458,47.4936712 3.39716441,47.4936712 L7.64882542,47.4936712 L7.65080847,47.4936712 C7.7688,47.4936712 7.86398644,47.3984847 7.86398644,47.2795017 C7.86398644,47.2368661 7.85109661,47.1972051 7.8312661,47.1644847 L5.71832542,42.298078 C5.68362203,42.2197475 5.60727458,42.1681881 5.52200339,42.1681881 L5.52200339,42.1681881 Z" id="Fill-10"/>
                <path d="M16.7174161,42.9186737 L18.5170347,47.0662246 L14.9168059,47.0662246 L16.7174161,42.9186737 Z M14.3962551,47.1941314 C14.3665093,47.2605636 14.37345,47.336911 14.413111,47.3964025 C14.452772,47.4568856 14.5201958,47.493572 14.5915856,47.493572 L18.8432466,47.493572 L18.8462212,47.493572 C18.9642127,47.493572 19.0593992,47.3983856 19.0593992,47.2794025 C19.0593992,47.2367669 19.0475008,47.1971059 19.0266788,47.1643856 L16.9127466,42.2979788 C16.8790347,42.2196483 16.8026873,42.168089 16.7174161,42.168089 C16.6321449,42.168089 16.5548059,42.2196483 16.5210941,42.2979788 L14.3962551,47.1941314 Z" id="Fill-11"/>
                <path d="M30.908128,43.2459763 C31.1193229,43.2459763 31.2918483,43.0734508 31.2918483,42.8602729 C31.2918483,42.649078 31.1193229,42.4765525 30.908128,42.4765525 C30.69495,42.4765525 30.5234161,42.649078 30.5234161,42.8602729 C30.5234161,43.0734508 30.69495,43.2459763 30.908128,43.2459763" id="Fill-12"/>
                <path d="M39.5922051,60.2790941 L37.5506542,57.4244924 C37.5496627,57.3907805 37.5496627,57.3560771 37.5496627,57.3233568 C37.5466881,57.2430432 37.5337983,57.1716534 37.5119847,57.1072042 C37.4604254,56.9535178 37.3632559,56.8414754 37.2621203,56.7413314 C37.2373322,56.7165432 37.2115525,56.689772 37.1867644,56.6659754 C37.1669339,56.648128 37.1480949,56.629289 37.1292559,56.61045 C37.1213237,56.6025178 37.1133915,56.5955771 37.1044678,56.5876449 C37.0995102,56.5816958 37.093561,56.5747551 37.0876119,56.5688059 C37.0667898,56.5479839 37.0459678,56.5261703 37.0271288,56.5033653 C37.0211797,56.4964246 37.0172136,56.4894839 37.0112644,56.4825432 C36.9934169,56.4597381 36.974578,56.4359415 36.957722,56.4091703 C36.9517729,56.4002466 36.9478068,56.3893398 36.9418576,56.3794246 C36.9269847,56.3546364 36.9131034,56.3298483 36.9012051,56.3010941 C36.8952559,56.2872127 36.8912898,56.2713483 36.8863322,56.2564754 C36.8764169,56.2306958 36.8674932,56.2039246 36.8605525,56.1741788 C36.8555949,56.1543483 36.8536119,56.1305517 36.8496458,56.1077466 C36.8456797,56.0809754 36.840722,56.0532127 36.838739,56.0224754 C36.8367559,55.9937212 36.8377475,55.9619924 36.8377475,55.9302636 C36.8377475,55.9015093 36.8367559,55.8737466 36.838739,55.8420178 C36.8417136,55.8023568 36.8466712,55.7587297 36.8526203,55.7151025 C36.8555949,55.6942805 36.857578,55.6734585 36.8615441,55.6506534 L39.7875356,60.1432551 L39.8609085,60.4625263 L39.5922051,60.2790941 Z M36.9210356,59.0753822 C36.9021966,59.0228314 36.8843492,58.9653229 36.8704678,58.9187212 C36.8089932,58.7124839 36.7376034,58.4794754 36.5799508,58.3010008 C36.5016203,58.2117636 36.4163492,58.1334331 36.3340525,58.0590686 C36.1179,57.8607636 35.9463661,57.7050941 35.9305017,57.4066449 C35.9265356,57.3481449 35.9245525,57.2896449 35.9225695,57.235111 C35.8957983,56.689772 35.8759678,56.2614331 35.3266627,55.7656703 C35.0847305,55.5475347 34.8170186,55.4642466 34.5582305,55.3839331 C34.1913661,55.2699076 33.8443322,55.1628229 33.5448915,54.6511958 C33.1978576,54.0622297 33.6609,53.3969161 33.9236542,53.0925178 C33.9672814,53.1490347 34.0089254,53.2065432 34.0525525,53.2640517 C34.0932051,53.3175941 34.1318746,53.3701449 34.1784763,53.4336025 C34.1804593,53.4365771 34.1814508,53.4385602 34.1834339,53.4415347 C34.2468915,53.5297805 34.3133237,53.6249669 34.3747983,53.7181703 C34.4729593,53.8668992 34.5493068,53.9948059 34.5731034,54.0652042 C34.5304678,54.1871619 34.5721119,54.2754076 34.6018576,54.3170517 C34.6861373,54.4360347 34.8348661,54.4360347 34.8834508,54.4360347 C34.9161712,54.4360347 34.9627729,54.4290941 35.0014424,54.4261195 C35.0054085,54.4261195 35.0093746,54.4281025 35.0143322,54.4281025 C35.0579593,54.4241364 35.1055525,54.4181873 35.1581034,54.4122381 C35.1809085,54.4092636 35.2056966,54.4072805 35.2285017,54.4043059 C35.3464932,54.3904246 35.4714254,54.3765432 35.6003237,54.3765432 C35.7768153,54.3765432 35.9146373,54.4033144 36.0246966,54.4528907 C36.0316373,54.4568568 36.0415525,54.4578483 36.0484932,54.4608229 L36.0494847,54.4618144 C36.3300864,54.602611 36.4629508,54.7989331 36.4788153,55.1033314 C36.4807983,55.129111 36.4817898,55.1548907 36.4817898,55.1816619 C36.4807983,55.2818059 36.4728661,55.3888907 36.4490695,55.5128314 C36.3885864,55.8459839 36.3994932,56.1008059 36.4510525,56.3020856 C36.5363237,56.6382127 36.7336373,56.8246195 36.8932729,56.9763229 C37.0449763,57.1220771 37.1173576,57.1964415 37.1223153,57.3362466 C37.1233068,57.3461619 37.1223153,57.3560771 37.1233068,57.3659924 C37.1352051,57.9658653 37.0301034,58.7442127 36.9210356,59.0753822 L36.9210356,59.0753822 Z M31.400222,52.0771958 C30.7041712,51.3494161 31.2852051,50.3291364 31.5965441,49.8888992 C31.7006542,50.0366364 31.8483915,50.2478314 32.0139763,50.5036449 C31.9564678,50.6791449 31.9941458,50.8040771 32.0427305,50.8833992 C32.1359339,51.0370856 32.3272983,51.1154161 32.6138492,51.1292975 C32.6188068,51.1292975 32.6227729,51.132272 32.6277305,51.132272 C32.645578,51.1342551 32.6654085,51.1342551 32.6842475,51.1342551 L32.6941627,51.1342551 C32.9717898,51.1342551 33.2900695,51.0787297 33.5557983,51.0192381 C33.6252051,51.0043653 33.6936203,50.9885008 33.7541034,50.973628 C33.7550949,50.9726364 33.7560864,50.9726364 33.757078,50.9726364 C34.032722,50.9022381 34.2885356,50.8675347 34.5155949,50.8675347 C34.9657475,50.8675347 35.2870017,51.0013907 35.4704339,51.2671195 C35.6032983,51.4594754 35.7183153,51.7638737 35.3147644,52.2685602 C35.2423831,52.2170008 35.1432305,52.1783314 35.0133407,52.1575093 C35.0103661,52.1565178 35.0073915,52.1545347 35.0054085,52.1545347 C35.0024339,52.1535432 34.9974763,52.1535432 34.9954932,52.1535432 C34.9399678,52.145611 34.8804763,52.1406534 34.8130525,52.1406534 C34.7991712,52.1406534 34.7823153,52.1426364 34.7674424,52.1426364 L34.7654593,52.1426364 C34.6791966,52.1446195 34.5859932,52.1525517 34.4868407,52.1634585 C34.4838661,52.16445 34.4799,52.16445 34.4769254,52.1654415 C34.3847136,52.1763483 34.2885356,52.1892381 34.1883915,52.2051025 C34.1715356,52.2080771 34.1546797,52.2100602 34.1378237,52.2130347 C34.0852729,52.2219585 34.030739,52.2308822 33.9771966,52.2398059 C33.9256373,52.2487297 33.876061,52.2566619 33.8235102,52.2655856 L33.7253492,52.2824415 L33.7233661,52.2834331 C33.3217983,52.3528398 32.881561,52.4242297 32.4809847,52.4242297 C31.9782814,52.4242297 31.6243068,52.3111958 31.400222,52.0771958 L31.400222,52.0771958 Z M27.9715271,46.1339924 C27.8188322,45.0819839 27.8604763,44.2748822 27.9745017,43.6720347 C27.9794593,43.6482381 27.9844169,43.6264246 27.9893746,43.6036195 C28.007222,43.5173568 28.026061,43.4360517 28.0458915,43.3587127 C28.0548153,43.3259924 28.063739,43.293272 28.0726627,43.2615432 C28.0895186,43.2030432 28.1073661,43.1475178 28.1252136,43.0939754 C28.1381034,43.0562975 28.1500017,43.0186195 28.1628915,42.9829246 C28.1767729,42.9452466 28.1906542,42.9115347 28.2055271,42.8768314 C28.2213915,42.8361788 28.2382475,42.7935432 28.2551034,42.7558653 C28.2838576,42.6914161 28.3136034,42.6309331 28.3433492,42.5754076 C28.3572305,42.5486364 28.3721034,42.5248398 28.3859847,42.5000517 C28.4048237,42.4663398 28.4246542,42.432628 28.4434932,42.4018907 C28.4573746,42.3800771 28.4702644,42.3602466 28.4841458,42.3394246 C28.6854254,42.0360178 28.8619169,41.9091025 28.8629085,41.908111 C28.8728237,41.9011703 28.8817475,41.8932381 28.8906712,41.8853059 C29.2119254,41.5838822 29.5946542,41.4252381 29.996222,41.4252381 C30.6952475,41.4252381 31.341722,41.906128 31.4706203,42.5208737 C31.6312475,43.2942636 31.2386034,44.1668059 31.0958237,44.346272 C30.9431288,44.3452805 30.6089847,44.0825263 30.3333407,43.7473907 C30.2748407,43.6760008 30.1776712,43.6502212 30.0924,43.6839331 C29.9040102,43.7533398 29.7185949,44.0170856 29.5857305,44.2966958 C29.584739,44.2966958 29.584739,44.2976873 29.5837475,44.2976873 C29.5797814,44.3085941 29.5718492,44.3264415 29.5668915,44.3393314 C29.5321881,44.4136958 29.5014508,44.4890517 29.4766627,44.5614331 C29.4032898,44.7775856 29.3259508,45.104789 29.3388407,45.4815686 C29.3388407,45.4964415 29.3408237,45.5113144 29.3418153,45.5271788 C29.3467729,45.6134415 29.3566881,45.7026788 29.3725525,45.7938992 C29.3775102,45.8246364 29.3844508,45.8553737 29.3904,45.886111 C29.4082475,45.9674161 29.4330356,46.0497127 29.4617898,46.1330008 C29.4726966,46.1657212 29.4826119,46.1984415 29.4955017,46.2321534 C29.5411119,46.3451873 29.5946542,46.4592127 29.6650525,46.5732381 C30.0051458,47.1265093 30.6119593,47.1969076 31.1027644,47.1969076 C31.224722,47.1969076 31.3476712,47.1929415 31.4726034,47.1869924 C31.4765695,47.1869924 31.4805356,47.1830263 31.4845017,47.1830263 C31.5439932,47.1800517 31.6034847,47.1800517 31.6619847,47.1760856 C31.8464085,47.1661703 32.0357898,47.1562551 32.2152559,47.1562551 C32.8121542,47.1562551 33.1661288,47.2811873 33.3981458,47.5736873 C33.9236542,48.2350347 33.6549508,48.9320771 33.4239254,49.3138144 C33.2206627,48.8557297 32.8587559,48.2211534 32.4105864,48.2211534 C32.3986881,48.2211534 32.3867898,48.2221449 32.3689424,48.224128 C32.3391966,48.2271025 32.2856542,48.2350347 32.2122814,48.2489161 C32.1547729,48.2588314 32.0804085,48.2727127 31.9961288,48.2856025 C31.9515102,48.2925432 31.8949932,48.3004754 31.8424424,48.3084076 C31.7958407,48.3143568 31.7522136,48.3212975 31.7006542,48.3282381 C31.6421542,48.3351788 31.575722,48.341128 31.5122644,48.3470771 C31.4547559,48.3530263 31.400222,48.3589754 31.339739,48.3639331 C31.2733068,48.3688907 31.2019169,48.3708737 31.1315186,48.3738483 C31.049222,48.3768229 30.9689085,48.382772 30.8826458,48.382772 C29.1673068,48.382772 28.1876797,47.6262381 27.9715271,46.1339924 L27.9715271,46.1339924 Z M27.5759085,43.4796788 L26.1243153,41.4500263 C26.0836627,41.3925178 26.018222,41.360789 25.9507983,41.360789 C25.9309678,41.360789 25.9111373,41.3637636 25.8913068,41.3687212 C25.7158068,41.4202805 25.5452644,41.4460602 25.3846373,41.4460602 C25.0663576,41.4460602 24.8184763,41.3429415 24.6905695,41.1535602 C24.3921203,40.717289 24.7659254,39.9201025 25.5075864,39.4154161 C25.899239,39.1477042 26.3444339,38.9940178 26.7291458,38.9940178 C27.0484169,38.9940178 27.2943153,39.098128 27.4242051,39.2875093 C27.6235017,39.5800093 27.5233576,40.0589161 27.1683915,40.5080771 C27.1108831,40.5794669 27.1069169,40.6806025 27.1564932,40.75695 L28.0805949,42.1738398 C27.9427729,42.39495 27.8039593,42.6844754 27.6899339,43.0503483 C27.6849763,43.0652212 27.6810102,43.0800941 27.6760525,43.0959585 C27.6463068,43.1970941 27.6185441,43.3041788 27.5927644,43.4172127 C27.5878068,43.4390263 27.5808661,43.4578653 27.5759085,43.4796788 L27.5759085,43.4796788 Z M30.8608322,46.7556788 C30.8112559,46.7517127 30.754739,46.7517127 30.7101203,46.744772 C30.6407136,46.7348568 30.5841966,46.7160178 30.5237136,46.6981703 C30.4890102,46.6882551 30.4463746,46.6832975 30.4146458,46.6704076 C30.3561458,46.646611 30.3105356,46.6138907 30.2629424,46.5821619 C30.2401373,46.567289 30.2123746,46.5573737 30.1915525,46.5405178 C30.1280949,46.4869754 30.0745525,46.4245093 30.0289424,46.3501449 C29.9863068,46.2817297 29.9506119,46.2133144 29.9198746,46.1448992 C29.7047136,45.6659924 29.7483407,45.1940263 29.8336119,44.8638483 L31.0740102,46.7685686 C30.9956797,46.7675771 30.9292475,46.7606364 30.8608322,46.7556788 L30.8608322,46.7556788 Z M33.115561,50.6692297 C33.113578,50.6702212 33.1115949,50.6702212 33.1096119,50.6702212 C32.9866627,50.6890602 32.8775949,50.6989754 32.7784424,50.7029415 C32.7665441,50.7029415 32.7546458,50.7039331 32.7447305,50.7049246 L31.3744424,48.790289 C31.3873322,48.7892975 31.3972475,48.7873144 31.4091458,48.7863229 C31.5043322,48.7793822 31.5955525,48.7704585 31.6808237,48.7605432 C31.7304,48.7545941 31.7740271,48.7496364 31.8196373,48.7426958 C31.8821034,48.7347636 31.9406034,48.7268314 31.9951373,48.7179076 C32.0318237,48.7119585 32.0645441,48.7079924 32.0972644,48.7020432 C32.1527898,48.6931195 32.2003831,48.6851873 32.2430186,48.6772551 C32.2559085,48.675272 32.275739,48.6713059 32.2866458,48.6693229 C32.2955695,48.6683314 32.3015186,48.6673398 32.3094508,48.6653568 L33.5577814,50.5809839 C33.5518322,50.5819754 33.5468746,50.5829669 33.5409254,50.58495 C33.3912051,50.6206449 33.2474339,50.6493992 33.115561,50.6692297 L33.115561,50.6692297 Z M35.6013153,53.9501873 C35.4198661,53.9501873 35.2463492,53.9700178 35.1055525,53.9878653 C35.102578,53.9888568 35.0986119,53.9888568 35.0956373,53.9898483 L35.0946458,53.9898483 L34.7654593,53.5317636 C34.6613492,53.3661788 34.5136119,53.1549839 34.3044,52.885289 L34.1318746,52.6463314 C34.2012814,52.6344331 34.2677136,52.6235263 34.3331542,52.613611 C34.3351373,52.613611 34.3371203,52.613611 34.3391034,52.6126195 C34.4015695,52.6036958 34.4620525,52.5957636 34.519561,52.5888229 C34.5245186,52.5888229 34.5294763,52.5878314 34.5344339,52.5868398 C34.5899593,52.5808907 34.6425102,52.5759331 34.6920864,52.5729585 C34.7010102,52.5729585 34.7079508,52.5719669 34.7168746,52.5719669 C34.7654593,52.5689924 34.812061,52.5680008 34.8537051,52.5689924 L35.7559932,53.9551449 C35.7074085,53.9511788 35.6538661,53.9501873 35.6013153,53.9501873 L35.6013153,53.9501873 Z M40.1950525,60.0093992 C40.1900949,59.9856025 40.1791881,59.9618059 40.1662983,59.9409839 L36.8863322,54.9070093 C36.8397305,54.6472297 36.7088492,54.3933992 36.4213068,54.1921195 L35.4714254,52.7345771 C36.0594,52.1158653 36.1783831,51.5407805 35.8224254,51.0241958 C35.4872898,50.5393398 34.8408153,50.35095 34.0049593,50.4857975 L33.5805864,49.8343653 C33.991078,49.3425686 34.4917983,48.2647805 33.7322898,47.3079585 C33.3257644,46.7953398 32.7080441,46.7298992 32.2152559,46.7298992 C32.0238915,46.7298992 31.828561,46.7398144 31.6391797,46.7507212 C31.6163746,46.7517127 31.5965441,46.7517127 31.573739,46.7536958 L30.0249763,44.3770093 C30.0676119,44.2986788 30.1102475,44.2302636 30.1459424,44.1826703 C30.3690356,44.4206364 30.754739,44.774611 31.0978068,44.774611 C31.164239,44.774611 31.2267051,44.7617212 31.2852051,44.7359415 C31.5628322,44.6139839 32.0932983,43.4132466 31.8880525,42.434611 C31.7194932,41.6285008 30.8895864,40.9978907 29.996222,40.9978907 C29.488561,40.9978907 29.0096542,41.1932212 28.609078,41.5650432 C28.5704085,41.5928059 28.473239,41.672128 28.3522729,41.8089585 L27.5947475,40.6478822 C27.9963153,40.0767636 28.0667136,39.4729246 27.7761966,39.0475602 C27.5650017,38.7372127 27.1931797,38.5676619 26.7291458,38.5676619 C26.2532136,38.5676619 25.7346458,38.7431619 25.2666458,39.0624331 C24.3028831,39.7208059 23.8953661,40.7450517 24.338578,41.3945008 C24.5497729,41.7028653 24.9206034,41.8724161 25.3846373,41.8724161 C25.5393153,41.8724161 25.6989508,41.8545686 25.8625525,41.8168907 L27.4817136,44.0825263 C27.4212305,44.6615771 27.4281712,45.359611 27.5491373,46.1964585 C27.7960271,47.8998992 28.9422305,48.8021873 30.8628153,48.809128 L31.3546119,49.4962551 C30.832078,50.1427297 30.2014678,51.4406364 31.0928492,52.3716788 C31.400222,52.6949161 31.8553322,52.8505856 32.4809847,52.8505856 C32.8716458,52.8505856 33.2821373,52.7910941 33.6658576,52.7256534 L33.6708153,52.7335856 C33.3674085,53.060789 32.6515271,53.9749754 33.1770356,54.8673483 C33.5607559,55.5207636 34.0237983,55.6645347 34.4303237,55.79145 C34.6653153,55.8648229 34.8675864,55.927289 35.0411034,56.08395 C35.4575441,56.4587466 35.4704339,56.7244754 35.495222,57.2549415 C35.4981966,57.3114585 35.5001797,57.3699585 35.5041458,57.4304415 C35.5299254,57.9033992 35.804578,58.1532636 36.0465102,58.3733822 C36.1238492,58.444772 36.197222,58.5121958 36.2596881,58.5835856 C36.3568576,58.6916619 36.4123831,58.8770771 36.4619593,59.0416703 C36.5373153,59.2915347 36.6225864,59.5761025 36.897239,59.6137805 C36.9071542,59.614772 36.9259932,59.6167551 36.9369,59.6167551 C36.9944085,59.6167551 37.0786881,59.5998992 37.1599932,59.5156195 C37.3582983,59.3123568 37.4673661,58.6748059 37.5169424,58.112611 L39.2679763,60.5587042 C39.2818576,60.5785347 39.2997051,60.5963822 39.3205271,60.6102636 L40.0721034,61.1218907 C40.1087898,61.1466788 40.1494424,61.1585771 40.192078,61.1585771 C40.2347136,61.1585771 40.2753661,61.1466788 40.3120525,61.1218907 C40.3844339,61.0713229 40.4191373,60.9830771 40.3993068,60.8978059 L40.1950525,60.0093992 Z" id="Fill-13"/>
                <path d="M37.0814644,87.7304669 L37.0854305,86.1182466 L40.0966932,82.6013059 C40.0917356,82.8253907 40.1026424,82.9076873 40.1442864,83.1119415 C40.1799814,83.2805008 40.2662441,83.4103907 40.3584559,83.5026025 L37.0814644,87.7304669 Z M36.7552525,85.8475602 L24.6298881,82.9086788 L25.1415153,82.4694331 C25.2783458,82.5963483 25.4241,82.6598059 25.5311847,82.6796364 L36.3735153,85.3170941 C36.3873966,85.3220517 36.4072271,85.3220517 36.4221,85.3220517 C36.4706847,85.3220517 36.5093542,85.3071788 36.5490153,85.2774331 L36.557939,85.2774331 C36.5827271,85.2675178 36.6124729,85.2486788 36.6313119,85.2238907 L39.365939,82.0648907 L39.9459814,82.1184331 L39.9469729,82.1194246 L36.7552525,85.8475602 Z M36.5976,88.0566788 L33.0300915,87.0522636 L33.0300915,85.3855093 L36.5976,86.2481364 L36.5976,88.0566788 Z M25.8098034,85.0245941 L25.8088119,85.0245941 L25.8088119,83.6344754 L25.8098034,83.6354669 L32.7465153,85.3170941 L32.7465153,86.9739331 L25.8098034,85.0245941 Z M23.9616,83.8595517 C23.9616,83.3618059 24.1906424,83.2844669 24.3373881,83.2795093 L25.5252356,83.5660602 L25.5252356,84.9462636 L24.4395153,84.6388907 C24.3909305,84.6250093 23.9616,84.5080093 23.9616,83.8595517 L23.9616,83.8595517 Z M25.3269305,81.2270517 C25.3318881,81.2220941 25.3418034,81.2171364 25.346761,81.2072212 C25.405261,81.1635941 25.4776424,81.1536788 25.5073881,81.1536788 L27.3060153,81.5294669 L27.3060153,82.6746788 L25.6243881,82.2651788 C25.580761,82.2552636 25.229761,82.1630517 25.2198458,81.6266364 C25.2198458,81.4412212 25.2535576,81.3043907 25.3269305,81.2270517 L25.3269305,81.2270517 Z M26.282761,80.3594669 C26.2877186,80.5488483 26.2877186,80.7193907 26.2877186,80.8760517 L25.8197186,80.7788822 L26.282761,80.3594669 Z M27.1404305,74.2367975 L27.2138034,80.2077636 C27.2138034,80.2712212 27.2475153,80.3346788 27.2961,80.3733483 C27.3496424,80.4130093 27.4180576,80.4278822 27.4815153,80.4130093 C27.4963881,80.4080517 28.9826847,80.0273059 30.3143034,80.0273059 C31.2403881,80.0273059 31.8690153,80.2127212 32.1317695,80.5637212 C31.7173119,80.4278822 30.8646,80.2028059 29.7332695,80.2028059 C28.7100153,80.2028059 27.6956847,80.3882212 26.7160576,80.7441788 C26.7011847,78.9554669 26.6089729,75.1767636 26.5792271,74.1485517 C26.7210153,74.1733398 26.9113881,74.2020941 27.1404305,74.2367975 L27.1404305,74.2367975 Z M28.0714729,73.5298398 C28.6366424,73.5298398 29.4853881,73.4267212 30.3143034,72.9349246 C30.7713966,72.6622551 31.2255153,72.5204669 31.6488966,72.5204669 C31.9513119,72.5204669 32.1664729,72.5938398 32.2884305,72.6424246 C32.2834729,72.7346364 32.2834729,72.8714669 32.2785153,73.0519246 L32.2686,73.5100093 C32.2348881,74.9477212 32.1714305,77.6873059 32.1228458,79.9836788 C31.7173119,79.7298483 31.1134729,79.6039246 30.3143034,79.6039246 C29.2563458,79.6039246 28.1349305,79.8230517 27.6371847,79.9350941 L27.5548881,73.5000941 C27.6857695,73.5149669 27.8612695,73.5298398 28.0714729,73.5298398 L28.0714729,73.5298398 Z M30.9082271,71.2384246 C31.0648881,71.2919669 31.2592271,71.3504669 31.4595153,71.3702975 C31.5180153,71.3802127 31.5814729,71.3405517 31.6052695,71.2820517 C31.6300576,71.2185941 31.6052695,71.1501788 31.5517271,71.1164669 C31.3573881,70.9746788 31.1818881,70.6920941 31.0648881,70.4095093 C31.2205576,70.4680093 31.4158881,70.5215517 31.6102271,70.5463398 C31.6736847,70.5512975 31.7321847,70.5116364 31.7569729,70.4531364 C31.7807695,70.3946364 31.7619305,70.3272127 31.7083881,70.2875517 C31.5765153,70.1903822 31.4545576,69.9900941 31.3613542,69.7759246 C31.4882695,69.8245093 31.6399729,69.8681364 31.7758119,69.8830093 C31.8204305,69.8879669 31.8640576,69.8730941 31.8928119,69.8443398 C32.2348881,69.4982975 32.3023119,69.0154246 32.3508966,68.699128 C32.3508966,68.6892127 32.3508966,68.6792975 32.3558542,68.6693822 C32.4054305,68.9817127 32.4877271,69.4497127 32.8337695,69.7957551 C32.8635153,69.8245093 32.9021847,69.8393822 32.9458119,69.8344246 C33.0975153,69.8195517 33.2631,69.7759246 33.3949729,69.7372551 C33.3017695,69.9712551 33.1698966,70.1903822 33.0291,70.2925093 C32.9755576,70.3321703 32.9557271,70.3946364 32.9805153,70.4580941 C32.9993542,70.5165941 33.0628119,70.5562551 33.1262695,70.5512975 C33.3265576,70.5265093 33.5208966,70.4680093 33.6775576,70.4095093 C33.5556,70.6970517 33.3850576,70.9796364 33.1847695,71.1164669 C33.1312271,71.1551364 33.1074305,71.2235517 33.1312271,71.2820517 C33.1510576,71.3455093 33.2145153,71.3841788 33.2779729,71.3752551 C33.4822271,71.3554246 33.6775576,71.2969246 33.8332271,71.2384246 C33.5605576,71.7698822 33.0092695,72.1109669 32.3707271,72.1109669 C31.7321847,72.1109669 31.1818881,71.7698822 30.9082271,71.2384246 L30.9082271,71.2384246 Z M33.7796847,72.2963822 C34.1207695,72.2963822 34.4717695,72.3885941 35.0032271,72.6176364 C35.2521,72.7207551 35.5297271,72.7742975 35.8321424,72.7742975 C36.3001424,72.7742975 36.733439,72.6473822 37.0120576,72.5492212 C37.0170153,73.7390517 37.0308966,77.9361788 37.0170153,79.8280093 C36.1246424,79.6039246 35.3254729,79.4869246 34.6284305,79.4869246 C33.5754305,79.4869246 32.9408542,79.7496788 32.5858881,79.9886364 L32.7167695,72.6325093 C33.0925576,72.4034669 33.4336424,72.2963822 33.7796847,72.2963822 L33.7796847,72.2963822 Z M37.1677271,80.3098907 C37.2311847,80.3247636 37.2996,80.3148483 37.3531424,80.2761788 C37.4066847,80.2325517 37.435439,80.1740517 37.435439,80.1056364 C37.4552695,78.6778398 37.4453542,75.2798822 37.435439,73.4465517 C37.6555576,73.3979669 37.8945153,73.3394669 38.1235576,73.2760093 C38.1186,74.5431788 38.0987695,78.1414246 38.0838966,79.8567636 L38.0838966,79.8765941 C38.0838966,80.1492636 38.078939,80.3783059 38.078939,80.5349669 C37.5236847,80.4368059 36.1533966,80.2176788 34.7940153,80.2176788 C33.8867695,80.2176788 33.1560153,80.3198059 32.6096847,80.5151364 C32.7851847,80.3396364 33.3364729,79.9152636 34.6284305,79.9152636 C35.3542271,79.9152636 36.2118966,80.0471364 37.1677271,80.3098907 L37.1677271,80.3098907 Z M39.0496424,80.1492636 L38.5033119,80.7392212 C38.5033119,80.6420517 38.5033119,80.4179669 38.5082695,80.1056364 L39.0496424,80.1492636 Z M36.6412271,83.3618059 L39.2350576,80.5785941 C39.2350576,80.7491364 39.248939,80.8274669 39.2886,80.9930517 C39.3173542,81.1338483 39.3857695,81.2369669 39.4591424,81.3143059 L36.6660153,84.5318059 L36.6412271,83.7663483 L36.6412271,83.3618059 Z M28.3342271,81.7436364 L28.3342271,82.9235517 L27.7303881,82.7768059 L27.7303881,81.6167212 L28.3342271,81.7436364 Z M32.9606847,82.7133483 L32.9606847,84.0489331 L28.7635576,83.0306364 L28.7635576,81.8358483 L32.9606847,82.7133483 Z M36.2118966,83.7177636 L36.206939,84.8391788 L33.3850576,84.1520517 L33.3850576,82.8015941 L36.2029729,83.3865941 L36.2118966,83.7177636 Z M27.1354729,81.0565093 C27.9832271,80.7739246 28.8557695,80.6321364 29.7332695,80.6321364 C31.2403881,80.6321364 32.2438119,81.0515517 32.2537271,81.0565093 C32.3122271,81.0852636 32.3806424,81.0803059 32.4391424,81.0515517 C32.9408542,80.7828483 33.7311,80.6470093 34.7940153,80.6470093 C36.4706847,80.6470093 38.2306424,80.9980093 38.2494814,81.0029669 L38.254439,81.0029669 L36.4022695,82.9919669 L27.1354729,81.0565093 Z M40.8690915,83.4064246 C40.8522356,83.3419754 40.8066254,83.2894246 40.7461424,83.2636449 C40.7451508,83.2626534 40.5974136,83.1922551 40.5627102,83.0236958 C40.5151169,82.7966364 40.5161085,82.778789 40.5319729,82.3048398 L40.5428797,82.0073822 C40.5428797,82.0024246 40.5399051,81.99945 40.5399051,81.9944924 C40.5399051,81.9935008 40.5408966,81.9935008 40.5408966,81.9925093 L40.5408966,81.9825941 C40.5458542,81.9776364 40.5458542,81.9677212 40.5458542,81.9627636 C40.5557695,81.8457636 40.4685153,81.7386788 40.3505237,81.7287636 L39.7119814,81.6653059 L39.9271424,81.4174246 C39.9757271,81.3678483 39.9906,81.3004246 39.9757271,81.2320093 C39.9608542,81.1635941 39.9122695,81.1100517 39.8488119,81.0803059 C39.8438542,81.0803059 39.7318119,81.0267636 39.7030576,80.8998483 C39.658439,80.7055093 39.658439,80.7005517 39.6683542,80.2860941 L39.6683542,80.0273059 L39.6683542,80.0183822 L39.6683542,80.0134246 C39.6733119,80.0084669 39.6733119,79.9985517 39.6733119,79.9886364 C39.6832271,79.8716364 39.5949814,79.7645517 39.4779814,79.7546364 L38.5082695,79.6763059 C38.5231424,77.7319246 38.5518966,73.8461364 38.5518966,72.9884669 C38.5518966,72.9200517 38.5181847,72.8565941 38.4646424,72.8179246 C38.4061424,72.7742975 38.3377271,72.7643822 38.2742695,72.7832212 C38.0154814,72.8665093 37.7140576,72.9448398 37.435439,73.0082975 L37.435439,72.2279669 C37.435439,72.1545941 37.3967695,72.0861788 37.3333119,72.0475093 C37.2698542,72.0088398 37.1925153,72.0038822 37.1290576,72.0375941 C37.1241,72.0425517 36.5043966,72.3449669 35.8321424,72.3449669 C35.5882271,72.3449669 35.3641424,72.3062975 35.1737695,72.2230093 C34.7404729,72.0375941 34.2774305,71.8720093 33.7796847,71.8720093 L33.7013542,71.8720093 C33.9502271,71.6479246 34.1306847,71.3504669 34.2278542,71.0143398 C34.2427271,70.9558398 34.2228966,70.8973398 34.1792695,70.8626364 C34.1356424,70.8289246 34.0721847,70.8190093 34.0236,70.8487551 C34.0186424,70.8487551 33.8818119,70.9211364 33.6874729,70.9895517 C33.8629729,70.7367127 33.983939,70.4293398 34.0523542,70.1854246 C34.0672271,70.1318822 34.0523542,70.0733822 34.0037695,70.0396703 C33.9601424,70.0049669 33.9016424,69.9950517 33.8481,70.0247975 C33.8481,70.0247975 33.6963966,70.1021364 33.4971,70.1705517 C33.6141,69.9762127 33.7063119,69.7471703 33.7598542,69.5518398 C33.7747271,69.4982975 33.7598542,69.4397975 33.7211847,69.4050941 C33.6775576,69.3713822 33.6240153,69.3614669 33.5704729,69.3763398 C33.5704729,69.3812975 33.2581424,69.4982975 32.9854729,69.5419246 C32.7465153,69.2692551 32.6830576,68.8984246 32.6344729,68.6207975 C32.5948119,68.3768822 32.5561424,68.1627127 32.3558542,68.1627127 C32.1416847,68.1627127 32.1079729,68.4056364 32.0683119,68.6594669 C32.0296424,68.9420517 31.9761,69.3178398 31.7371424,69.5905093 C31.4833119,69.5419246 31.1908119,69.3862551 31.1858542,69.3862551 C31.1372695,69.3614669 31.0738119,69.3664246 31.0301847,69.4001364 C30.9865576,69.4348398 30.9667271,69.4933398 30.9816,69.5518398 C31.0351424,69.7471703 31.1283458,69.9762127 31.2453458,70.1705517 C31.0450576,70.1021364 30.8943458,70.0247975 30.8943458,70.0247975 C30.8398119,69.9950517 30.7813119,70.0049669 30.7376847,70.0396703 C30.6940576,70.0733822 30.6742271,70.1318822 30.6891,70.1854246 C30.7575153,70.4392551 30.8844305,70.7406788 31.0500153,70.9845941 C30.8596424,70.9211364 30.7228119,70.8487551 30.7188458,70.8487551 C30.6692695,70.8190093 30.6058119,70.8289246 30.5621847,70.8626364 C30.5185576,70.8973398 30.5036847,70.9558398 30.5185576,71.0143398 C30.6504305,71.4922551 30.9568119,71.8769669 31.3613542,72.1159246 C30.9478881,72.1645093 30.5235153,72.3152212 30.0941847,72.5690517 C29.3485576,73.0082975 28.5831,73.1005093 28.0714729,73.1005093 C27.6619729,73.1005093 27.3893034,73.0420093 27.3843458,73.0420093 C27.3208881,73.0271364 27.2574305,73.0420093 27.2038881,73.0806788 C27.1553034,73.1252975 27.1255576,73.1877636 27.1255576,73.2512212 L27.1305153,73.8025093 C26.6962271,73.7390517 26.4086847,73.6805517 26.4037271,73.6805517 C26.3402695,73.6656788 26.2728458,73.6855093 26.224261,73.7241788 C26.1746847,73.7687975 26.1459305,73.8322551 26.1459305,73.8947212 C26.1508881,73.9393398 26.2431,77.5028822 26.2728458,79.7933059 L26.2728458,79.7982636 L25.0631847,80.8909246 C25.0592186,80.8948907 25.054261,80.8998483 25.054261,80.9048059 C25.0443458,80.9097636 25.0344305,80.9196788 25.0245153,80.9295941 C24.8638881,81.0902212 24.7855576,81.3291788 24.7954729,81.6365517 C24.8004305,81.8269246 24.8341424,81.9875517 24.8876847,82.1184331 L23.8495576,83.0256788 C23.8406339,83.0355941 23.8346847,83.0405517 23.8297271,83.0504669 C23.6542271,83.2061364 23.533261,83.4639331 23.533261,83.8595517 C23.533261,84.6636788 24.059761,84.9898907 24.3423458,85.0533483 L36.7532695,88.5435178 L36.7731,88.5435178 C36.7750831,88.5445093 36.7770661,88.5445093 36.7790492,88.5445093 C36.7859898,88.5484754 36.7899559,88.5564076 36.7978881,88.5583907 C36.8197017,88.5663229 36.8434983,88.5712805 36.8663034,88.5712805 C36.9317441,88.5712805 36.9942102,88.5405432 37.0358542,88.4879924 L40.830422,83.5888653 C40.8710746,83.5373059 40.8849559,83.4698822 40.8690915,83.4064246 L40.8690915,83.4064246 Z" id="Fill-14"/>
                <path d="M40.4225085,90.3521593 L24.9745424,90.3521593 C23.9869831,90.3521593 22.9082034,90.5425322 22.1635678,91.0055746 L22.1635678,70.5603203 C25.5585508,70.3739136 28.2644237,67.5609559 28.2644237,64.1223458 C28.2644237,63.7406085 28.2277373,63.3677949 28.1632881,63.0039051 L42.4779407,63.0039051 L42.4779407,88.2977186 C42.4779407,89.6799051 41.8056864,90.3521593 40.4225085,90.3521593 L40.4225085,90.3521593 Z M18.6416695,90.3521593 L3.19271186,90.3521593 C1.81052542,90.3521593 1.13827119,89.6799051 1.13827119,88.2977186 L1.13827119,63.0039051 L15.4529237,63.0039051 C15.3884746,63.3677949 15.3488136,63.7396169 15.3488136,64.1223458 C15.3488136,67.5619475 18.0566695,70.3749051 21.4516525,70.5603203 L21.4516525,91.0045831 C20.7070169,90.5425322 19.6282373,90.3521593 18.6416695,90.3521593 L18.6416695,90.3521593 Z M21.4516525,36.7146 L21.4516525,57.6813966 C18.6833136,57.8331 16.3760339,59.7298881 15.6175169,62.2919898 L1.13827119,62.2919898 L1.13827119,36.7146 L21.4516525,36.7146 Z M20.2816525,22.7985407 C20.2766949,22.8025068 20.2667797,22.8025068 20.261822,22.8074644 L19.8671949,23.0662525 L17.1712373,24.801422 L21.6519407,18.6351254 L21.6519407,21.9210407 L21.5438644,21.9884644 L20.2816525,22.7985407 Z M17.7611949,21.4381678 L17.8831525,20.9800831 C17.8881102,20.9602525 17.8881102,20.9453797 17.8881102,20.9265407 L18.2589407,19.536422 L18.2777797,19.4680068 L21.3981102,18.4546678 L16.9322797,24.6021254 L17.7611949,21.4381678 Z M16.8648559,18.0937525 L16.8638644,18.092761 L16.4989831,17.7943119 C16.497,17.7933203 16.4950169,17.7933203 16.4940254,17.7923288 L14.0806525,15.8172102 L21.2910254,18.1572102 L18.1806102,19.1715407 L18.0398136,19.0545407 L16.8648559,18.0937525 Z M17.4280424,15.3254136 L17.4280424,15.3254136 L17.4349831,15.3254136 L17.4399407,15.3254136 L17.4855508,15.322439 L17.9109153,15.2976508 C17.9128983,15.2976508 17.9138898,15.2956678 17.9158729,15.2956678 L19.3654831,15.2133712 L19.3744068,15.2133712 L19.4725678,15.2084136 L21.4030678,17.8647102 L14.1540254,15.5098373 L17.4280424,15.3254136 Z M19.7848983,14.8712949 L20.318339,13.4920831 C20.3193305,13.4901 20.3223051,13.4891085 20.3232966,13.4871254 L20.397661,13.2947695 L20.495822,13.0488712 C20.5007797,13.0339983 20.5007797,13.0240831 20.5007797,13.0141678 L21.6519407,10.0703288 L21.6519407,17.6743373 L19.7254068,15.0229983 L19.7848983,14.8712949 Z M21.9632797,18.6351254 L26.4340678,24.7964644 L23.7480254,23.0662525 L23.3524068,22.8074644 C23.3484407,22.8025068 23.3434831,22.7985407 23.3335678,22.7985407 L22.0703644,21.9884644 L21.9632797,21.9210407 L21.9632797,18.6351254 Z M21.9632797,10.0703288 L23.1134492,13.0290407 C23.1134492,13.0339983 23.1184068,13.0439136 23.1184068,13.0488712 L23.2889492,13.4871254 C23.2939068,13.4920831 23.2939068,13.5019983 23.2988644,13.5069559 L23.830322,14.8712949 L23.888822,15.0229983 L21.9632797,17.6743373 L21.9632797,10.0703288 Z M24.1426525,15.2084136 L24.239822,15.2133712 L24.2497373,15.2133712 L25.6983559,15.2956678 C25.700339,15.2956678 25.7013305,15.2976508 25.7033136,15.2976508 L26.128678,15.322439 L26.1752797,15.3254136 L26.1792458,15.3254136 L26.187178,15.3254136 L29.446322,15.5098373 L22.2171102,17.8597525 L24.1426525,15.2084136 Z M27.1211949,17.7923288 C27.1192119,17.7933203 27.1182203,17.7933203 27.1172288,17.7943119 L26.7503644,18.092761 C26.7503644,18.0937525 26.7503644,18.0937525 26.7493729,18.0947441 L25.5754068,19.0545407 L25.4296525,19.1764983 L22.3043644,18.1572102 L29.5534068,15.8023373 L27.1211949,17.7923288 Z M26.6819492,24.6021254 L22.2270254,18.4645831 L25.3364492,19.4739559 L25.351322,19.536422 C25.351322,19.5413797 25.3562797,19.5463373 25.3562797,19.5512949 L25.7320678,20.9751254 L25.7320678,20.9800831 L25.8540254,21.4332102 L26.6819492,24.6021254 Z M25.1272373,64.1570492 L25.1292203,64.1540746 L25.1064153,64.1213542 L22.190339,59.0705237 L22.1933136,59.0705237 C22.3499746,59.1587695 22.5205169,59.2043797 22.6147119,59.2202441 C22.8715169,59.2668458 23.6111949,59.4135915 23.9126186,59.5147271 C25.6596864,60.3158797 26.8782712,62.0768288 26.8782712,64.1213542 C26.8782712,64.9076339 26.6928559,65.6492949 26.3725932,66.3136169 L25.1272373,64.1570492 Z M26.0106864,66.9541424 C25.0984831,68.3036085 23.554678,69.1920153 21.8066186,69.1920153 C20.0595508,69.1920153 18.5157458,68.3036085 17.6045339,66.9541424 L26.0106864,66.9541424 Z M18.5177288,64.1044983 L18.4850085,64.1540746 L18.4869915,64.1580407 L17.2426271,66.3136169 C16.9223644,65.6492949 16.7369492,64.9076339 16.7369492,64.1213542 C16.7369492,61.4541508 18.8072542,59.2678373 21.4238898,59.0705237 L18.5177288,64.1044983 Z M21.8066186,62.2800915 C21.0441356,62.2800915 20.318339,62.5071508 19.6996271,62.9097102 L21.8066186,59.2599051 L23.9136102,62.9097102 C23.2958898,62.5071508 22.5700932,62.2800915 21.8066186,62.2800915 L21.8066186,62.2800915 Z M23.1164237,65.3409305 C23.4049576,65.0246339 23.5854153,64.6081932 23.5854153,64.1471339 C23.5854153,63.6979729 23.4118983,63.2914475 23.1362542,62.9781254 C23.7212542,63.2230322 24.2368475,63.6226169 24.6166017,64.1540746 C24.2328814,64.6924729 23.7103475,65.0970153 23.1164237,65.3409305 L23.1164237,65.3409305 Z M21.8066186,66.0300407 C23.0083475,66.0300407 24.1218305,65.4747864 24.8535763,64.5377949 L26.0027542,66.5277864 L17.6114746,66.5277864 L18.759661,64.5377949 C19.4933898,65.4747864 20.6058814,66.0300407 21.8066186,66.0300407 L21.8066186,66.0300407 Z M21.546839,62.7233034 C21.6331017,62.7163627 21.7193644,62.707439 21.8066186,62.707439 C21.8938729,62.707439 21.9801356,62.7163627 22.0663983,62.7233034 C22.7426186,62.8462525 23.2582119,63.4362102 23.2582119,64.1471339 C23.2582119,64.9463034 22.6067797,65.5977356 21.8066186,65.5977356 C21.0074492,65.5977356 20.3570085,64.9463034 20.3570085,64.1471339 C20.3570085,63.4362102 20.8716102,62.8462525 21.546839,62.7233034 L21.546839,62.7233034 Z M20.0298051,64.1471339 C20.0298051,64.6081932 20.2102627,65.0246339 20.4987966,65.339939 C19.9048729,65.0970153 19.3833305,64.6924729 18.9996102,64.1540746 C19.3783729,63.6226169 19.8929746,63.2230322 20.4779746,62.9781254 C20.2023305,63.2914475 20.0298051,63.6979729 20.0298051,64.1471339 L20.0298051,64.1471339 Z M21.8066186,70.1518119 C18.4820339,70.1518119 15.7771525,67.445939 15.7771525,64.1223458 C15.7771525,60.795778 18.4820339,58.0899051 21.8066186,58.0899051 C21.8829661,58.0899051 21.9573305,58.0968458 22.033678,58.1008119 C22.0792881,58.1543542 22.1447288,58.2257441 22.2270254,58.3100237 C22.0901949,58.3596 21.9731949,58.4299983 21.918661,58.5351 C21.9037881,58.5638542 21.9018051,58.5955831 21.8968475,58.6263203 C21.8661102,58.6263203 21.8373559,58.6243373 21.8066186,58.6243373 C18.7765169,58.6243373 16.3096017,61.090261 16.3096017,64.1213542 C16.3096017,67.1514559 18.7765169,69.6173797 21.8066186,69.6173797 C24.8387034,69.6173797 27.3056186,67.1514559 27.3056186,64.1213542 C27.3056186,61.965778 26.0572881,60.0967525 24.2457712,59.197439 L24.239822,59.2033881 C24.2249492,59.1895068 24.2100763,59.1746339 24.1902458,59.1657102 C23.8779153,59.0149983 22.7009746,58.8028119 22.6890763,58.8008288 C22.5750508,58.7809983 22.4709407,58.7453034 22.3985593,58.7046508 C22.4768898,58.6798627 22.5819915,58.6570576 22.6781695,58.6441678 C22.7594746,58.6342525 22.8278898,58.5787271 22.854661,58.5013881 C22.8814322,58.4230576 22.8596186,58.3367949 22.8021102,58.280278 C22.6087627,58.0908966 22.3787288,57.8568966 22.3489831,57.8202102 C22.3479915,57.8162441 22.3440254,57.8023627 22.3588983,57.7785661 C22.3826949,57.734939 22.5056441,57.5852186 23.0638729,57.4870576 C23.5417881,57.4017864 23.7966102,57.7220492 24.1267881,58.2178119 C24.2824576,58.4498288 24.4331695,58.6669729 24.6275085,58.7849644 L24.6215593,58.7909136 C26.5332203,59.8022695 27.8380678,61.8120915 27.8380678,64.1223458 C27.8380678,67.445939 25.1321949,70.1518119 21.8066186,70.1518119 L21.8066186,70.1518119 Z M42.4779407,36.7146 L42.4779407,62.2919898 L27.9977034,62.2919898 C27.5078898,60.6391169 26.3735847,59.2608966 24.8853051,58.4498288 C24.8773729,58.4448712 24.8724153,58.4379305 24.8644831,58.4339644 C24.7474831,58.378439 24.6126356,58.1751763 24.4817542,57.9798458 C24.1852881,57.5356424 23.7787627,56.9278373 22.9895085,57.0666508 C22.6067797,57.1340746 22.3400593,57.2411593 22.1635678,57.3809644 L22.1635678,36.7146 L42.4779407,36.7146 Z M22.1685254,35.5763288 L22.1685254,22.5595831 L23.0549492,23.1247525 L25.6735678,31.177922 C25.6874492,31.2314644 25.7271102,31.2750915 25.7806525,31.3048373 C25.8094068,31.3187186 25.8441102,31.3236763 25.8728644,31.3236763 C25.8976525,31.3236763 25.9214492,31.3236763 25.9412797,31.3147525 L26.2238644,31.2215492 C26.3359068,31.1878373 26.3993644,31.0658797 26.3606949,30.9538373 L24.0206949,23.748422 L26.7216102,25.4845831 L32.0302373,32.7960915 C32.0738644,32.8545915 32.137322,32.8892949 32.2057373,32.8892949 C32.2493644,32.8892949 32.2929915,32.874422 32.3267034,32.8446763 L32.5706186,32.6691763 C32.6152373,32.6354644 32.6489492,32.5868797 32.6588644,32.5333373 C32.6687797,32.4748373 32.6489492,32.4163373 32.6201949,32.3717186 L27.2134068,24.9283373 L26.4191949,21.9061678 L32.6152373,26.4106678 C32.6539068,26.439422 32.6975339,26.4493373 32.741161,26.4493373 L32.7758644,26.4493373 C32.8343644,26.439422 32.8829492,26.4106678 32.916661,26.3610915 L33.092161,26.1231254 C33.1605763,26.0249644 33.1367797,25.8930915 33.0435763,25.8256678 L26.1266949,20.7946678 L25.8679068,19.8100831 L38.7131186,23.982422 C38.7379068,23.9923373 38.7567458,23.9923373 38.7815339,23.9923373 C38.8112797,23.9923373 38.8449915,23.9873797 38.8737458,23.9725068 C38.9272881,23.9437525 38.9669492,23.9001254 38.981822,23.8465831 L39.0740339,23.5630068 C39.1127034,23.4509644 39.0492458,23.3290068 38.9372034,23.2952949 L26.1465254,19.1368373 L26.9615593,18.4715237 L35.4331525,18.4715237 C35.5501525,18.4715237 35.6463305,18.3763373 35.6463305,18.2573542 L35.6463305,17.9589051 C35.6463305,17.9023881 35.6235254,17.8478542 35.5828729,17.8081932 C35.5432119,17.7685322 35.488678,17.7467186 35.4331525,17.7467186 L27.8489746,17.7467186 L30.3327458,15.7200407 L38.9381949,12.9249305 C39.0492458,12.8882441 39.1117119,12.7682695 39.0750254,12.6552356 L38.9828136,12.3716593 C38.9649661,12.3181169 38.9262966,12.2734983 38.8767203,12.2477186 C38.8261525,12.221939 38.7676525,12.2179729 38.7141102,12.2338373 L29.8617712,15.1102525 L29.8607797,15.1102525 L26.7939915,14.9347525 L26.793,14.9347525 L33.0435763,10.3935661 C33.1387627,10.3251508 33.1605763,10.1903034 33.0911695,10.0951169 L32.914678,9.85417627 C32.8819576,9.80757458 32.8323814,9.77683729 32.7758644,9.76890508 C32.720339,9.75898983 32.661839,9.77386271 32.6172203,9.80559153 L25.6507627,14.8673288 L25.6487797,14.8663373 L24.6542797,14.8127949 L32.6201949,3.84454068 C32.6539068,3.80091356 32.6687797,3.74241356 32.6588644,3.68391356 C32.6489492,3.63037119 32.6152373,3.58178644 32.5706186,3.54708305 L32.3326525,3.37158305 C32.2344915,3.30415932 32.1026186,3.32299831 32.0302373,3.42115932 L24.0841525,14.3547102 L23.7182797,13.4038373 L26.3616864,5.26143051 C26.3805254,5.20788814 26.3755678,5.14938814 26.3487966,5.09882034 C26.325,5.04924407 26.2793898,5.01057458 26.2248559,4.99272712 L25.9422712,4.90051525 C25.8302288,4.86581186 25.7082712,4.92629492 25.6725763,5.03833729 L23.3028305,12.3329898 L22.1705085,9.42682881 L22.1705085,0.214566102 C22.1705085,0.0965745763 22.0743305,0.000396610169 21.9573305,0.000396610169 L21.6578898,0.000396610169 C21.5398983,0.000396610169 21.4437203,0.0965745763 21.4437203,0.214566102 L21.4437203,9.42583729 L21.4417373,9.43178644 L20.3123898,12.3329898 L17.9416525,5.03833729 C17.9247966,4.98479492 17.8861271,4.93918475 17.8355593,4.91439661 C17.7859831,4.88762542 17.7264915,4.88365932 17.6739407,4.90051525 L17.3883814,4.99371864 C17.2773305,5.02941356 17.2158559,5.15037966 17.2515508,5.26242203 L19.8959492,13.4018542 L19.5261102,14.3497525 L11.5849831,3.42115932 C11.5165678,3.32299831 11.3797373,3.30415932 11.2825678,3.37158305 L11.0436102,3.54708305 C10.9950254,3.58178644 10.9662712,3.63037119 10.9563559,3.68391356 C10.9513983,3.74241356 10.9613136,3.80091356 10.9950254,3.84454068 L18.9609407,14.8127949 L17.9664407,14.8663373 L17.9644576,14.8673288 L10.998,9.80559153 C10.9513983,9.77386271 10.8948814,9.75898983 10.8383644,9.76890508 C10.782839,9.77683729 10.7322712,9.80757458 10.6995508,9.85417627 L10.5240508,10.0951169 C10.4546441,10.1903034 10.4754661,10.3251508 10.5706525,10.3935661 L16.8222203,14.9347525 L16.8202373,14.9347525 L13.7544407,15.1102525 L13.7524576,15.1102525 L4.90111017,12.2338373 C4.8475678,12.2179729 4.78807627,12.221939 4.73750847,12.2477186 C4.6879322,12.2734983 4.64926271,12.3181169 4.63141525,12.3716593 L4.53920339,12.6562271 C4.50251695,12.7682695 4.56498305,12.8892356 4.67702542,12.9249305 L13.2824746,15.7210322 L15.7662458,17.7467186 L8.1820678,17.7467186 C8.06407627,17.7467186 7.96888983,17.8409136 7.96888983,17.9598966 L7.96888983,18.2573542 C7.96888983,18.3763373 8.06407627,18.4715237 8.1820678,18.4715237 L16.6526695,18.4715237 L17.4686949,19.1368373 L4.67702542,23.2952949 C4.56498305,23.3290068 4.50152542,23.4509644 4.54118644,23.5630068 L4.63339831,23.8465831 C4.64827119,23.9001254 4.68694068,23.9437525 4.73651695,23.9725068 C4.77022881,23.9873797 4.79898305,23.9923373 4.83368644,23.9923373 C4.85748305,23.9923373 4.87731356,23.9923373 4.90210169,23.982422 L17.746322,19.8100831 L17.4885254,20.7996254 L17.4885254,20.8045831 L10.5706525,25.8256678 C10.4734831,25.8930915 10.4536525,26.0249644 10.5220678,26.1231254 L10.6975678,26.3610915 C10.7322712,26.4106678 10.7808559,26.439422 10.8393559,26.4493373 C10.8492712,26.4493373 10.8591864,26.4542949 10.8730678,26.4542949 C10.9166949,26.4542949 10.9613136,26.439422 10.9999831,26.4106678 L17.1960254,21.9111254 L16.400822,24.9283373 L16.400822,24.9332949 L10.9950254,32.3717186 C10.9613136,32.4163373 10.9513983,32.4748373 10.9563559,32.5333373 C10.9662712,32.5868797 10.9999831,32.6354644 11.0436102,32.6691763 L11.2825678,32.8446763 C11.3222288,32.874422 11.3658559,32.8892949 11.4094831,32.8892949 C11.4778983,32.8892949 11.5413559,32.8545915 11.5849831,32.7960915 L16.8936102,25.4845831 L19.5945254,23.748422 L17.2495678,30.9538373 C17.2346949,31.0073797 17.2396525,31.0658797 17.2644407,31.119422 C17.2882373,31.1680068 17.3328559,31.2066763 17.3903644,31.2215492 L17.6739407,31.3147525 C17.6927797,31.3236763 17.7175678,31.3236763 17.7373983,31.3236763 C17.8296102,31.3236763 17.9128983,31.2701339 17.9416525,31.177922 L20.5592797,23.1247525 L20.5642373,23.1247525 L21.4417373,22.5595831 L21.4417373,35.5763288 L0,35.5763288 L0,88.2977186 C0,90.3273712 1.16405085,91.491422 3.19271186,91.491422 L18.6416695,91.491422 C19.3149153,91.491422 21.2384746,91.6827864 21.2384746,92.5315322 L21.2394661,93.1006678 L22.3777373,93.1006678 L22.3777373,92.5315322 C22.3777373,91.6827864 24.3003051,91.491422 24.9745424,91.491422 L40.4225085,91.491422 C42.452161,91.491422 43.6162119,90.3273712 43.6162119,88.2977186 L43.6162119,35.5763288 L22.1685254,35.5763288 Z" id="Fill-15"/>
                <path d="M21.8067178,64.8885966 C22.2251415,64.8885966 22.5632517,64.5504864 22.5632517,64.1330542 C22.5632517,63.715622 22.2251415,63.3765203 21.8067178,63.3765203 C21.3902771,63.3765203 21.0511754,63.715622 21.0511754,64.1330542 C21.0511754,64.5504864 21.3902771,64.8885966 21.8067178,64.8885966" id="Fill-16"/>
                <path d="M17.4343881,84.9103703 C17.4333966,84.9202856 17.4324051,84.9292093 17.4324051,84.9391246 L17.4324051,88.4887856 L16.1721763,88.4887856 L16.1721763,84.9391246 C16.1721763,84.8221246 16.0769898,84.7259466 15.9589983,84.7259466 L4.49696441,84.7259466 L4.49696441,83.3120314 L17.4343881,83.3120314 L17.4343881,84.9103703 Z M6.7120322,80.0697432 L8.42043051,82.8846839 L5.0036339,82.8846839 L6.7120322,80.0697432 Z M6.08836271,79.8099636 C6.17065932,79.8744127 6.26187966,79.9269636 6.3610322,79.9646415 L5.51724407,81.3547602 L6.08836271,79.8099636 Z M6.71897288,78.402989 C7.05014237,78.402989 7.31983729,78.6716924 7.31983729,79.0038534 C7.31983729,79.3350229 7.05014237,79.6047178 6.71897288,79.6047178 C6.38582034,79.6047178 6.11711695,79.3350229 6.11711695,79.0038534 C6.11711695,78.6716924 6.38582034,78.402989 6.71897288,78.402989 L6.71897288,78.402989 Z M7.90682034,81.3547602 L7.06501525,79.9676161 C7.1641678,79.9319212 7.25637966,79.8813534 7.33867627,79.8178958 L7.90682034,81.3547602 Z M9.71337966,78.6330229 C9.71337966,77.9657263 9.87698136,77.3380907 10.1615492,76.7808534 C10.3588627,76.8928958 10.6285576,76.9573449 10.7505153,76.9672602 C10.7812525,76.9742008 10.8585915,77.0356754 11.0241763,77.3737856 C11.0628458,77.4540992 11.0797017,77.4868195 11.1044898,77.5125992 C11.1540661,77.5611839 11.2363627,77.6157178 11.3662525,77.6990059 C11.4713542,77.7664297 11.6647017,77.8933449 11.6914729,77.9310229 C11.7251847,78.0470314 11.8352441,78.1085059 11.929439,78.1580822 C11.8877949,78.1818788 11.8382186,78.2046839 11.8025237,78.2225314 C11.7321254,78.2572347 11.6637102,78.2899551 11.6111593,78.3226754 C11.4525153,78.4228195 11.4624305,78.6885483 11.4961424,79.0831754 C11.5040746,79.1753873 11.5139898,79.280489 11.5090322,79.3171754 C11.5020915,79.3895568 11.4763119,79.6116585 12.1535237,79.8585483 C12.2387949,79.8892856 12.301261,80.1213025 12.3240661,80.2075653 C12.3359644,80.2521839 12.3458797,80.2888703 12.3518288,80.3017602 C12.3647186,80.3562941 12.3617441,80.627972 12.359761,80.7895907 C12.3567864,80.995828 12.3548034,81.1158025 12.3647186,81.1703364 C12.3706678,81.2040483 12.3825661,81.3617008 12.3944644,81.5134042 C12.4321424,81.992311 12.4529644,82.205489 12.476761,82.2778703 C12.5035322,82.36215 12.5788881,82.4107347 12.6770492,82.4107347 C12.7980153,82.4107347 12.9566593,82.3284381 13.001278,82.3026585 C13.0310237,82.2867941 13.0528373,82.2600229 13.0657271,82.2282941 C13.0746508,82.2005314 13.3195576,81.5352178 13.4097864,81.0483788 C13.471261,80.7152263 13.4960492,80.6904381 13.567439,80.6140907 C13.5952017,80.5873195 13.625939,80.5545992 13.6646085,80.5079975 C13.8182949,80.3196076 14.0027186,80.1341924 14.1375661,80.0340483 C14.327939,79.8912686 14.5540068,79.3568364 14.5133542,79.046489 C14.4717102,78.7361415 14.0384136,78.5507263 13.6814644,78.4495907 C13.5138966,78.4010059 13.101422,78.2374042 13.0488712,78.2017093 C12.9992949,78.15015 12.163439,77.4540992 11.9522441,77.368828 C11.8431763,77.3252008 11.5030831,76.8324127 11.4713542,76.6420398 C11.4495407,76.5081839 11.5645576,76.3227686 11.6299983,76.2474127 C11.6518119,76.2503873 11.6884983,76.2632771 11.716261,76.2722008 C11.755922,76.2860822 11.7975661,76.2999636 11.8411932,76.3069042 C11.870939,76.3118619 11.9125831,76.3624297 11.9175407,76.3802771 C11.9175407,76.5756076 11.929439,76.7530907 12.0682525,76.7996924 C12.0831254,76.8036585 12.1108881,76.8086161 12.125761,76.8086161 C12.2734983,76.8086161 12.4727949,76.6232008 12.5491424,76.4110144 C12.5997102,76.2751754 12.7811593,76.1343788 12.9358373,76.064972 C12.9467441,76.0610059 12.9566593,76.0580314 12.9665746,76.0580314 C13.0082186,76.0580314 13.0667186,76.1036415 13.118278,76.1433025 C13.1440576,76.1621415 13.1678542,76.1809805 13.1906593,76.1958534 C13.3165831,76.2801331 13.5416593,76.2137008 13.6774983,76.0600144 C13.7756593,75.947972 13.8192864,75.81015 13.8024305,75.6693534 C13.7826,75.5077347 13.7865661,75.4452686 13.7925153,75.3411585 C13.7974729,75.2727432 13.8024305,75.1914381 13.8024305,75.0635314 C13.8024305,74.7898703 13.6299051,74.7690483 13.5763627,74.7690483 C13.5079475,74.7690483 13.4415153,74.796811 13.3780576,74.8255653 C13.3344305,74.8453958 13.2789051,74.8691924 13.2491593,74.8691924 C13.2442017,74.8682008 13.2283373,74.8672093 13.2233797,74.8672093 C13.0667186,74.8672093 12.9288966,75.0060229 12.7841339,75.1527686 C12.7167102,75.2201924 12.6145831,75.323311 12.5699644,75.3371924 C12.4926254,75.3599975 12.4420576,75.2667941 12.4321424,75.1745822 C12.4232186,75.0813788 12.4043797,74.9247178 12.3885153,74.7958195 C12.8317271,74.6312263 13.3096424,74.5360398 13.8103627,74.5360398 C13.8767949,74.5360398 13.9412441,74.5429805 14.0066847,74.5459551 L14.0017271,74.560828 C13.995778,74.5806585 13.9928034,74.600489 13.9947864,74.619328 C13.997761,74.6490737 14.0255237,74.9098449 14.0889814,75.0476669 C14.1623542,75.2082941 14.2823288,75.2777008 14.4092441,75.3391754 C14.4687356,75.3679297 14.5282271,75.4700568 14.5321932,75.5156669 C14.5450831,75.6634042 14.6928203,75.7625568 14.8990576,75.7625568 C14.9139305,75.7625568 14.9297949,75.7625568 14.9436763,75.7605737 C15.1281,75.7447093 15.1528881,75.5107093 15.1816424,75.0982347 C15.1836254,75.0446924 15.1866,75.0020568 15.1895746,74.9861924 C15.1965153,74.9604127 15.2322102,74.8900144 15.2748458,74.8116839 C15.4900068,74.894972 15.6952525,74.9951161 15.8915746,75.1111246 C15.8895915,75.1121161 15.8866169,75.1140992 15.8856254,75.1150907 C15.7825068,75.16665 15.7240068,75.2677856 15.7240068,75.3956924 C15.7240068,75.4680737 15.7597017,75.5513619 15.8429898,75.6762941 C15.8608373,75.7030653 15.8806678,75.7278534 15.9014898,75.75165 C15.9352017,75.7903195 15.9480915,75.8071754 15.9510661,75.8279975 C15.9540407,75.8567517 15.9580068,75.8815398 15.9629644,75.906328 C15.9718881,75.9638364 15.9808119,76.0094466 15.9738712,76.0947178 C15.9669305,76.1750314 15.926278,76.2137008 15.8846339,76.2553449 L15.8737271,76.2672432 C15.8301,76.3108703 15.7616847,76.4100229 15.7230153,76.4685229 C15.6962441,76.4794297 15.673439,76.4883534 15.6684814,76.4893449 C15.6000661,76.4764551 15.4562949,76.4754636 15.4285322,76.4754636 C15.3938288,76.4754636 15.3601169,76.4873619 15.3353288,76.5091754 C15.3174814,76.5240483 15.2322102,76.5994042 15.1875915,76.6747602 C15.1360322,76.7600314 15.1697441,76.8512517 15.1935407,76.9176839 C15.1994898,76.9345398 15.2094051,76.9623025 15.2123797,76.9781669 C15.1786678,77.0495568 15.0666254,77.312311 15.1033119,77.4213788 C15.1290915,77.5026839 15.1955237,77.5502771 15.5147949,77.6216669 C15.5336339,77.6256331 15.5544559,77.6286076 15.5762695,77.6286076 C15.7002102,77.6286076 16.0918627,77.5155737 16.0918627,77.3172686 C16.0918627,77.2875229 16.1087186,77.15565 16.1235915,77.0416246 C16.1344983,77.0118788 16.1533373,76.9751924 16.1672186,76.9543703 L16.1741593,76.9533788 C16.2316678,76.942472 16.2990915,76.9394975 16.3080153,76.942472 C16.3367695,76.9523873 16.396261,76.98015 16.511278,77.0555059 C16.5449898,77.078311 16.5856424,77.1060737 16.6451339,77.0991331 C16.6461254,77.0991331 16.6639729,77.1011161 16.7224729,77.1189636 C16.8979729,77.1794466 17.0010915,77.2022517 17.1289983,77.1863873 C17.2043542,77.176472 17.2459983,77.1506924 17.2777271,77.1268958 L17.2807017,77.1268958 C17.2727695,77.2032432 17.273761,77.2865314 17.3005322,77.3489975 C17.3223458,77.3995653 17.3392017,77.4570737 17.3520915,77.5026839 C17.3223458,77.5373873 17.2658288,77.5849805 17.2360831,77.6038195 C17.194439,77.6097686 17.0952864,77.6315822 16.8474051,77.7019805 C16.8414559,77.7039636 16.8355068,77.7059466 16.8295576,77.7089212 C16.6907441,77.7684127 16.513261,77.8556669 16.4557525,77.9280483 C16.4517864,77.9320144 16.1771339,78.3732432 16.3417271,78.5378364 C16.3496593,78.5507263 16.3645322,78.5953449 16.3744475,78.6290568 C16.4032017,78.7182941 16.4388966,78.831328 16.5152441,78.9255229 C16.5489559,78.9661754 16.5747356,79.046489 16.5995237,79.125811 C16.6362102,79.2398364 16.6788458,79.3697263 16.7651085,79.4718534 C16.8602949,79.5829042 16.9118542,79.6870144 16.922761,79.7871585 C16.9306932,79.8635059 16.9733288,79.9477856 17.0238966,80.0469381 C17.0595915,80.118328 17.1081763,80.216489 17.1121424,80.2581331 C17.1171,80.3087008 17.1171,80.3751331 17.1180915,80.4415653 C17.1200746,80.5783958 17.1220576,80.6636669 17.1399051,80.7211754 C17.1418881,80.7677771 17.1240407,80.9125398 17.1012356,81.0622602 C16.3536254,82.0716331 15.1588373,82.7300059 13.8103627,82.7300059 C11.5516678,82.7300059 9.71337966,80.8917178 9.71337966,78.6330229 L9.71337966,78.6330229 Z M12.6770492,82.1271585 L12.6770492,82.2689466 L12.6760576,82.1271585 L12.6770492,82.1271585 Z M12.1148542,74.9078619 C12.1287356,75.0159381 12.1416254,75.1279805 12.1495576,75.2023449 C12.1783119,75.4908788 12.4103288,75.6822432 12.652261,75.6088703 C12.7652949,75.5751585 12.8733712,75.4670822 12.9864051,75.3520653 C13.0528373,75.2856331 13.1777695,75.1607008 13.2194136,75.1527686 C13.3165831,75.1607008 13.412761,75.1220314 13.4930746,75.0863364 C13.5000153,75.0823703 13.508939,75.0793958 13.5178627,75.0754297 C13.5178627,75.187472 13.5129051,75.2598534 13.508939,75.3223195 C13.5019983,75.4303958 13.4960492,75.5156669 13.5198458,75.7040568 C13.5287695,75.7804042 13.4950576,75.8369212 13.4643203,75.8716246 C13.4206932,75.9202093 13.3651678,75.9469805 13.335422,75.9499551 C13.3215407,75.9400398 13.3076593,75.9291331 13.2927864,75.9172347 C13.2134644,75.8577432 13.1053881,75.7734636 12.9665746,75.7734636 C12.9160068,75.7734636 12.867422,75.7853619 12.8208203,75.8051924 C12.6254898,75.8914551 12.3686847,76.0778619 12.282422,76.3138449 C12.2625915,76.3673873 12.2328458,76.4129975 12.2031,76.4467093 C12.2021085,76.4268788 12.2021085,76.4050653 12.2021085,76.3802771 C12.2021085,76.240472 12.065278,76.0560483 11.8877949,76.0272941 C11.8620153,76.0223364 11.8342525,76.0124212 11.8054983,76.0025059 C11.7489814,75.9826754 11.6845322,75.9608619 11.6181,75.9608619 C11.5308458,75.9608619 11.4753203,75.9995314 11.4435915,76.0312602 C11.363278,76.1105822 11.1431593,76.4050653 11.189761,76.68765 C11.2304136,76.9295822 11.6062017,77.5363958 11.8471424,77.6325737 C11.9919051,77.6910737 12.7742186,78.3296161 12.8495746,78.4010059 C12.942778,78.4961924 13.508939,78.695489 13.6041254,78.7222602 C14.0175915,78.8402517 14.2188712,78.9929466 14.231761,79.0851585 C14.2615068,79.3062686 14.0622102,79.7346076 13.9670237,79.806989 C13.8163119,79.9190314 13.6110661,80.1232856 13.4444898,80.3275398 C13.412761,80.3662093 13.3859898,80.3929805 13.3631847,80.4177686 C13.2451932,80.5397263 13.2015661,80.6111161 13.1301763,80.9968195 C13.0587864,81.3845059 12.8763458,81.912989 12.8168542,82.0775822 C12.7871085,82.0924551 12.7583542,82.1043534 12.7335661,82.1122856 C12.7157186,81.9655398 12.691922,81.6670907 12.6790322,81.4915907 C12.6611847,81.2853534 12.652261,81.1673619 12.6453203,81.1237347 C12.6393712,81.0880398 12.6413542,80.9174975 12.6433373,80.7915737 C12.6482949,80.4038873 12.6463119,80.2720144 12.6205322,80.2055822 C12.6135915,80.1907093 12.6066508,80.1659212 12.5997102,80.1351839 C12.5531085,79.9616669 12.476761,79.6721415 12.2506932,79.5908364 C11.9562102,79.4827602 11.8173966,79.3816246 11.7926085,79.338989 C11.7985576,79.2745398 11.7906254,79.1793534 11.7797186,79.0593788 C11.7688119,78.9195737 11.7440237,78.6350059 11.774761,78.5556839 C11.8154136,78.5318873 11.8719305,78.5051161 11.9274559,78.4783449 C12.1148542,78.3871246 12.2625915,78.3157347 12.2883712,78.1868364 C12.3181169,78.0381076 12.1743458,77.9637432 12.0781678,77.9151585 C12.0424729,77.897311 11.9750492,77.8606246 11.9651339,77.8526924 C11.931422,77.7366839 11.7975661,77.6395144 11.521922,77.4600483 C11.4416085,77.408489 11.3513797,77.349989 11.3137017,77.3192517 C11.3057695,77.3033873 11.2938712,77.2785992 11.2799898,77.2488534 C11.1431593,76.9702347 10.9924475,76.6995483 10.7713373,76.6826924 C10.6245915,76.6717856 10.4183542,76.5994042 10.2993712,76.532972 C10.7257271,75.8240314 11.3583203,75.2539042 12.1148542,74.9078619 L12.1148542,74.9078619 Z M14.2991847,74.5677686 C14.5411169,74.5975144 14.7771,74.6451076 15.0051508,74.7155059 C14.9595407,74.7997856 14.9188881,74.8830737 14.9099644,74.9346331 C14.9050068,74.9554551 14.9010407,75.0089975 14.8970746,75.0784042 C14.8911254,75.1656585 14.8772441,75.3728873 14.854439,75.4750144 C14.8365915,75.4720398 14.8227102,75.4680737 14.8127949,75.4641076 C14.7899898,75.3302517 14.6819136,75.1567347 14.5331847,75.0833619 C14.4290746,75.0327941 14.3785068,75.0000737 14.3477695,74.9296754 C14.3180237,74.8642347 14.2932356,74.7164975 14.2823288,74.619328 L14.2991847,74.5677686 Z M16.0125407,75.3699127 C16.0492271,75.3510737 16.0988034,75.3133958 16.1473881,75.2737347 C16.7343712,75.6832347 17.2073288,76.2434466 17.5156932,76.8968619 C17.5037949,76.8889297 17.4968542,76.8760398 17.4829729,76.8710822 C17.4720661,76.8690992 17.3778712,76.842328 17.2777271,76.842328 C17.1974136,76.842328 17.1527949,76.8690992 17.1171,76.8948788 C17.1052017,76.900828 17.1052017,76.900828 17.0933034,76.902811 C17.0248881,76.9117347 16.9723373,76.902811 16.8127017,76.8502602 C16.745278,76.8284466 16.6996678,76.8165483 16.6609983,76.8135737 C16.5489559,76.7402008 16.4656678,76.6945907 16.3972525,76.6717856 C16.3159475,76.6450144 16.2029136,76.6579042 16.1235915,76.6737686 L16.0918627,76.6787263 C15.9570153,76.7005398 15.8826508,76.8671161 15.848939,76.9632941 C15.8469559,76.9722178 15.8459644,76.98015 15.8439814,76.9880822 C15.8380322,77.0356754 15.8182017,77.174489 15.811261,77.2607517 C15.7547441,77.2954551 15.6347695,77.3430483 15.577261,77.3440398 C15.4939729,77.3261924 15.4344814,77.3093364 15.3948203,77.2974381 C15.4146508,77.2319975 15.4453881,77.1437517 15.4681932,77.1021076 C15.5266932,77.000972 15.4860407,76.8919042 15.460261,76.8205144 C15.458278,76.8115907 15.4543119,76.8026669 15.4513373,76.7937432 C15.460261,76.7828364 15.4711678,76.7719297 15.4820746,76.7600314 C15.5385915,76.7610229 15.5931254,76.7639975 15.6139475,76.7679636 C15.7031847,76.7868025 15.8469559,76.7263195 15.8826508,76.7094636 C15.9054559,76.6975653 15.9252864,76.6807093 15.9381763,76.6588958 C15.9857695,76.5845314 16.0512102,76.4903364 16.082939,76.4595992 C16.1384644,76.4050653 16.2415831,76.3039297 16.2574475,76.1185144 C16.2673627,75.9965568 16.2544729,75.9221924 16.2435661,75.8567517 C16.2396,75.8369212 16.2356339,75.8170907 16.2336508,75.7932941 C16.2197695,75.6842263 16.1612695,75.615811 16.1166508,75.5652432 C16.103761,75.5513619 16.0908712,75.5354975 16.0799644,75.5196331 C16.0145237,75.4204805 16.0095661,75.3937093 16.0085746,75.3947008 C16.0085746,75.3758619 16.0125407,75.3699127 16.0125407,75.3699127 L16.0125407,75.3699127 Z M17.5632864,77.2399297 C17.5563458,77.2131585 17.5652695,77.115989 17.5821254,77.0416246 C17.5831169,77.03865 17.5801424,77.0356754 17.5811339,77.0327008 C17.7903458,77.5244975 17.9073458,78.0648788 17.9073458,78.6330229 C17.9073458,79.3419636 17.7258966,80.0092602 17.4066254,80.5922771 C17.4046424,80.5476585 17.4036508,80.4851924 17.4026593,80.4385907 C17.4016678,80.3642263 17.4006763,80.2888703 17.3957186,80.2333449 C17.3867949,80.1381585 17.3312695,80.0261161 17.2787186,79.9190314 C17.2509559,79.8644975 17.2093119,79.7831924 17.2063373,79.7564212 C17.1884898,79.5987686 17.1161085,79.4440907 16.9822525,79.2884212 C16.9326763,79.2289297 16.9009475,79.1317602 16.8702102,79.0385568 C16.8374898,78.9344466 16.8027864,78.8273619 16.7363542,78.7450653 C16.6927271,78.6925144 16.667939,78.6131924 16.6461254,78.5427941 C16.6253034,78.4793364 16.6084475,78.421828 16.5757271,78.3752263 C16.5826678,78.3078025 16.6461254,78.1471754 16.6719051,78.1114805 C16.6976847,78.0876839 16.8186508,78.0242263 16.9346593,77.9736585 C17.0724814,77.9330059 17.2380661,77.8893788 17.2658288,77.8864042 C17.4036508,77.8864042 17.5870831,77.6652941 17.5880746,77.6623195 C17.6198034,77.6226585 17.6604559,77.5592008 17.6406254,77.4808703 C17.6267441,77.4283195 17.6009644,77.3291669 17.5632864,77.2399297 L17.5632864,77.2399297 Z M17.6475661,82.8846839 L15.3422695,82.8846839 C17.0833881,82.2550653 18.3337017,80.5893025 18.3337017,78.6330229 C18.3337017,76.1393364 16.3050407,74.1096839 13.8103627,74.1096839 C11.3156847,74.1096839 9.28702373,76.1393364 9.28702373,78.6330229 C9.28702373,80.5893025 10.5373373,82.2550653 12.2784559,82.8846839 L8.85174407,82.8846839 L7.60638814,79.5134975 C7.69364237,79.3627856 7.74718475,79.1902602 7.74718475,79.0038534 C7.74718475,78.4367008 7.2851339,77.9756415 6.71897288,77.9756415 C6.15182034,77.9756415 5.68976949,78.4367008 5.68976949,79.0038534 C5.68976949,79.184311 5.74132881,79.3518788 5.82362542,79.4996161 L4.57232034,82.8846839 L4.28378644,82.8846839 C4.16579492,82.8846839 4.07060847,82.9808619 4.07060847,83.0988534 L4.07060847,84.9391246 C4.07060847,85.0571161 4.16579492,85.1523025 4.28378644,85.1523025 L15.7448288,85.1523025 L15.7448288,88.7029551 C15.7448288,88.8209466 15.8410068,88.9161331 15.9589983,88.9161331 L17.6455831,88.9161331 C17.7645661,88.9161331 17.858761,88.8209466 17.858761,88.7029551 L17.858761,84.9678788 C17.8597525,84.9589551 17.8607441,84.9490398 17.8607441,84.9391246 L17.8607441,83.0988534 C17.8607441,82.9808619 17.7655576,82.8846839 17.6475661,82.8846839 L17.6475661,82.8846839 Z" id="Fill-17"/>
            </g>
        </g>
    </g>
</svg>