<svg xmlns="http://www.w3.org/2000/svg" id="svg19" version="1.1" viewBox="0 0 404.64 80.11"><defs id="defs1"><style id="style1">.cls-1{fill:#93d5f6}.cls-2{fill:#004a91}</style></defs><g id="Capa_2" data-name="Capa 2"><g id="Home_v.5" data-name="Home v.5"><path id="polygon1" d="m32.73 14.02-8.98 5.19-11.61 6.7v40.81L0 59.71V18.89l17.67-10.2L32.73 0v14.02z" class="cls-1" style="fill:#fff"/><path id="polygon2" d="m68.07 61.22-15.05 8.69-17.67 10.2-11.06-6.38V59.71l11.06 6.38 11.6-6.69 8.98-5.19 12.14 7.01z" class="cls-2" style="fill:#fff"/><path id="polygon3" d="m37.97 0 15.05 8.69 17.67 10.2v37.79l-12.14-7.01V25.91l-11.6-6.7-8.98-5.19V0z" style="fill:#fff"/><path id="polygon4" d="m35.35 26.55 5.52 3.19 5.51 3.19v12.74l-5.51 3.19-5.52 3.19-5.52-3.19-5.52-3.19V32.93l5.52-3.19 5.52-3.19z" class="cls-1" style="fill:#fff"/><path id="path4" d="M87.6 27.82h10.9c6.06 0 8.36 3.83 8.36 7.75s-2.3 7.75-8.36 7.75h-5.59V52H87.6Zm5.31 11.37H97c2.44 0 4.67-.54 4.67-3.62S99.48 32 97 32h-4.09Z" class="cls-2" style="fill:#fff"/><path id="path5" d="m105.37 52 11-24.13h5.35L132.48 52h-5.15L125 46.64h-12.25L110.21 52Zm13.71-19.6L115 41.73h8l-3.93-9.34Z" class="cls-2" style="fill:#fff"/><path id="path6" d="m148.76 43.05 6.77 9H149l-6.1-8.7h-2.6V52H135V27.82h10.9c6.09 0 8.43 3.83 8.43 7.75 0 3.29-1.73 6.6-5.76 7.48ZM140.33 32v7.28h4.13c2.54 0 4.64-.58 4.64-3.66S147 32 144.46 32Z" class="cls-2" style="fill:#fff"/><path id="path7" d="M164.93 32.29h-7.68v-4.43h20.61v4.46h-7.61V52h-5.32Z" class="cls-2" style="fill:#fff"/><path id="path8" d="M180.91 27.82h5.31V52h-5.31Z" class="cls-2" style="fill:#fff"/><path id="path9" d="M201.62 52.06a12.26 12.26 0 1 1 10.63-18.25c-2.06 1.09-2.23 1.19-4.54 2.31a7 7 0 0 0-6.09-3.49 7.18 7.18 0 0 0 0 14.35 7.06 7.06 0 0 0 6.3-3.76c2.3 1.19 2.37 1.32 4.53 2.3a12.14 12.14 0 0 1-10.83 6.54Z" class="cls-2" style="fill:#fff"/><path id="path10" d="M215.73 27.82h5.32V52h-5.32Z" class="cls-2" style="fill:#fff"/><path id="path11" d="M225.72 27.82h10.9c6.06 0 8.36 3.83 8.36 7.75s-2.3 7.75-8.36 7.75H231V52h-5.31ZM231 39.19h4.13c2.44 0 4.67-.54 4.67-3.62S237.6 32 235.16 32H231Z" class="cls-2" style="fill:#fff"/><path id="path12" d="m243.49 52 11-24.13h5.35L270.6 52h-5.15l-2.37-5.35h-12.21L248.33 52Zm13.71-19.6-4.07 9.34h8l-3.93-9.34Z" class="cls-2" style="fill:#fff"/><path id="path13" d="M272.62 46.74h5.25V52h-5.25Z" class="cls-2" style="fill:#fff"/><path id="path14" d="M301.69 42.85c0 6.53-3.86 9.71-10.33 9.71s-10.29-3.11-10.29-9.71v-15h5.32v15c0 2.64.67 5.25 5 5.25 3.79 0 5-1.63 5-5.25v-15h5.32Z" class="cls-2" style="fill:#fff"/><path id="path15" d="M317.22 52.06a12.26 12.26 0 1 1 10.63-18.25c-2.07 1.09-2.24 1.19-4.54 2.31a7 7 0 0 0-6.09-3.49 7.18 7.18 0 1 0 0 14.35 7.06 7.06 0 0 0 6.3-3.76c2.3 1.19 2.37 1.32 4.53 2.3a12.15 12.15 0 0 1-10.83 6.54Z" class="cls-2" style="fill:#fff"/><path id="path16" d="M347.24 41.63H336v10.29h-5.18V27.69H336v8.76h11.2v-8.7h5.21v24.17h-5.21Z" class="cls-2" style="fill:#fff"/><path id="path17" d="M356.41 27.82h5.32V52h-5.32Z" class="cls-2" style="fill:#fff"/><path id="path18" d="M365.89 51.82v-24.1h5.21v19.63h12.39v4.47Z" class="cls-2" style="fill:#fff"/><path id="path19" d="M391 42.34v5.15h13.64V52h-18.78V27.72h17.63v4.47H391v5.45h11v4.7Z" class="cls-2" style="fill:#fff"/></g></g></svg>